<svg xmlns="http://www.w3.org/2000/svg" width="116.064" height="100" viewBox="0 0 116.064 100"><defs><style>.a{fill:#fff;}</style></defs><g transform="translate(-23 -10)"><path class="a" d="M330.534,206.438H319.653a1.7,1.7,0,1,0,0,3.4h10.881a1.7,1.7,0,0,0,0-3.4Zm0,0" transform="translate(-205.803 -137.065)"/><path class="a" d="M330.534,229.563H319.653a1.7,1.7,0,1,0,0,3.4h10.881a1.7,1.7,0,1,0,0-3.4Zm0,0" transform="translate(-205.803 -153.2)"/><path class="a" d="M330.534,183.317H319.653a1.7,1.7,0,1,0,0,3.4h10.881a1.7,1.7,0,0,0,0-3.4Zm0,0" transform="translate(-205.803 -120.932)"/><path class="a" d="M239.8,176a2.753,2.753,0,0,0-2.75,2.751v1.61h-3.989a2.753,2.753,0,0,0-2.75,2.75v1.454h-4a2.752,2.752,0,0,0-2.75,2.75v7.961a2.525,2.525,0,0,0,2.523,2.523h18.593a2.526,2.526,0,0,0,2.523-2.523V178.751a2.753,2.753,0,0,0-2.75-2.751Zm-9.489,18.4h-3.35v-6.433h3.35Zm6.739,0h-3.339V183.762h3.339Zm6.75,0h-3.339c0-11-.012-14.491-.012-15h3.35v15Zm0,0" transform="translate(-139.945 -115.827)"/><path class="a" d="M27.181,110H55.907a1.7,1.7,0,0,0,0-3.4H38.438V83.76a1.7,1.7,0,1,0-3.4,0V106.6H27.181a.782.782,0,0,1-.78-.78V81.755a11.064,11.064,0,0,1,6.379-9.971l11.056-4.318,6.58,6.579a13.372,13.372,0,0,0,18.919,0l6.488-6.487v22.5a4.367,4.367,0,0,0,4.362,4.363h1.126V106.6H63.842a1.7,1.7,0,0,0,0,3.4H92.567a4.186,4.186,0,0,0,4.182-4.181v-11.4h7.057v5.214a5.322,5.322,0,1,0,3.4,0V94.422h23.621a4.368,4.368,0,0,0,4.363-4.363V75.042a1.7,1.7,0,1,0-3.4,0V90.06a.963.963,0,0,1-.962.962H80.184a.963.963,0,0,1-.962-.962V50.31H131.79v16.8a1.7,1.7,0,1,0,3.4,0V50.31h0a3.876,3.876,0,0,0,3.872-3.872V43.16a3.877,3.877,0,0,0-3.872-3.872H81.6A7.367,7.367,0,0,0,78.711,34.7a4.288,4.288,0,0,0,.255-1.446V22.272a6,6,0,0,0-6.331-5.99.847.847,0,0,1-.939-.624C70.953,11.85,68.561,10,64.385,10H49.956A11.3,11.3,0,0,0,38.667,21.288V31.812a5.714,5.714,0,0,0,1.477,3.837,6.982,6.982,0,0,0,4.4,11.981,15.454,15.454,0,0,0,6.007,10.19v3.371L31.527,68.622l-.028.012A14.376,14.376,0,0,0,23,81.755v24.064A4.186,4.186,0,0,0,27.181,110Zm78.325-7.243a1.922,1.922,0,1,1-1.922,1.922,1.924,1.924,0,0,1,1.922-1.922Zm-20.8-8.334h8.638v11.4a.782.782,0,0,1-.782.78H84.712V94.422Zm-29.275-20.9,3.326-3.35a.031.031,0,0,0,.006-.007,2.942,2.942,0,0,0,.379-.483h1.425a2.848,2.848,0,0,0,.386.49l3.335,3.358a9.969,9.969,0,0,1-8.857-.008ZM53.951,61.6c0-.042,0-.086,0-.13V59.721a16.1,16.1,0,0,0,11.832.027V61.48c0,.032,0,.065,0,.1-1.972,1.959-2.825,2.805-4.74,4.706H58.672L53.951,61.6ZM67.07,71.5c-.326-.328-2.827-2.847-3.2-3.224l3.942-3.914,4.613,1.786Zm8.752-7.683L69.187,61.25l0-3.412a15.342,15.342,0,0,0,5.473-7.706,3.872,3.872,0,0,0,1.163.178h0Zm59.37-21.132a.473.473,0,0,1,.472.472v3.276a.474.474,0,0,1-.472.473H75.821a.473.473,0,0,1-.472-.473V43.16a.473.473,0,0,1,.472-.473c3.5,0,55.911,0,59.371,0ZM76.339,37.211a3.934,3.934,0,0,1,1.746,2.076H75.821a4.609,4.609,0,0,0-.472.029V37.5a4.632,4.632,0,0,0,.991-.284ZM44.4,44.162a3.717,3.717,0,0,1-2.979-3.514A3.938,3.938,0,0,1,43.3,37.441a5.679,5.679,0,0,0,.822.1c.092,0,.185.007.279.007Zm0-10.013a2.344,2.344,0,0,1-2.336-2.337V21.288A7.9,7.9,0,0,1,49.956,13.4H64.385c3.15,0,3.664,1.318,3.975,2.91A4.249,4.249,0,0,0,72.9,19.672a2.6,2.6,0,0,1,2.669,2.6V33.253a.913.913,0,0,1-.895.895A3.268,3.268,0,0,1,71.419,30.9a1.958,1.958,0,0,0-3.679-.925,7.88,7.88,0,0,1-6.959,4.176Zm3.4,11.437V37.549h12.98a11.282,11.282,0,0,0,8.083-3.409,6.692,6.692,0,0,0,3.084,2.823v8.623a12.075,12.075,0,0,1-24.147,0Zm4.073,18.74,3.979,3.952-3.188,3.21-5.372-5.372Zm0,0" transform="translate(0)"/></g></svg>