<svg xmlns="http://www.w3.org/2000/svg" xmlns:xlink="http://www.w3.org/1999/xlink" width="90" height="90" viewBox="0 0 90 90"><defs><style>.a{fill:#31bcff;}.b{filter:url(#a);}</style><filter id="a" x="0" y="0" width="90" height="90" filterUnits="userSpaceOnUse"><feOffset dy="3" input="SourceAlpha"/><feGaussianBlur stdDeviation="10" result="b"/><feFlood flood-color="#31bcff" flood-opacity="0.302"/><feComposite operator="in" in2="b"/><feComposite in="SourceGraphic"/></filter></defs><g transform="translate(-345 -5562)"><g class="b" transform="matrix(1, 0, 0, 1, 345, 5562)"><path class="a" d="M26.872,15l2.694-2.637a1.4,1.4,0,0,0-.625-2.364l-3.671-.937,1.035-3.634a1.42,1.42,0,0,0-1.738-1.739L20.935,4.721,20,1.049A1.406,1.406,0,0,0,17.636.424L15,3.139,12.364.424A1.406,1.406,0,0,0,10,1.049L9.065,4.721,5.432,3.686A1.42,1.42,0,0,0,3.694,5.424L4.729,9.058l-3.671.937a1.4,1.4,0,0,0-.625,2.364L3.128,15,.433,17.632A1.4,1.4,0,0,0,1.058,20l3.671.937L3.694,24.566A1.42,1.42,0,0,0,5.432,26.3L9.064,25.27,10,28.942a1.393,1.393,0,0,0,2.363.625L15,26.872l2.636,2.7A1.4,1.4,0,0,0,20,28.942l.937-3.672L24.568,26.3a1.42,1.42,0,0,0,1.738-1.739l-1.035-3.634L28.942,20a1.4,1.4,0,0,0,.625-2.364L26.872,15Z" transform="translate(30 27)"/></g></g></svg>