<svg xmlns="http://www.w3.org/2000/svg" width="500" height="372.56" viewBox="0 0 500 372.56"><defs><style>.a{fill:#ebebeb;}.b,.h{fill:#e0e0e0;}.c{fill:#f5f5f5;}.d{fill:#e6e6e6;}.e{fill:#f0f0f0;}.f,.j,.k,.t{fill:#fff;}.g{fill:#fafafa;}.h{opacity:0.6;}.i{fill:#8f71c4;}.j{opacity:0.8;}.k,.l{opacity:0.3;}.m{fill:#263238;}.n{fill:#803e3c;}.o{fill:#7f3e3b;}.p{fill:#630f0f;}.q{opacity:0.2;}.r,.t{opacity:0.4;}.s{opacity:0.5;}</style></defs><g transform="translate(0 -55)"><rect class="a" width="500" height="0.25" transform="translate(0 382.4)"/><rect class="a" width="21.68" height="0.25" transform="translate(428.22 398.49)"/><rect class="a" width="34.11" height="0.25" transform="translate(310.56 393.31)"/><rect class="a" width="44.53" height="0.25" transform="translate(396.59 389.21)"/><rect class="a" width="11.14" height="0.25" transform="translate(161.88 394.25)"/><rect class="a" width="38.39" height="0.25" transform="translate(114.58 394.25)"/><rect class="a" width="27.7" height="0.25" transform="translate(66.31 390.03)"/><path class="a" d="M237,337.8H43.91a5.71,5.71,0,0,1-5.7-5.71V60.66A5.71,5.71,0,0,1,43.91,55H237a5.71,5.71,0,0,1,5.71,5.71V332.09A5.71,5.71,0,0,1,237,337.8ZM43.91,55.2a5.46,5.46,0,0,0-5.45,5.46V332.09a5.46,5.46,0,0,0,5.45,5.46H237a5.47,5.47,0,0,0,5.46-5.46V60.66A5.47,5.47,0,0,0,237,55.2Z"/><path class="a" d="M453.31,337.8H260.21a5.72,5.72,0,0,1-5.71-5.71V60.66A5.72,5.72,0,0,1,260.21,55h193.1A5.71,5.71,0,0,1,459,60.66V332.09A5.71,5.71,0,0,1,453.31,337.8ZM260.21,55.2a5.47,5.47,0,0,0-5.46,5.46V332.09a5.47,5.47,0,0,0,5.46,5.46h193.1a5.47,5.47,0,0,0,5.46-5.46V60.66a5.47,5.47,0,0,0-5.46-5.46Z"/><path class="b" d="M115,174.63a20.91,20.91,0,0,0,0-41.82h-2.57v41.82Z"/><circle class="c" cx="20.91" cy="20.91" r="20.91" transform="translate(91.5 132.81)"/><path class="b" d="M111.45,156.34a28,28,0,0,1-28-28V111.63a2.63,2.63,0,1,1,5.26,0v16.72a22.76,22.76,0,0,0,22.73,22.74,2.63,2.63,0,1,1,0,5.25Z"/><path class="c" d="M62.83,126.35h46.52a4.86,4.86,0,0,0,4.7-6.1L110,105a4.86,4.86,0,0,0-4.69-3.62H66.87a4.87,4.87,0,0,0-4.7,3.62l-4,15.23a4.85,4.85,0,0,0,4.66,6.12Z"/><path class="b" d="M410.28,174.63a20.91,20.91,0,0,0,0-41.82h-2.57v41.82Z"/><circle class="c" cx="20.91" cy="20.91" r="20.91" transform="translate(386.8 132.81)"/><path class="b" d="M406.75,156.34a28,28,0,0,1-28-28V111.63a2.63,2.63,0,1,1,5.26,0v16.72a22.76,22.76,0,0,0,22.73,22.74,2.63,2.63,0,1,1,0,5.25Z"/><path class="c" d="M358.13,126.35h46.52a4.86,4.86,0,0,0,4.7-6.1l-4-15.23a4.86,4.86,0,0,0-4.69-3.62H362.17a4.87,4.87,0,0,0-4.7,3.62l-4,15.23a4.85,4.85,0,0,0,4.66,6.1Z"/><rect class="d" width="15.21" height="58.93" transform="translate(149.19 315.86) rotate(180)"/><path class="e" d="M92.75,315.85h50.47l7.62-68.97H100.37Z"/><path class="c" d="M87.28,315.85h52.14l7.62-68.97H94.91Z"/><path class="f" d="M135.65,310.42l6.42-58.1H98.67l-6.42,58.1Z"/><path class="c" d="M126.69,296.33,127,294c1.61-14.58-7.49-27.57-19.31-27.57h0l-.27,2.37c-1.61,14.57,7.49,27.56,19.32,27.56Z"/><rect class="d" width="44.84" height="66.55" transform="translate(103.93 382.4) rotate(180)"/><path class="e" d="M63.59,382.4H59.08V369.57h9.24Z"/><rect class="d" width="44.84" height="66.55" transform="translate(229.6 382.4) rotate(180)"/><rect class="e" width="129.61" height="58.67" transform="translate(188.69 374.53) rotate(180)"/><path class="e" d="M184.18,382.4h4.51V369.57h-9.24Z"/><rect class="d" width="122.61" height="23.68" transform="translate(185.19 343.2) rotate(180)"/><path class="e" d="M115.71,335h16.35a25.84,25.84,0,0,0,18.78-8.08H96.93A25.87,25.87,0,0,0,115.71,335Z"/><rect class="d" width="122.61" height="23.68" transform="translate(185.19 370.7) rotate(180)"/><path class="e" d="M115.71,362.46h16.35a25.84,25.84,0,0,0,18.78-8.08H96.93a25.87,25.87,0,0,0,18.78,8.08Z"/><path class="d" d="M180.48,313.14h1.16c0-2.39,0-8.44.12-22.31.21-25.15.61-26.68.61-26.68l-2.76,11.61C177.86,288.61,180.12,301.53,180.48,313.14Z"/><path class="d" d="M178.19,274c-4-4.73-12.45-6.11-21.13-7.29-3.41-.46,8.95,7.33,15,12.86,4.7,4.3,7.7,5.49,9,9.77C181.72,284,181.61,278.11,178.19,274Z"/><path class="d" d="M183.46,282.48c4-4.73,12.45-6.1,21.13-7.28,3.41-.46-9,7.33-15,12.86-4.7,4.3-7.7,5.49-9,9.77C179.93,292.49,180,286.56,183.46,282.48Z"/><path class="d" d="M181.76,263c3-5.66,10.46-11,18.87-13,3.3-.79-7.65,10.44-11.81,17.69-3.23,5.62-7.51,12.24-8.18,17C179.64,275.31,178.78,268.69,181.76,263Z"/><path class="e" d="M181.4,315.85h0c-3.54,0-6.47-1.77-6.68-4.05l-.59-3.88h14.55l-.6,3.88C187.88,314.08,185,315.85,181.4,315.85Z"/><path class="e" d="M189.62,309.41H173.19l-.47-4.33h17.37Z"/><rect class="d" width="160.21" height="146.13" transform="translate(329.75 226.72) rotate(180)"/><rect class="c" width="162.24" height="146.13" transform="translate(328.18 226.72) rotate(180)"/><rect class="g" width="133.04" height="149.3" transform="translate(321.7 87.14) rotate(90)"/><path class="f" d="M303.39,220.18,244.63,87.14H224.67l58.76,133.04Z"/><path class="f" d="M277.77,220.18,219.01,87.14H205.27l58.76,133.04Z"/><rect class="d" width="133.04" height="7.72" transform="translate(227.84 87.13) rotate(90)"/><rect class="d" width="133.04" height="7.72" transform="translate(279.16 87.13) rotate(90)"/><rect class="c" width="142.06" height="9.76" transform="translate(226.45 82.27) rotate(90)"/><rect class="c" width="142.06" height="9.76" transform="translate(277.77 82.27) rotate(90)"/><rect class="d" width="133.04" height="0.69" transform="translate(173.1 87.14) rotate(90)"/><path class="d" d="M163.22,72.17H336.78a.85.85,0,0,1,.84.84h0a.84.84,0,0,1-.84.83H163.22a.84.84,0,0,1-.84-.83h0a.85.85,0,0,1,.84-.84Z"/><path class="d" d="M329.75,77.68h0a1.13,1.13,0,0,0,1.12-1.13V74.13A1.12,1.12,0,0,0,329.75,73h0a1.13,1.13,0,0,0-1.13,1.12v2.42a1.14,1.14,0,0,0,1.13,1.14Z"/><path class="d" d="M175.8,77.68h0a1.14,1.14,0,0,0,1.13-1.13V74.13A1.13,1.13,0,0,0,175.8,73h0a1.12,1.12,0,0,0-1.12,1.12v2.42A1.13,1.13,0,0,0,175.8,77.68Z"/><rect class="h" width="162.13" height="114.44" transform="translate(325.61 187.44) rotate(180)"/><rect class="g" width="38.72" height="23.7" rx="5.38" transform="translate(306.95 259.97)"/><rect class="d" width="38.72" height="5.08" rx="1.81" transform="translate(306.95 255.59)"/><path class="e" d="M307.52,310s.51,16.67,19.93,16.67S347.38,310,347.38,310Z"/><path class="e" d="M351.8,310s.51,16.67,19.93,16.67S391.66,310,391.66,310Z"/><rect class="e" width="53.2" height="34.44" rx="7.4" transform="translate(336.24 249.24)"/><rect class="c" width="53.2" height="6.98" rx="2.48" transform="translate(336.24 243.22)"/><rect class="d" width="5.04" height="82.64" transform="translate(297.93 382.4) rotate(180)"/><rect class="d" width="27.29" height="16.08" transform="translate(411.13 283.67)"/><rect class="c" width="135.68" height="16.08" transform="translate(411.12 299.76) rotate(180)"/><rect class="d" width="27.29" height="16.08" transform="translate(411.13 326.62)"/><rect class="c" width="135.68" height="16.08" transform="translate(411.12 342.7) rotate(180)"/><rect class="d" width="5.04" height="82.64" transform="translate(433.61 382.4) rotate(180)"/><rect class="c" width="5.04" height="82.64" transform="translate(411.13 382.4) rotate(180)"/><rect class="c" width="5.04" height="82.64" transform="translate(280.48 382.4) rotate(180)"/><ellipse class="c" cx="193.89" cy="11.32" rx="193.89" ry="11.32" transform="translate(56.11 404.92)"/><path class="i" d="M260.41,365.5H132.84a8.13,8.13,0,0,1-8-7.64L113.4,136.31a7.17,7.17,0,0,1,7.24-7.63H248.21a8.12,8.12,0,0,1,8,7.63l11.42,221.55a7.18,7.18,0,0,1-7.22,7.64Z"/><path class="j" d="M260.41,365.5H132.84a8.13,8.13,0,0,1-8-7.64L113.4,136.31a7.17,7.17,0,0,1,7.24-7.63H248.21a8.12,8.12,0,0,1,8,7.63l11.42,221.55a7.18,7.18,0,0,1-7.22,7.64Z"/><rect class="i" width="14.11" height="1" transform="translate(221.51 121.46)"/><rect class="i" width="5.17" height="1" transform="translate(211.45 121.46)"/><path class="i" d="M265.9,351.44h-122a7.77,7.77,0,0,1-7.68-7.29L125.3,132.25a6.86,6.86,0,0,1,6.93-7.3h122a7.77,7.77,0,0,1,7.67,7.3l10.92,211.9a6.85,6.85,0,0,1-6.92,7.29Z"/><path class="f" d="M265.9,346.57h-122a2.92,2.92,0,0,1-2.81-2.68L130.16,132a1.994,1.994,0,0,1,2.06-2.17h122a2.92,2.92,0,0,1,2.8,2.68L268,344.4a2,2,0,0,1-2.05,2.17ZM132.22,130.08a1.79,1.79,0,0,0-1.34.54,1.84,1.84,0,0,0-.47,1.37l10.92,211.89a2.67,2.67,0,0,0,2.56,2.44h122a1.74,1.74,0,0,0,1.33-.54,1.76,1.76,0,0,0,.47-1.37L256.78,132.52a2.66,2.66,0,0,0-2.55-2.44Z"/><ellipse class="k" cx="36" cy="37.9" rx="36" ry="37.9" transform="translate(143.816 179.937) rotate(-45.74)"/><path class="f" d="M226,180.61a28.71,28.71,0,0,1-2.87,14.24,28.07,28.07,0,0,1-25.47,15.65,31.75,31.75,0,0,1-27.08-15.65,30.78,30.78,0,0,1-4.34-14.24,28.09,28.09,0,0,1,28.34-29.88A31.81,31.81,0,0,1,226,180.61Z"/><path class="i" d="M223.1,194.85a28.07,28.07,0,0,1-25.47,15.65,31.75,31.75,0,0,1-27.08-15.65,45.16,45.16,0,0,1,25.86-8A49.14,49.14,0,0,1,223.1,194.85Z"/><ellipse class="i" cx="12.97" cy="13.66" rx="12.97" ry="13.66" transform="translate(176.73 170.138) rotate(-45.74)"/><path class="f" d="M248.41,269H152.88a3.29,3.29,0,0,1-3.25-3.09l-.72-14a2.9,2.9,0,0,1,2.93-3.08h95.53a3.29,3.29,0,0,1,3.25,3.08l.72,14a2.9,2.9,0,0,1-2.93,3.09Z"/><path class="l" d="M219.16,241.1h-39.9A3.29,3.29,0,0,1,176,238l-.15-3a2.9,2.9,0,0,1,2.93-3.09h39.89a3.29,3.29,0,0,1,3.25,3.09l.16,3a2.92,2.92,0,0,1-2.92,3.1Z"/><path class="l" d="M234,336.31H174.23a5.61,5.61,0,0,1-5.53-5.26l-.35-6.9a5,5,0,0,1,5-5.26H233.1a5.61,5.61,0,0,1,5.53,5.26l.35,6.9a5,5,0,0,1-4.98,5.26Z"/><path class="f" d="M250.16,302.86H154.62a3.3,3.3,0,0,1-3.25-3.09l-.72-14a2.91,2.91,0,0,1,2.93-3.09h95.53a3.29,3.29,0,0,1,3.25,3.09l.73,14a2.92,2.92,0,0,1-2.93,3.09Z"/><path class="m" d="M165,258.91a3.22,3.22,0,0,1-3.25,3.42,3.64,3.64,0,0,1-3.59-3.42,3.21,3.21,0,0,1,3.24-3.42,3.65,3.65,0,0,1,3.6,3.42Z"/><path class="m" d="M175.53,258.91a3.21,3.21,0,0,1-3.24,3.42,3.63,3.63,0,0,1-3.59-3.42,3.21,3.21,0,0,1,3.24-3.42A3.63,3.63,0,0,1,175.53,258.91Z"/><path class="m" d="M186,258.91a3.21,3.21,0,0,1-3.24,3.42,3.65,3.65,0,0,1-3.6-3.42,3.22,3.22,0,0,1,3.25-3.42A3.64,3.64,0,0,1,186,258.91Z"/><path class="m" d="M196.55,258.91a3.22,3.22,0,0,1-3.24,3.42,3.65,3.65,0,0,1-3.6-3.42,3.22,3.22,0,0,1,3.24-3.42,3.65,3.65,0,0,1,3.6,3.42Z"/><path class="m" d="M166.77,292.75a3.21,3.21,0,0,1-3.24,3.42,3.65,3.65,0,0,1-3.6-3.42,3.22,3.22,0,0,1,3.25-3.42A3.64,3.64,0,0,1,166.77,292.75Z"/><path class="m" d="M177.28,292.75a3.22,3.22,0,0,1-3.24,3.42,3.65,3.65,0,0,1-3.6-3.42,3.21,3.21,0,0,1,3.24-3.42,3.65,3.65,0,0,1,3.6,3.42Z"/><path class="m" d="M187.79,292.75a3.22,3.22,0,0,1-3.25,3.42,3.63,3.63,0,0,1-3.59-3.42,3.21,3.21,0,0,1,3.24-3.42,3.65,3.65,0,0,1,3.6,3.42Z"/><path class="m" d="M198.29,292.75a3.21,3.21,0,0,1-3.24,3.42,3.65,3.65,0,0,1-3.6-3.42,3.22,3.22,0,0,1,3.25-3.42,3.63,3.63,0,0,1,3.59,3.42Z"/><path class="m" d="M208.8,292.75a3.21,3.21,0,0,1-3.24,3.42,3.65,3.65,0,0,1-3.6-3.42,3.22,3.22,0,0,1,3.24-3.42,3.65,3.65,0,0,1,3.6,3.42Z"/><path class="m" d="M219.31,292.75a3.22,3.22,0,0,1-3.25,3.42,3.64,3.64,0,0,1-3.59-3.42,3.21,3.21,0,0,1,3.24-3.42,3.65,3.65,0,0,1,3.6,3.42Z"/><path class="n" d="M333,176.62c.25.38.38.58.54.85l.45.74c.29.5.55,1,.8,1.49.5,1,1,2,1.4,3a55.209,55.209,0,0,1,2.16,6.09,63.772,63.772,0,0,1,2.38,12.54l.07.79a4.587,4.587,0,0,1,0,.48v.53a12.793,12.793,0,0,1-.12,2.08,17.139,17.139,0,0,1-1,3.73,25.811,25.811,0,0,1-3.46,6,42.89,42.89,0,0,1-9.31,8.81l-2.76-3.23a57.351,57.351,0,0,0,6.64-9.19,21,21,0,0,0,2-4.72,9.534,9.534,0,0,0,.33-2.14,4.686,4.686,0,0,0,0-.93v-.21a1.3,1.3,0,0,0,0-.28l-.12-.7a79.26,79.26,0,0,0-2.72-11c-.58-1.79-1.29-3.52-2-5.21-.35-.85-.75-1.68-1.15-2.48l-.62-1.18-.31-.55-.26-.44Z"/><path class="o" d="M323.7,223.77l3.62,7.65,2.87-6.47s-2.55-5.6-6-5.08Z"/><path class="o" d="M329.91,231.8l2.88-4.72-2.6-2.13-2.87,6.47Z"/><path class="i" d="M313.63,408.22a10.267,10.267,0,0,0,2.22-.3.22.22,0,0,0,.15-.16.2.2,0,0,0-.09-.2c-.29-.19-2.83-1.83-3.81-1.39a.68.68,0,0,0-.39.56,1.13,1.13,0,0,0,.33,1,2.37,2.37,0,0,0,1.59.49Zm1.65-.59c-1.45.3-2.55.25-3-.14a.77.77,0,0,1-.21-.71.242.242,0,0,1,.17-.25C312.78,406.29,314.25,407,315.28,407.63Z"/><path class="i" d="M315.8,407.92h.1a.22.22,0,0,0,.1-.18c0-.1,0-2.51-.92-3.32a1.05,1.05,0,0,0-.84-.26.69.69,0,0,0-.67.55c-.19.95,1.33,2.75,2.13,3.21Zm-1.43-3.39a.61.61,0,0,1,.44.17,4.53,4.53,0,0,1,.78,2.64c-.8-.64-1.75-2-1.63-2.57,0-.09.07-.21.32-.24Z"/><path class="i" d="M304.19,404.14a.21.21,0,0,0-.14-.34c-.41,0-4-.17-4.82.71v.06a.63.63,0,0,0-.09.62,1.11,1.11,0,0,0,.73.73c1.16.36,3.21-.95,4.33-1.76Zm-4.66.63c.45-.48,2.43-.61,3.91-.59-1.55,1.06-2.84,1.56-3.49,1.36a.72.72,0,0,1-.48-.48.27.27,0,0,1,0-.25Z"/><path class="i" d="M304.19,404.14h0a.23.23,0,0,0,0-.2c-.05-.08-1.17-2-2.49-2.4a1.45,1.45,0,0,0-1.14.14c-.48.28-.51.61-.45.82.26.93,2.81,1.75,3.91,1.74a.2.2,0,0,0,.17-.1Zm-3.59-2a.839.839,0,0,1,.19-.14,1,1,0,0,1,.84-.11c.87.23,1.68,1.35,2.05,1.9-1.19-.13-3-.86-3.15-1.42a.23.23,0,0,1,.07-.24Z"/><path class="o" d="M315.2,147.33c-1,5-3.16,15.81.31,19.13,0,0-1.36,5-10.59,5-10.16,0-4.85-5-4.85-5,5.54-1.32,5.4-5.44,4.43-9.3Z"/><path class="m" d="M298.28,135.61a.53.53,0,0,0,.17,0,.4.4,0,0,0,.18-.54,3.94,3.94,0,0,0-2.88-2.2.41.41,0,0,0-.44.35.4.4,0,0,0,.35.44h0a3.14,3.14,0,0,1,2.26,1.77.4.4,0,0,0,.36.18Z"/><path class="p" d="M295.25,140a18.259,18.259,0,0,1-2.92,4,2.91,2.91,0,0,0,2.33.74Z"/><path class="m" d="M296,138.87c-.08.67-.51,1.17-.94,1.12s-.73-.64-.65-1.31.51-1.17,1-1.12S296.07,138.2,296,138.87Z"/><path class="m" d="M295.54,137.62,294,137S294.65,138.32,295.54,137.62Z"/><path class="o" d="M313.02,402.24l-8.16,1.9-4.96-18.76,8.16-1.9Z"/><path class="o" d="M325.54,407.72h-8.37l.65-19.39h8.38Z"/><path class="m" d="M316.5,406.75h9.41a.67.67,0,0,1,.67.58l1.07,7.44a1.34,1.34,0,0,1-1.34,1.49c-3.28-.05-4.86-.25-9-.25-2.55,0-6.27.27-9.78.27s-3.71-3.48-2.24-3.79c6.56-1.42,7.6-3.36,9.81-5.22A2.17,2.17,0,0,1,316.5,406.75Z"/><path class="m" d="M304.14,402.89l8.55-3.93a.66.66,0,0,1,.84.24l4.09,6.32a1.35,1.35,0,0,1-.6,1.91c-3,1.32-4.52,1.81-8.28,3.54-2.31,1.06-7,3.5-10.18,5s-4.82-1.61-3.62-2.51c5.37-4,6.91-6.87,8.14-9.48A2.14,2.14,0,0,1,304.14,402.89Z"/><path class="q" d="M299.9,385.38l2.66,10.06,8.06-2.29-2.55-9.67Z"/><path class="q" d="M326.2,388.33h-8.38l-.33,10h8.38Z"/><path class="m" d="M330,168.36c3.48.77,7.2,13.28,7.2,13.28l-9.84,10.47s-8.17-11.76-6.5-16.08C322.55,171.52,325.85,167.46,330,168.36Z"/><path class="r" d="M324.44,176.33c-1.76-1.61-2.95-1.13-3.76.15-.8,3.72,3.94,11.51,5.85,14.46C327.41,187.42,328.42,180,324.44,176.33Z"/><path class="m" d="M285.91,168.61s-4,1.4,4,50.55h34c-.57-13.84-.59-22.38,6-50.8a100.278,100.278,0,0,0-14.45-1.9,107.4,107.4,0,0,0-15.44,0C293.43,167.07,285.91,168.61,285.91,168.61Z"/><path class="r" d="M285.6,187.47c.22,2.39.51,5.08.89,8.12,2.79-2.51,5.07-9.65,4.23-13.81A24.591,24.591,0,0,0,285.6,187.47Z"/><path class="n" d="M289.24,180a148.066,148.066,0,0,1-6.19,13.55,83.258,83.258,0,0,1-8,13l-.64.79-.32.39c-.11.13-.2.25-.37.43a12.438,12.438,0,0,1-2,1.76,16.3,16.3,0,0,1-4.18,2.08,30.53,30.53,0,0,1-8,1.42,59.36,59.36,0,0,1-15.16-1.35l.55-4.2c2.3,0,4.71,0,7-.19a56.435,56.435,0,0,0,6.86-.76,27,27,0,0,0,6.14-1.72,9.17,9.17,0,0,0,2.21-1.34,4.569,4.569,0,0,0,.69-.72s.12-.16.2-.27l.23-.33.47-.66a99.146,99.146,0,0,0,6.69-12.11c2-4.25,4-8.66,5.83-13Z"/><path class="m" d="M285.91,168.61c-4.17,1-9.29,12.44-9.29,12.44l8.64,12.7s11.51-14.49,10.14-18.91C294,170.23,291,167.37,285.91,168.61Z"/><path class="o" d="M247.33,208.51l-7.21-3.33-.72,7.17s6,1.77,9,0Z"/><path class="o" d="M235.81,204.46l-.69,5.46,4.28,2.43.72-7.17Z"/><path class="o" d="M318.82,139.36c-1.53,8.17-2,11.67-6.68,15.38-7,5.58-16.75,1.92-17.69-6.54-.86-7.62,1.78-19.7,10.25-22a11.33,11.33,0,0,1,14.12,13.16Z"/><path class="m" d="M300.87,141.08c-.47,4.17-.65,15,8.51,15.34,11.21.41,14.57-9.17,13.57-13,5.84-4.75,6.68-12.92.12-19.17s-21-2.76-25,3.33C293,135.13,300.87,141.08,300.87,141.08Z"/><path class="i" d="M312.1,126.68c-.54-4.4-.12-7.43,4-7.43s9.74,1.49,11.8,5.7,2.23,10.8-3.52,10.13S312.75,131.94,312.1,126.68Z"/><path class="m" d="M318.48,125.62c-1-5.24,3.69-20,15.08-21,5.28-.45,7.72,5.23,5,6.17,5-.06,8.2,6.55,3.54,7.54,3.68,2.36,2.77,7.2-2.48,9.58C335.71,129.71,319.83,132.88,318.48,125.62Z"/><path class="m" d="M330.65,131.25c-3.67,0-7.5-.54-9.88-2.13a4.89,4.89,0,0,1-2.35-3.8.26.26,0,0,1,.23-.27.24.24,0,0,1,.27.23,4.46,4.46,0,0,0,2.13,3.43c4.53,3,15,2,18.26,1,2.82-.92,4.73-2.71,5.11-4.77a4.14,4.14,0,0,0-1.67-4,.24.24,0,0,1,0-.35.25.25,0,0,1,.35,0,4.66,4.66,0,0,1,1.85,4.53c-.41,2.25-2.44,4.17-5.44,5.15a32.69,32.69,0,0,1-8.86.98Z"/><path class="o" d="M298.32,140a6.15,6.15,0,0,0-1.07,4.51c.33,2.1,2.37,2.24,3.85.9s2.77-3.76,1.68-5.5a2.62,2.62,0,0,0-4.46.09Z"/><path class="i" d="M298.89,219.16s4.86,57.49,9.91,89.89c4.07,26.17,7.29,87.34,7.29,87.34h11.42s4.06-59.34,2-85.22c-5.23-65.5,6.44-70.84-5.57-92Z"/><path class="r" d="M313.27,240.89a55.8,55.8,0,0,0-10.79,16.28c1.33,12.92,2.91,27.26,4.59,39.82a110.38,110.38,0,0,0,6.2-56.1Z"/><path class="i" d="M290.9,218.8s-10.55,62.79-12.21,91.09c4.14,26.17,21.08,81.49,21.08,81.49l10.39-3.77s-5.75-60.32-12-76.83c14.07-47.37,24.41-59.35,21.4-91.62C312.35,219.16,290.9,218.8,290.9,218.8Z"/><path class="m" d="M298.38,394.14l14.04-3.81-.8-5.6-15.03,4.07Z"/><path class="m" d="M314.52,396.62h14.55l.76-5.1L314.44,391Z"/><path class="i" d="M324.44,217.16l1.53,3.05c.12.24-.16.48-.55.48H289.74c-.3,0-.56-.15-.58-.35l-.31-3c0-.21.25-.39.58-.39h34.45a.63.63,0,0,1,.56.21Z"/><path class="s" d="M324.44,217.16l1.53,3.05c.12.24-.16.48-.55.48H289.74c-.3,0-.56-.15-.58-.35l-.31-3c0-.21.25-.39.58-.39h34.45a.63.63,0,0,1,.56.21Z"/><path class="i" d="M319.81,221h.92c.19,0,.33-.1.32-.21l-.44-4c0-.12-.17-.21-.35-.21h-.93c-.18,0-.32.09-.31.21l.43,4C319.47,220.92,319.63,221,319.81,221Z"/><path class="i" d="M307.43,191.88a.52.52,0,0,1-.49-.37c-3.26-12.06-10-22-13.27-23.5a1.14,1.14,0,0,0-.85-.14.5.5,0,1,1-.41-.91,2,2,0,0,1,1.68.14c3.46,1.64,10.3,11.44,13.72,23.77,2.45,0,6.23-.33,7.15-.41,1.14-1.36,9.52-11.84,6.39-23.31a.49.49,0,0,1,.35-.61.5.5,0,0,1,.61.35c3.49,12.76-6.63,24.27-6.74,24.38a.46.46,0,0,1-.32.17C315.2,191.44,310.21,191.88,307.43,191.88Z"/><path class="i" d="M324,198.94c-5.45-10.21-7.68-10.93-8.65-14.21a17,17,0,0,1,3.1-5c-.66-.19-2.08-.47-3-.64.1-.45.21-.89.31-1.32a9.54,9.54,0,0,0-3,.14v-1a13,13,0,0,0-3.87-.25q.17.71.33,1.44c-1,.19-2.52.5-3.25.71a14.4,14.4,0,0,1,3.05,5.57c-2.94,5.05-14.36,37.51,4.22,40S329.44,209.16,324,198.94Z"/><path class="t" d="M324,198.94c-5.45-10.21-7.68-10.93-8.65-14.21a17,17,0,0,1,3.1-5c-.66-.19-2.08-.47-3-.64.1-.45.21-.89.31-1.32a9.54,9.54,0,0,0-3,.14v-1a13,13,0,0,0-3.87-.25q.17.71.33,1.44c-1,.19-2.52.5-3.25.71a14.4,14.4,0,0,1,3.05,5.57c-2.94,5.05-14.36,37.51,4.22,40S329.44,209.16,324,198.94Z"/><path class="i" d="M308.26,183.41a6.288,6.288,0,0,0-.15,1.57c0,.37,1,.62,2.11.73s5.77.29,5.62-.23.23-1.23.25-1.67-1.85-.46-3.42-.4S308.57,182.85,308.26,183.41Z"/><path class="i" d="M297.45,221h.92c.18,0,.32-.1.31-.21l-.43-4c0-.12-.17-.21-.36-.21H297c-.18,0-.32.09-.31.21l.43,4C297.1,220.92,297.26,221,297.45,221Z"/></g></svg>