<svg xmlns="http://www.w3.org/2000/svg" width="99.724" height="99.75" viewBox="0 0 99.724 99.75"><defs><style>.a{fill:#fff;}</style></defs><g transform="translate(-164.501 -125.75)"><path class="a" d="M171.281,212.2h86.161a3.4,3.4,0,0,0,3.457-3.324V155.694a3.394,3.394,0,0,0-3.457-3.324H209.019a18.232,18.232,0,0,0,1.311-3.324h17.328a4.986,4.986,0,0,0,4.986-4.986v-3.325h23.269a4.986,4.986,0,0,0,4.986-4.986v-.306a4.987,4.987,0,1,0-3.324,0v.306a1.663,1.663,0,0,1-1.662,1.662H232.644v-1.968a4.987,4.987,0,1,0-3.324,0v1.968H209.767A18.267,18.267,0,1,0,176.49,152.37h-5.209a3.394,3.394,0,0,0-3.457,3.324V208.88a3.4,3.4,0,0,0,3.457,3.324Zm87.956-83.1a1.662,1.662,0,1,1-1.662,1.662,1.661,1.661,0,0,1,1.662-1.662Zm-28.255,0a1.662,1.662,0,1,1-1.662,1.662,1.661,1.661,0,0,1,1.662-1.662ZM181.12,188.935h-1.662v-1.662h1.662Zm.919-9.806a1.663,1.663,0,0,0-.919,1.5v.974l-1.662-1.662v-.974a8.323,8.323,0,0,1,8.311-8.311h9.972a8.321,8.321,0,0,1,8.31,8.311v.974l-1.662,1.662v-.974a1.662,1.662,0,0,0-1.258-1.613l-13.3-3.324a1.657,1.657,0,0,0-1.147.125Zm22.35,8.144h1.662v1.662h-1.662Zm-19.944-5.621,5.178-2.59,11.442,2.861V190.6a8.31,8.31,0,0,1-16.62,0Zm3.6,22.241h9.417l-.768,4.987h-7.871Zm12.769.068a18.126,18.126,0,0,1,11.125,4.919H200.067Zm-16.121.014.766,4.9H173.589a18.064,18.064,0,0,1,11.107-4.9Zm44.624-63.24v3.325a1.663,1.663,0,0,1-1.662,1.662H210.953c.05-.549.084-1.1.084-1.662a18.277,18.277,0,0,0-.317-3.325ZM192.755,129.1A14.959,14.959,0,1,1,177.8,144.06,14.959,14.959,0,0,1,192.755,129.1Zm-14.093,26.593a18.262,18.262,0,0,0,28.186,0h50.727l-.133,53.186H216.42a21.209,21.209,0,0,0-17.017-8.311h-.686a11.63,11.63,0,0,0,5.539-8.31h1.795a3.323,3.323,0,0,0,3.324-3.324v-1.662a3.323,3.323,0,0,0-2.7-3.261l2.211-2.212a1.662,1.662,0,0,0,.487-1.175v-1.662a11.648,11.648,0,0,0-11.634-11.635h-9.972a11.65,11.65,0,0,0-11.635,11.635v1.662a1.667,1.667,0,0,0,.487,1.175l2.212,2.212a3.324,3.324,0,0,0-2.7,3.261v1.662a3.324,3.324,0,0,0,3.324,3.324h1.8a11.635,11.635,0,0,0,5.54,8.31h-.686a21.413,21.413,0,0,0-14.959,6.043l.133-50.918Zm0,0"/><path class="a" d="M222.672,205.555h26.593a4.986,4.986,0,0,0,4.986-4.986V164a4.986,4.986,0,0,0-4.986-4.986H222.672A4.986,4.986,0,0,0,217.686,164v36.565a4.986,4.986,0,0,0,4.986,4.986ZM221.01,164a1.663,1.663,0,0,1,1.662-1.662h26.593A1.663,1.663,0,0,1,250.927,164v36.565a1.663,1.663,0,0,1-1.662,1.662H222.672a1.662,1.662,0,0,1-1.662-1.662Zm0,0"/><rect class="a" width="23.269" height="3.324" transform="translate(224.334 168.99)"/><rect class="a" width="23.269" height="3.324" transform="translate(224.334 180.625)"/><rect class="a" width="23.269" height="3.324" transform="translate(224.334 192.259)"/><path class="a" d="M262.561,215.528H221.01a1.662,1.662,0,0,0-1.662,1.662v1.662h-9.973V217.19a1.662,1.662,0,0,0-1.662-1.662H166.162a1.662,1.662,0,0,0-1.612,2.064l1.032,4.134a4.985,4.985,0,0,0,4.838,3.774H258.3a4.986,4.986,0,0,0,4.838-3.776l1.032-4.132a1.662,1.662,0,0,0-1.612-2.064Zm-92.141,6.648a1.66,1.66,0,0,1-1.613-1.259l-.515-2.065h37.759v1.662a1.663,1.663,0,0,0,1.662,1.662Zm89.5-1.26a1.661,1.661,0,0,1-1.613,1.26H221.01a1.663,1.663,0,0,0,1.662-1.662v-1.662h37.759Zm0,0"/><path class="a" d="M185.232,153.784a1.665,1.665,0,0,0,1.618.074l16.621-8.311a1.663,1.663,0,0,0,0-2.975l-16.621-8.311a1.662,1.662,0,0,0-2.4,1.488V152.37a1.663,1.663,0,0,0,.787,1.414Zm2.537-15.346,11.242,5.622-11.242,5.621Zm0,0"/></g></svg>