<svg xmlns="http://www.w3.org/2000/svg" xmlns:xlink="http://www.w3.org/1999/xlink" width="103.937" height="77.796" viewBox="0 0 103.937 77.796"><defs><style>.a{fill:#2e2b4e;font-size:22px;font-family:Teko-Medium, Teko;font-weight:500;}.b{font-size:25px;}.c{fill:#7ea346;}.d{fill:url(#a);}.e{fill:url(#b);}.f{fill:url(#c);}.g{fill:url(#d);}.h{fill:none;}</style><linearGradient id="a" x1="1.453" y1="-8.059" x2="-0.038" y2="5.33" gradientUnits="objectBoundingBox"><stop offset="0" stop-color="#434495"/><stop offset="1" stop-color="#6964aa"/></linearGradient><linearGradient id="b" x1="1.267" y1="-6.391" x2="-0.224" y2="7" xlink:href="#a"/><linearGradient id="c" x1="1.081" y1="-4.722" x2="-0.41" y2="8.67" xlink:href="#a"/><linearGradient id="d" x1="0.789" y1="0.075" x2="0.116" y2="0.987" xlink:href="#a"/></defs><g transform="translate(-1295.639 -626.862)"><text class="a" transform="translate(1337.576 668.772)"><tspan x="0" y="0">Creative</tspan><tspan class="b"><tspan x="0" y="25">SCHOOL</tspan></tspan></text><path class="c" d="M1302.831,629.809a3.559,3.559,0,1,0,.054.614A3.561,3.561,0,0,0,1302.831,629.809Z" transform="translate(-0.016)"/><path class="d" d="M1322.48,686.056h-12.163a2.574,2.574,0,0,0,0,5.149h12.163a2.574,2.574,0,1,0,0-5.149Z" transform="translate(-1.586 -7.756)"/><path class="e" d="M1322.48,674.779h-12.163a2.574,2.574,0,0,0,0,5.148h12.163a2.574,2.574,0,1,0,0-5.148Z" transform="translate(-1.586 -6.278)"/><path class="f" d="M1322.48,663.5h-12.163a2.574,2.574,0,0,0,0,5.148h12.163a2.574,2.574,0,1,0,0-5.148Z" transform="translate(-1.586 -4.801)"/><path class="g" d="M1323.825,648.137h-16.257a6.781,6.781,0,0,1,0-13.563h19.166a2.1,2.1,0,1,1,0,4.208h-18a2.574,2.574,0,0,0,0,5.149h18a7.252,7.252,0,1,0,0-14.5h-19.166a11.892,11.892,0,0,0-3.272.46,5.065,5.065,0,0,1-7.051,5.5,11.851,11.851,0,0,0-1.607,5.969V692.11a2.574,2.574,0,0,0,2.574,2.574h4.492v7.736a2.574,2.574,0,0,0,4.394,1.82l9.556-9.556h13.864a2.574,2.574,0,0,0,2.574-2.574V657.4A9.277,9.277,0,0,0,1323.825,648.137Zm4.118,41.4h-12.355a2.577,2.577,0,0,0-1.821.753l-5.915,5.915V692.11a2.574,2.574,0,0,0-2.574-2.574h-4.492V651.165a11.861,11.861,0,0,0,6.781,2.12h16.257a4.123,4.123,0,0,1,4.118,4.118Z" transform="translate(0 -0.336)"/><path class="h" d="M1324.6,656.563h-16.257a11.861,11.861,0,0,1-6.781-2.12v38.371h4.492a2.574,2.574,0,0,1,2.574,2.574v4.095l5.915-5.915a2.577,2.577,0,0,1,1.821-.753h12.355V660.681A4.123,4.123,0,0,0,1324.6,656.563Zm-2.931,30.5h-12.163a2.574,2.574,0,0,1,0-5.149h12.163a2.574,2.574,0,1,1,0,5.149Zm0-9.8h-12.163a2.574,2.574,0,0,1,0-5.148h12.163a2.574,2.574,0,1,1,0,5.148Zm0-9.8h-12.163a2.574,2.574,0,0,1,0-5.148h12.163a2.574,2.574,0,1,1,0,5.148Z" transform="translate(-0.776 -3.614)"/></g></svg>