<svg xmlns="http://www.w3.org/2000/svg" width="30" height="30" viewBox="0 0 30 30"><defs><style>.a{fill:#fff;}</style></defs><g transform="translate(-3.375 -3.375)"><path class="a" d="M10.276,18.864a1.012,1.012,0,0,1,0-1.426l5-4.982a1.007,1.007,0,0,1,1.389-.031l4.925,4.909a1.006,1.006,0,1,1-1.42,1.426l-4.23-4.167L11.7,18.869A1.007,1.007,0,0,1,10.276,18.864Z" transform="translate(2.781 2.584)"/><path class="a" d="M18.375,33.375a15,15,0,1,0-15-15A15,15,0,0,0,18.375,33.375Zm0-2.308A12.687,12.687,0,0,1,9.4,9.4,12.687,12.687,0,1,1,27.346,27.346,12.583,12.583,0,0,1,18.375,31.067Z"/></g></svg>