<svg xmlns="http://www.w3.org/2000/svg" width="100.002" height="100" viewBox="0 0 100.002 100"><defs><style>.a{fill:#fff;}</style></defs><g transform="translate(-164.999 -125.004)"><path class="a" d="M262.782,141.865,216.131,125.2a3.431,3.431,0,0,0-2.276,0l-46.639,16.667a3.334,3.334,0,0,0,0,6.273L190,156.278v10.391c0,6.48,22.442,6.667,25,6.667s25-.187,25-6.667V156.278l5-1.775v3.833a3.334,3.334,0,0,0,3.334,3.333h3.334A3.333,3.333,0,0,0,255,158.336v-5a4.924,4.924,0,0,0-.544-2.219l8.333-2.979a3.334,3.334,0,0,0,0-6.273ZM236.667,163c-6.348-2.89-19.725-3-21.667-3s-15.319.111-21.667,3V148.482c1-1.284,8.861-3.48,21.667-3.48s20.667,2.2,21.667,3.48ZM215,170c-12.333,0-20.079-2.037-21.527-3.334,1.448-1.3,9.2-3.333,21.527-3.333s20.079,2.036,21.527,3.333C235.079,167.966,227.333,170,215,170Zm30.783-19.325L240,152.739v-4.4c0-6.48-22.442-6.667-25-6.667s-25,.187-25,6.667v4.4L168.333,145l46.69-16.667,33.311,11.9v8.4a5,5,0,0,0-2.551,2.036Zm5.885,7.658h-3.334v-5a1.667,1.667,0,1,1,3.334,0Zm0-9.76v-7.145l10,3.571Zm0,0"/><path class="a" d="M260,176.669a1.643,1.643,0,0,0-.3.027A278.994,278.994,0,0,1,215,180a278.994,278.994,0,0,1-44.7-3.306,1.854,1.854,0,0,0-.3-.027c-1.167,0-5,1.322-5,18.334s3.833,18.333,5,18.333a1.966,1.966,0,0,0,.3-.029,260.589,260.589,0,0,1,34.335-3.13l-3.254,7.8a3.321,3.321,0,0,0,4.4,4.279l1.275-.545.551,1.268A3.317,3.317,0,0,0,210.675,225h.041a3.322,3.322,0,0,0,3.055-2.081l2.9-6.93,2.885,6.9A3.337,3.337,0,0,0,222.616,225h.051a3.31,3.31,0,0,0,3.053-2l.557-1.278,1.255.538a3.321,3.321,0,0,0,4.415-4.3l-3.191-7.65a254.088,254.088,0,0,1,30.955,3,1.652,1.652,0,0,0,.29.021c1.167,0,5-1.321,5-18.333s-3.833-18.334-5-18.334Zm-39.668,6.617a35.086,35.086,0,0,1,1.2,7.8,11.563,11.563,0,0,0-11.6,1.078,45.025,45.025,0,0,0-1.145-8.887q3.029.063,6.212.063c1.822,0,3.59-.02,5.333-.05ZM216.666,210A8.334,8.334,0,1,1,225,201.669,8.333,8.333,0,0,1,216.666,210ZM170,180.836A46.73,46.73,0,0,1,171.666,195,46.737,46.737,0,0,1,170,209.17,46.737,46.737,0,0,1,168.333,195,46.729,46.729,0,0,1,170,180.836Zm3.367,28.618C174.278,206.81,175,202.386,175,195s-.721-11.807-1.635-14.453a292.65,292.65,0,0,0,31.942,2.638A42.906,42.906,0,0,1,206.667,195c0,.241,0,.471-.011.7a11.548,11.548,0,0,0-.536,10.921l-.073.176a290.14,290.14,0,0,0-32.681,2.654Zm37.313,12.216-1.217-2.8a1.666,1.666,0,0,0-2.185-.866l-2.806,1.24,3.909-9.37a11.663,11.663,0,0,0,5.887,3.216ZM226.057,218a1.666,1.666,0,0,0-2.185.866l-1.233,2.771-3.574-8.555a11.668,11.668,0,0,0,5.892-3.217l3.9,9.333Zm33.61-8.085a269.871,269.871,0,0,0-32.334-3l-.118-.286a11.6,11.6,0,0,0-2.247-13.145,46.338,46.338,0,0,0-1.19-10.268,278.314,278.314,0,0,0,35.889-3.137c.773,1.314,2,6.508,2,14.919s-1.235,13.6-2,14.916Zm0,0"/></g></svg>