<svg xmlns="http://www.w3.org/2000/svg" xmlns:xlink="http://www.w3.org/1999/xlink" width="661" height="374.15" viewBox="0 0 661 374.15"><defs><style>.a,.aa,.ag,.ao,.at,.ax,.bb,.bc,.bf,.c,.d,.e,.f,.h,.j,.k,.l,.n,.o,.t,.x,.y{fill:none;}.ah,.am,.an,.az,.b{fill:#672ed6;}.c,.d{stroke:#672ed6;}.aa,.ab,.ac,.ae,.ag,.ah,.am,.an,.ao,.ap,.as,.at,.av,.aw,.ax,.ay,.az,.bb,.bc,.be,.c,.h,.j,.k,.l,.n,.o,.s,.t,.u,.v,.w,.x,.y{stroke-miterlimit:10;}.d,.e,.f{stroke-linecap:round;stroke-linejoin:round;stroke-width:0.75px;}.bb,.bc,.e{stroke:#db7294;}.f,.l{stroke:#eeda36;}.g{fill:#d96980;}.h{stroke:#fff;}.av,.i{fill:#e4b0c8;}.j{stroke:#d96980;}.k{stroke:#9e88e5;}.as,.m,.v,.w{fill:#eeda36;}.n{stroke:#d7d4fc;}.o{stroke:#c1c0ff;stroke-dasharray:4;}.p{fill:#b4aaf9;}.ap,.ay,.q,.s,.u{fill:#fff;}.r{clip-path:url(#a);}.aa,.ab,.ag,.am,.an,.ao,.ap,.as,.at,.az,.be,.bf,.s,.v{stroke:#000;}.ac,.t,.u,.w{stroke:#1c191b;}.x{stroke:#020202;}.ae,.y{stroke:#0c0c0c;}.ab,.aw,.z{fill:#db7294;}.ad{fill:#0c0c0c;}.ae,.aq{fill:#fff7f7;}.af{clip-path:url(#b);}.ag{stroke-width:2px;}.ah{stroke:#211f21;}.ai{fill:#141414;}.aj{fill:#f7f6f6;}.ak{fill:#090909;}.al{clip-path:url(#c);}.am{stroke-width:0.91px;}.an{stroke-width:0.97px;}.ao{stroke-width:1.88px;}.ap,.as,.at{stroke-width:0.94px;}.ar{fill:#020202;}.au{clip-path:url(#d);}.av,.aw,.ax,.ay{stroke:#020106;}.ba{fill:#9e88e5;}.bc{stroke-dasharray:3.85 3.85;}.bd{clip-path:url(#e);}.be{fill:#fefeff;}.bf{font-size:32.17px;font-family:Montserrat-ExtraBold, Montserrat;font-weight:800;}</style><clipPath id="a"><rect class="a" width="127.57" height="77.21" rx="9.35" transform="translate(85.64 233.6)"/></clipPath><clipPath id="b"><rect class="a" width="107.28" height="64.93" rx="7.86" transform="translate(49.93 74.62)"/></clipPath><clipPath id="c"><rect class="a" width="108.28" height="65.54" rx="7.93" transform="translate(257.02 220.02)"/></clipPath><clipPath id="d"><rect class="a" width="127.57" height="77.21" rx="9.35" transform="translate(407.96 265.5)"/></clipPath><clipPath id="e"><path class="a" d="M616.48,164.22H477.05c-3.45,0,3.93-23.61,3.93-27.06l26.53-74.51c0-3.45,47.77,2,51.22,2l57.75-35a6.24,6.24,0,0,1,6.24,6.25V158a6.24,6.24,0,0,1-6.24,6.22Z"/></clipPath></defs><g transform="translate(-706.808 -305.541)"><g transform="translate(706.813 305.981)"><path class="b" d="M253.71,363.79l2.9,2.9a8.26,8.26,0,0,1,11.68,0l2.91-2.9A12.37,12.37,0,0,0,253.71,363.79Z"/><path class="b" d="M248.89,359l2.91,2.91a15.05,15.05,0,0,1,21.31,0L276,359a19.18,19.18,0,0,0-27.13,0Z"/><path class="b" d="M262.45,346.54a25.82,25.82,0,0,0-18.38,7.61l2.91,2.91a21.88,21.88,0,0,1,31,0l2.9-2.91a25.79,25.79,0,0,0-18.43-7.61Z"/><path class="b" d="M262.45,366.69a3.51,3.51,0,1,0,2.508,1.014,3.51,3.51,0,0,0-2.508-1.014Z"/><path class="c" d="M320.53,92.3l2.91,2.9a8.26,8.26,0,0,1,11.68,0l2.9-2.9a12.35,12.35,0,0,0-17.49,0Z"/><path class="c" d="M315.72,87.48l2.9,2.9a15.09,15.09,0,0,1,21.32,0l2.9-2.9a19.17,19.17,0,0,0-27.12,0Z"/><path class="c" d="M329.28,75.05a25.81,25.81,0,0,0-18.38,7.61l2.9,2.9a21.88,21.88,0,0,1,30.95,0l2.91-2.9a25.82,25.82,0,0,0-18.38-7.61Z"/><circle class="c" cx="3.51" cy="3.51" r="3.51" transform="translate(325.77 95.2)"/><line class="d" y2="9" transform="translate(381.51 213.44)"/><line class="d" x2="8.99" transform="translate(377.02 217.94)"/><line class="e" y2="9" transform="translate(57.5 299.96)"/><line class="e" x2="8.99" transform="translate(53 304.46)"/><line class="e" y2="9" transform="translate(133.6 358.93)"/><line class="e" x2="9" transform="translate(129.1 363.43)"/><line class="e" y2="9" transform="translate(656.12 287.18)"/><line class="e" x2="8.99" transform="translate(651.63 291.68)"/><line class="e" y2="8.99" transform="translate(250.87 87.44)"/><line class="e" x2="8.99" transform="translate(246.38 91.94)"/><line class="d" y2="8.99" transform="translate(65.91 52.5)"/><line class="d" x2="8.99" transform="translate(61.41 56.99)"/><line class="f" y2="9" transform="translate(112.21 205.74)"/><line class="f" x2="9" transform="translate(107.71 210.24)"/><line class="f" y2="8.99" transform="translate(293.22 320.52)"/><line class="f" x2="8.99" transform="translate(288.72 325.01)"/><circle class="f" cx="3.09" cy="3.09" r="3.09" transform="translate(207.02 87.27)"/><circle class="g" cx="19.86" cy="19.86" r="19.86" transform="matrix(0.862, -0.507, 0.507, 0.862, 584.862, 293.944)"/><rect class="h" width="23.29" height="17.5" transform="translate(600.7 292.6)"/><path class="h" d="M600.7,292.6l11.64,10.76,11.65-10.76"/><circle class="i" cx="16.45" cy="16.45" r="16.45" transform="translate(32.482 358.526) rotate(-73.15)"/><rect class="h" width="19.29" height="14.49" transform="translate(43.6 340.57)"/><path class="h" d="M43.6,340.57l9.64,8.91,9.65-8.91"/><circle class="i" cx="10.46" cy="10.46" r="10.46" transform="translate(224.52 53.51)"/><rect class="h" width="12.26" height="9.21" transform="translate(229 59.55)"/><path class="h" d="M229,59.55l6.13,5.67,6.13-5.67"/><path class="g" d="M133.6,173.38l2.82,4.89,2.83,4.89h-11.3l2.83-4.89Z"/><path class="j" d="M377.42,316.6l6.44,5.66,6.45,5.66-8.12,2.75-8.13,2.76,1.68-8.42Z"/><path class="j" d="M17.55,52.71,15.3,60.99l-2.24,8.28L7.01,63.18.96,57.1l8.3-2.2Z"/><path class="k" d="M656.11,334.74l-1.95,7.18-1.94,7.18-5.25-5.28-5.24-5.28,7.19-1.9Z"/><path class="j" d="M197.8,341.92a4.62,4.62,0,1,1-1.35-3.273,4.62,4.62,0,0,1,1.35,3.273Z"/><path class="j" d="M363.57,41.78a6.52,6.52,0,1,1-6.52-6.52,6.52,6.52,0,0,1,6.52,6.52Z"/><path class="g" d="M234.37,217.42a4.14,4.14,0,1,1-1.216-2.931,4.15,4.15,0,0,1,1.216,2.931Z"/><path class="g" d="M367.72,362.87a4.14,4.14,0,1,1-1.213-2.937A4.15,4.15,0,0,1,367.72,362.87Z"/><path class="i" d="M243.16,301.69a2.46,2.46,0,1,1-.72-1.749A2.47,2.47,0,0,1,243.16,301.69Z"/><circle class="j" cx="7.33" cy="7.33" r="7.33" transform="matrix(0.923, -0.384, 0.384, 0.923, 554.332, 358.88)"/><circle class="c" cx="6.43" cy="6.43" r="6.43" transform="translate(439.47 226.26)"/><circle class="c" cx="5.79" cy="5.79" r="5.79" transform="translate(15.2 272.2)"/><path class="b" d="M632.41,228.8a5,5,0,1,1-5-5,5,5,0,0,1,5,5Z"/><path class="c" d="M340,348.35a5,5,0,1,1-5-5,5,5,0,0,1,5,5Z"/><path class="l" d="M574.41,329s8.3-.82,10.47,4.42,3,10.32,16.08,3.87"/><path class="l" d="M28.11,109.31s-1.1,7.6-6.26,8.39-9.89.44-7,13.51"/><path class="l" d="M280.83,44.29s8.3-.81,10.47,4.43,3.05,10.32,16.08,3.87"/><path class="m" d="M320.88,162.68a3.75,3.75,0,1,1-3.74-3.74,3.75,3.75,0,0,1,3.74,3.74Z"/><circle class="n" cx="4.71" cy="4.71" r="4.71" transform="translate(112.521 42.704) rotate(-37.51)"/><path class="o" d="M85.64,274.76c-47,0-85.1-36.15-85.1-80.76,0-31.52,19-58.83,46.79-72.13"/><path class="o" d="M269.43,293.47c3.45,31.58-20.3,60.08-53.06,63.67S154.25,338,150.79,306.45"/><ellipse class="o" cx="57.99" cy="56.71" rx="57.99" ry="56.71" transform="translate(279.89 26.13)"/><ellipse class="o" cx="55.33" cy="54.1" rx="55.33" ry="54.1" transform="translate(105.05 105.66)"/><ellipse class="o" cx="54.25" cy="50.14" rx="54.25" ry="50.14" transform="translate(359.56 188.58)"/><rect class="p" width="147.03" height="101.29" rx="9.35" transform="translate(75.9 227.71)"/><rect class="q" width="127.57" height="77.21" rx="9.35" transform="translate(85.64 233.6)"/><path d="M123.76,268.88s-6.93,21.82,7.22,26.63,15.74.83,18.88,8.36,15.74,4.29,16.95-7.3-7.35-10.69-11.81-11.29-7.42-8.78-7.37-13S125.36,260,123.76,268.88Z"/><g class="r"><path class="s" d="M139.45,289.34s15.08.92,30.64,15.54,15.15,52.35,15.15,52.35L138.79,356Z"/><path class="q" d="M155.39,301.83c10.41,7.79,31.59,54,24.86,54.19s-87-.48-89.53-3,8.41-24.54,8.41-24.54,16.89-34.7,43-34.92C150.89,293.51,144.27,293.52,155.39,301.83Z"/><path class="t" d="M112.73,330.28s-7.36,20.62-5.66,23,55.75,2.93,60.27,2.78-3.14-32.65-7-42"/><path class="u" d="M141,341.07s6.06-4.05,21.73-.2c0,0,3,1.37.71,2s-8.15-.32-8.15-.32,9,.82,9.23,2.39S156,345,156,345s9.39,1.47,9.27,3.07-5.33-.19-10.4.18-14.3,4.08-15.73,3S134.6,343.46,141,341.07Z"/><path class="s" d="M135.93,289.35c-9.36.08-19.62,3-29.56,11.09C92.81,311.5,69.8,346.28,79.84,364.23s33.19,10.95,41.21,7.33,23.69-15.63,25.4-20.54c2-5.76,1.13-9.82-6.1-11.63s-33.75,1-38.94,4.4"/><path class="v" d="M146.45,351c2-5.63,1.15-9.63-5.63-11.5a20.72,20.72,0,0,0-.19,6.27c.45,3.84,1.76,7.1,3.36,8.82a12.46,12.46,0,0,0,2.46-3.59Z"/><path class="w" d="M124.69,317.25s-7.91-5.79-4.87-8.46,5.68,2.84,5.68,2.84,1.83-4.83,4.45-3.22S124.69,317.25,124.69,317.25Z"/></g><path class="w" d="M144.42,292.54c0,2.73-3.8,4.95-8.49,4.95s-8.49-2.22-8.49-4.95,3.8-4.94,8.49-4.94S144.42,289.81,144.42,292.54Z"/><path class="s" d="M120.12,268.88a6.31,6.31,0,1,0,6.31-6.25,6.31,6.31,0,0,0-6.31,6.25Z"/><path class="s" d="M146.37,250.6h-7.46c-5,0-9,4.62-9,10.27v12.57a4.66,4.66,0,0,0-.13,1.06v14.48a4.66,4.66,0,0,0,4.65,4.64h3a4.66,4.66,0,0,0,4.64-4.64V282.7h4.32c5,0,9-4.62,9-10.26V260.87C155.39,255.22,151.33,250.6,146.37,250.6Z"/><path d="M129.26,266.07s7.31-2.43,9.53-7.15,1.67-5.74,1.67-5.74,4.12,5.65,10.64,7c5.38,1.14,5.16.35,5.69-.91s.81-9.11-7.36-14-17-4.42-23,1.69-5.32,15.73-3.28,18.14S127.87,268.87,129.26,266.07Z"/><circle cx="7.3" cy="7.3" r="7.3" transform="translate(117.647 241.513) rotate(-76.72)"/><path class="q" d="M120.49,268.88a5.94,5.94,0,1,0,5.94-5.89A5.94,5.94,0,0,0,120.49,268.88Z"/><path class="x" d="M129.64,269.66s.26-4-3.85-3.56"/><circle cx="1.68" cy="1.68" r="1.68" transform="translate(140.46 262.97)"/><path d="M151.47,264.4a1.44,1.44,0,1,0,1.43-1.4A1.44,1.44,0,0,0,151.47,264.4Z"/><path class="y" d="M149.86,271.28s-.84,2.47-2.63,2.64-3.19-1.82-3.29-3.36"/><path class="i" d="M134.61,270.83a4.18,4.18,0,1,0,4.18-4.18A4.18,4.18,0,0,0,134.61,270.83Z"/><path class="i" d="M154.27,268a2.921,2.921,0,0,1,.73.09v4.34a9,9,0,0,1-.15,1.88,3.792,3.792,0,0,1-.58.05,3.18,3.18,0,1,1,0-6.36Z"/><path class="z" d="M147.97,262.97l-.34,5.72,2.73-1.66Z"/><path class="aa" d="M201.61,250.6H171.54a5.41,5.41,0,0,1-5.41-5.41h0a5.41,5.41,0,0,1,5.41-5.4h30.07a5.41,5.41,0,0,1,5.41,5.4h0A5.41,5.41,0,0,1,201.61,250.6Z"/><rect class="aa" width="127.57" height="77.21" rx="9.35" transform="translate(85.64 233.6)"/><path d="M153,319.63a3.38,3.38,0,1,1-2.78-3.34,3.38,3.38,0,0,1,2.78,3.34.63.63,0,0,0,1.25,0,4.64,4.64,0,1,0-3.75,4.55,4.69,4.69,0,0,0,3.75-4.55.63.63,0,0,0-1.25,0Z"/><rect class="p" width="123.65" height="85.18" rx="7.86" transform="translate(182.25 107.3)"/><rect class="s" width="107.28" height="64.93" rx="7.86" transform="translate(190.43 112.26)"/><path class="ab" d="M218.61,177.19h49.74c-5-6.8-14.27-11.36-24.87-11.36S223.63,170.39,218.61,177.19Z"/><ellipse class="ac" cx="8.15" cy="4.75" rx="8.15" ry="4.75" transform="translate(235.96 162.43)"/><path class="s" d="M228.93,144.45a6.06,6.06,0,1,0,6-6,6.06,6.06,0,0,0-6,6Z"/><path class="s" d="M254.14,126.89H247c-4.76,0-8.66,4.44-8.66,9.86v12.04a4.309,4.309,0,0,0-.12,1v13.9a4.47,4.47,0,0,0,4.46,4.46h2.84a4.47,4.47,0,0,0,4.46-4.46v-6h4.15c4.76,0,8.66-4.44,8.66-9.87V136.75C262.8,131.33,258.9,126.89,254.14,126.89Z"/><path d="M237.7,141.75s7-2.34,9.16-6.87,1.6-5.51,1.6-5.51,4,5.42,10.22,6.75c5.17,1.1,5,.34,5.47-.86s.78-8.76-7.07-13.47-16.28-4.24-22.1,1.62-5.1,15.11-3.15,17.42S236.37,144.44,237.7,141.75Z"/><path class="aa" d="M216.47,114.86s-3,.43-3.47,5.2-3.47,10.56-10.12,12-22.55,1.31-23.28-15S197.24,97.14,203,103c4.1,4.15,5.35,4.49,7.81-.28s10.46-8.81,18.1-1.81,2.14,14.82-1.62,16S219.06,112.76,216.47,114.86Z"/><circle class="ab" cx="3.08" cy="3.08" r="3.08" transform="translate(232.29 114.22)"/><path class="q" d="M229.28,144.45a5.71,5.71,0,1,0,5.7-5.66,5.71,5.71,0,0,0-5.7,5.66Z"/><path class="x" d="M238.07,145.2s.25-3.85-3.7-3.42"/><path class="ad" d="M248.46,140.38a1.62,1.62,0,1,0,1.61-1.61,1.62,1.62,0,0,0-1.61,1.61Z"/><path class="ad" d="M259,140.15a1.37,1.37,0,1,0,.4-.975,1.38,1.38,0,0,0-.4.975Z"/><path class="ae" d="M257.49,146.76s-.81,2.36-2.53,2.52-3.06-1.74-3.15-3.22Z"/><path class="i" d="M242.84,146.32a4,4,0,1,0,4-4A4,4,0,0,0,242.84,146.32Z"/><path class="i" d="M261.72,143.6a2.76,2.76,0,0,1,.71.09v4.16a8.3,8.3,0,0,1-.15,1.81,3.33,3.33,0,0,1-.56.05,3.06,3.06,0,0,1,0-6.11Z"/><path class="z" d="M255.68,138.77l-.33,5.5,2.62-1.6Z"/><path d="M247,184.61a2.75,2.75,0,1,1-1.928-2.628A2.75,2.75,0,0,1,247,184.61a.63.63,0,0,0,1.25,0,4,4,0,1,0-3.23,3.92,4,4,0,0,0,3.23-3.92.63.63,0,0,0-1.25,0Z"/><rect class="p" width="123.65" height="85.18" rx="7.86" transform="translate(41.75 69.66)"/><path d="M106.5,147a2.75,2.75,0,1,1-2.27-2.71A2.75,2.75,0,0,1,106.5,147a.63.63,0,0,0,1.25,0,4.06,4.06,0,0,0-2.63-3.75,4,4,0,1,0,2.63,3.75.63.63,0,0,0-1.25,0Z"/><rect class="q" width="107.28" height="64.93" rx="7.86" transform="translate(49.93 74.62)"/><g class="af"><path class="s" d="M88.35,122.32c-20.1,0-36.38,20.49-36.38,45.77h72.76C124.73,142.81,108.44,122.32,88.35,122.32Z"/><path class="m" d="M77,133.34a2.59,2.59,0,1,1-.762-1.835A2.6,2.6,0,0,1,77,133.34Z"/><circle class="m" cx="2.89" cy="2.89" r="2.89" transform="translate(84.4 140.15)"/><path class="m" d="M101,133.34a2.59,2.59,0,1,1-.762-1.835A2.6,2.6,0,0,1,101,133.34Z"/><circle class="m" cx="2.24" cy="2.24" r="2.24" transform="translate(108.78 137.81)"/><path class="m" d="M68,144.56a2.71,2.71,0,1,1-2.7-2.7,2.71,2.71,0,0,1,2.7,2.7Z"/><circle class="m" cx="2.89" cy="2.89" r="2.89" transform="translate(74.02 149.5)"/><circle class="m" cx="2.38" cy="2.38" r="2.38" transform="translate(101.26 149.5)"/><path class="m" d="M117.88,156.57a2.31,2.31,0,1,1-2.31-2.31,2.31,2.31,0,0,1,2.31,2.31Z"/><path class="m" d="M64.92,157.73a2.45,2.45,0,1,1-.714-1.739,2.45,2.45,0,0,1,.714,1.739Z"/><path class="m" d="M93.25,160.18a2.45,2.45,0,1,1-2.45-2.45A2.45,2.45,0,0,1,93.25,160.18Z"/><path class="b" d="M127.54,144.33l.72-2.44s.08-.66-.86-1L112.15,135s-1.23-.72-1.56.16-2.71,4.77-2.71,4.77-.68,1,.15,1.45,13.79,5.34,13.79,5.34l3.32,1.38s1,.37,1.21-.13S127.54,144.33,127.54,144.33Z"/><path class="q" d="M131.53,127.19s1.29-6.66.23-7.91-2.07.09-2.6,1.78-1.35,4.86-1.35,4.86l-3.34-6.71s7.43-5.41,7.7-6.4.35-1.65-.17-1.66a14.841,14.841,0,0,0-2.1.42s2.51-2.42,1.73-3.28-3.49,1.12-3.49,1.12,1-3.67.52-4.38-3.48,3.47-4.32,5S122,114.2,122,114.2s-1,.78-.95,1.2-1.23,1.35-1.42,1.52-1.71,3.34-3.14,6.56-3.55,7.61-3.55,7.61l-1,2s-1.11,1.63,1.2,2.29,11.42,4.39,11.42,4.39l2.89,1.11s.87,1.22,1.58-1.58S131.53,127.19,131.53,127.19Z"/><path class="aa" d="M125.83,149.48c5-14,7.12-28.68,5.93-30.2-1.65-2.1-2.68,1.49-3.95,6.64l-3.34-6.71s8-5.45,8-7.62-12.56,4-13.66,6.25c-.71,1.47-5,13.48-12.15,23.91"/><path class="aa" d="M129.1,111.77s3.3-2,2.53-3.48-10.8,5.66-10.55,7.53"/><path class="aa" d="M127.79,109.62s2-4.08.87-4.59-5.39,6.29-5.88,8.37"/><line class="aa" x1="17.37" y1="6.68" transform="translate(111.07 134.59)"/><line class="aa" x1="18.8" y1="7.79" transform="translate(107.36 140.73)"/><line class="aa" x1="2.68" y2="7.01" transform="translate(123.51 140.41)"/><line class="aa" x1="2.69" y2="6.91" transform="translate(120.17 139.13)"/><line class="aa" x1="2.62" y2="6.82" transform="translate(117.12 137.8)"/><line class="aa" x1="2.38" y2="6.81" transform="translate(113.91 136.52)"/><line class="aa" x1="2.84" y2="6.55" transform="translate(110.54 135.46)"/></g><path class="ag" d="M74,101.83a5.51,5.51,0,1,0,5.51-5.46A5.51,5.51,0,0,0,74,101.83Z"/><path class="ah" d="M96.22,123.77c0,2.54-3.53,4.59-7.87,4.59s-7.87-2.05-7.87-4.59,3.52-4.58,7.87-4.58S96.22,121.24,96.22,123.77Z"/><path class="s" d="M98,84.88H91.1c-4.6,0-8.36,4.28-8.36,9.52v11.62a4.61,4.61,0,0,0-.12,1v13.43a4.31,4.31,0,0,0,4.31,4.3h2.75a4.31,4.31,0,0,0,4.3-4.3v-5.78h4c4.6,0,8.37-4.29,8.37-9.52V94.4C106.39,89.16,102.62,84.88,98,84.88Z"/><path class="ai" d="M92.54,97.9a1.56,1.56,0,1,0,1.56-1.55,1.56,1.56,0,0,0-1.56,1.55Z"/><path class="ai" d="M102.75,97.68a1.33,1.33,0,1,0,1.33-1.33,1.33,1.33,0,0,0-1.33,1.33Z"/><path class="aj" d="M101.26,104.06s-.78,2.28-2.44,2.44-2.95-1.68-3-3.11Z"/><path class="ai" d="M100.72,103.91l-.06.17c.06-.17,0,0,0,.09s-.09.18-.14.26a3.43,3.43,0,0,1-.79,1.07,1.58,1.58,0,0,1-1.3.44,2.38,2.38,0,0,1-1.33-.85,3.37,3.37,0,0,1-.49-.81,2.89,2.89,0,0,1-.24-.89l-.55.55,4.8.59.68.09a.57.57,0,0,0,.56-.56.58.58,0,0,0-.56-.56l-4.8-.59-.68-.08a.55.55,0,0,0-.56.56A4.08,4.08,0,0,0,97.83,107a3.06,3.06,0,0,0,3.46-1.67,6.171,6.171,0,0,0,.51-1.07.56.56,0,0,0-1.08-.3Z"/><circle class="i" cx="3.88" cy="3.88" r="3.88" transform="translate(87.12 99.76)"/><path class="i" d="M105.35,101a2.591,2.591,0,0,1,.68.09v4a8.29,8.29,0,0,1-.14,1.74,3.188,3.188,0,0,1-.54,0,3,3,0,1,1,0-5.9Z"/><path class="g" d="M99.51,96.34l-.32,5.32,2.54-1.55Z"/><path d="M84.63,99.76l1.2-6.51s6.74,2.16,11.89-2-3.31-5.78-1.94-2.71,6.08,4.33,11.93,3.69c8.7-1,8.91-11.47,3.92-14.55s-10.66.54-10.66.54,2.6-5.21-3.9-7c-5.36-1.43-9.36,3.1-9.95,5.1,0,0-8.82.87-12.74,6.41A15.62,15.62,0,0,0,74,101a36.11,36.11,0,0,0,8.5,9.29S83.27,102.49,84.63,99.76Z"/><path class="q" d="M74,101.83a5.51,5.51,0,1,0,5.51-5.46A5.51,5.51,0,0,0,74,101.83Z"/><path class="ak" d="M83.2,102.55a4.44,4.44,0,0,0-.2-1.45,3.36,3.36,0,0,0-1.76-2.2,4.39,4.39,0,0,0-2.32-.33.69.69,0,0,0-.68.68.68.68,0,0,0,.68.69,5.461,5.461,0,0,1,1,0h.27l.37.11c.17.06-.14-.07,0,0l.14.07c.1.06.19.14.29.19-.14-.07-.11-.09-.06,0h.06l.11.1c.07.07.13.16.2.23-.16-.16,0-.07,0,0l.08.12a2,2,0,0,1,.14.25l.06.13c0,.07-.07-.18,0-.08v.06l.09.26a4,4,0,0,1,.11.47v.03a1.359,1.359,0,0,0,0,.2,3.088,3.088,0,0,1,0,.43.69.69,0,1,0,1.38,0Z"/><rect class="a" width="107.28" height="64.93" rx="7.86" transform="translate(49.93 74.62)"/><rect class="aa" width="107.28" height="64.93" rx="7.86" transform="translate(49.93 74.62)"/><rect class="p" width="124.8" height="85.97" rx="7.93" transform="translate(248.76 215.02)"/><path d="M314.11,293a2.78,2.78,0,1,1-2.29-2.74,2.81,2.81,0,0,1,2.29,2.74.63.63,0,0,0,1.25,0,4,4,0,1,0-3.26,4,4.08,4.08,0,0,0,3.26-3.95.63.63,0,0,0-1.25-.05Z"/><rect class="q" width="108.28" height="65.54" rx="7.93" transform="translate(257.02 220.02)"/><g class="al"><path class="am" d="M246.26,284s16.35-15.61,33.75-18.83,52.25-2.91,71.11,22-27.49,47-28.77,47.15-76.57-12.44-79.45-14.61S229.16,304.61,246.26,284Z"/><path class="am" d="M317.26,271.14s28.2,56.64,21.89,67.45-53,21.14-76.34,9.32c-27.26-13.82,8.61-71.22,17.08-84.44Z"/><path class="q" d="M273.56,284a6.46,6.46,0,1,0,6.45-6.45A6.46,6.46,0,0,0,273.56,284Z"/></g><rect class="aa" width="108.28" height="65.54" rx="7.93" transform="translate(257.02 220.02)"/><ellipse class="an" cx="14.72" cy="22.76" rx="14.72" ry="22.76" transform="translate(274.426 277.931) rotate(-84.15)"/><path class="ao" d="M286.57,243.21a6,6,0,1,0,6-5.91,5.93,5.93,0,0,0-6,5.91Z"/><path class="ap" d="M312.53,224.87h-7.48c-5,0-9.05,4.64-9.05,10.3v12.61a4.59,4.59,0,0,0-.13,1.06v14.52a4.68,4.68,0,0,0,4.66,4.66h3a4.67,4.67,0,0,0,4.66-4.66v-6.25h4.33c5,0,9.05-4.64,9.05-10.3V235.17C321.58,229.51,317.51,224.87,312.53,224.87Z"/><path class="ad" d="M306.6,239a1.69,1.69,0,1,0,1.69-1.68A1.69,1.69,0,0,0,306.6,239Z"/><path class="ad" d="M317.65,238.72a1.44,1.44,0,1,0,1.44-1.44A1.44,1.44,0,0,0,317.65,238.72Z"/><path class="aq" d="M316,245.62s-.85,2.47-2.64,2.64-3.2-1.82-3.3-3.37Z"/><path class="ad" d="M315.53,245.48a.228.228,0,0,1-.07.19c.06-.16,0,.06,0,.11l-.15.29a4.2,4.2,0,0,1-.87,1.17,1.75,1.75,0,0,1-1.46.49,2.54,2.54,0,0,1-1.5-.94,3.48,3.48,0,0,1-.8-1.9l-.53.53,5.2.64.74.09a.53.53,0,0,0,0-1.05l-5.2-.64-.74-.09a.52.52,0,0,0-.52.52,4.35,4.35,0,0,0,2.77,3.78,3.22,3.22,0,0,0,3.6-1.77,5.411,5.411,0,0,0,.54-1.14C316.77,245.12,315.75,244.85,315.53,245.48Z"/><path class="i" d="M300.74,245.17a4.18,4.18,0,1,0,1.221-2.972,4.2,4.2,0,0,0-1.221,2.972Z"/><path class="i" d="M320.46,242.33a3.06,3.06,0,0,1,.74.09v4.35a9,9,0,0,1-.16,1.89,3.683,3.683,0,0,1-.58.05,3.19,3.19,0,1,1,0-6.38Z"/><path class="z" d="M314.14,237.28l-.34,5.74,2.74-1.67Z"/><path d="M298,243l1.38-9.09s25.15,3.16,33.3-9.06-.41-17.05-4.56-16.36-9,6.63-9,6.63,3.86-5.25,0-6.08-8.12,3.18-10.34,7.32c0,0-16.58-1.54-22.18,8.49s-1.06,17.15,9.18,27.51l.69-5.8Z"/><path class="q" d="M286.57,243.21a6,6,0,1,0,6-5.91,5.93,5.93,0,0,0-6,5.91Z"/><path class="ar" d="M296.4,244a4.72,4.72,0,0,0-.19-1.54,3.6,3.6,0,0,0-1.87-2.33,4.66,4.66,0,0,0-2.45-.34.67.67,0,0,0-.65.64.649.649,0,0,0,.65.65,4.79,4.79,0,0,1,1.07,0h.31l.41.13c.16.06-.12-.06,0,0l.16.08a2.159,2.159,0,0,0,.31.19s-.14-.1-.05,0l.06.05.12.11a2.619,2.619,0,0,0,.22.25c-.1-.07-.08-.11,0,0h0l.08.12a1.51,1.51,0,0,1,.15.28.61.61,0,0,1,.07.14c0,.07-.07-.17,0-.07v.07a1.252,1.252,0,0,0,.1.29,4,4,0,0,1,.11.5v.27a3.676,3.676,0,0,1,0,.47.65.65,0,1,0,1.3,0Z"/><path class="as" d="M308.75,216.38s-16.57,17.13-23.44,22.34c0,0-8.94-19.78-3.86-25.3C285.51,209,305.35,211.6,308.75,216.38Z"/><line class="at" x1="20.2" y2="19.92" transform="translate(283.07 213.16)"/><path class="b" d="M313.36,259l2.7,10-20.46,6.48-1.05-4.19L287,266.77l3.13-8.46,8.95,7,.59.48s.32.56,2-.35Z"/><path class="at" d="M314.15,258.51l-19.51,10.74-.12,2.55"/><line class="at" x2="10.63" y2="7.86" transform="translate(289.64 258.29)"/><path class="at" d="M289.64,270s-13.8,9.15-23.22,5.48"/><circle class="at" cx="1.54" cy="1.54" r="1.54" transform="translate(287.76 268.35)"/><path class="at" d="M306.93,273.38a1.59,1.59,0,1,0,1.59-1.58A1.59,1.59,0,0,0,306.93,273.38Z"/><path class="at" d="M308.52,273.38s5.63,16.25,15.46,21"/><rect class="p" width="147.03" height="101.29" rx="9.35" transform="translate(398.23 259.61)"/><path d="M475.33,351.53a3.38,3.38,0,1,1-2.478-3.261,3.39,3.39,0,0,1,2.478,3.261.63.63,0,0,0,1.25,0,4.63,4.63,0,1,0-3.75,4.55,4.69,4.69,0,0,0,3.75-4.55.63.63,0,0,0-1.25,0Z"/><rect class="s" width="127.57" height="77.21" rx="9.35" transform="translate(407.96 265.5)"/><path d="M469,309.64s19.17,9.18,26.36-4.26-4.27-29.95-13.58-32.35S465.16,297,469,309.64Z"/><path d="M460.76,310.7s-8.36,6.26-21.14,1.47-4.93-28.22,0-35.41,16-11.58,20.9-9.32S469.5,296,460.76,310.7Z"/><circle cx="9.18" cy="9.18" r="9.18" transform="matrix(0.594, -0.804, 0.804, 0.594, 422.68, 267.158)"/><path class="s" d="M489.31,291.36s-3.08-7-5.68-6.61-1.87,5-1.51,7.49,1.57,5.64-1.17,8.55S491.71,299.34,489.31,291.36Z"/><path class="s" d="M475.25,271.72H467.4c-5.22,0-9.49,4.86-9.49,10.8v13.17a5,5,0,0,0-.13,1.11v15.23a4.9,4.9,0,0,0,4.89,4.88h3.11a4.9,4.9,0,0,0,4.89-4.88v-6.56h4.54c5.22,0,9.49-4.86,9.49-10.8V282.52C484.74,276.58,480.47,271.72,475.25,271.72Z"/><path class="i" d="M462.88,293a4.4,4.4,0,1,0,4.4-4.39,4.4,4.4,0,0,0-4.4,4.39Z"/><path class="i" d="M483.56,290a3.321,3.321,0,0,1,.77.1v4.56a9.243,9.243,0,0,1-.16,2,4.069,4.069,0,0,1-.61.06,3.35,3.35,0,0,1,0-6.7Z"/><path class="ad" d="M469,286.5a1.77,1.77,0,1,0,1.77-1.77A1.77,1.77,0,0,0,469,286.5Z"/><path class="ad" d="M480.61,286.24a1.51,1.51,0,1,0,1.51-1.51A1.51,1.51,0,0,0,480.61,286.24Z"/><path class="aq" d="M479.19,294.37s-.89,2.59-2.77,2.77-3.36-1.91-3.46-3.53Z"/><path class="ad" d="M478.65,294.22a1.665,1.665,0,0,1-.08.2c.07-.17,0,.06-.05.12l-.15.3a4.09,4.09,0,0,1-.92,1.22,1.82,1.82,0,0,1-1.52.52,2.67,2.67,0,0,1-1.57-1,3.63,3.63,0,0,1-.84-2l-.56.56,5.45.66.78.1a.577.577,0,0,0,.55-.56.57.57,0,0,0-.55-.56l-5.45-.66-.78-.1a.57.57,0,0,0-.56.56,4.58,4.58,0,0,0,2.92,4c1.62.51,3-.53,3.83-1.86a6.262,6.262,0,0,0,.57-1.2C480,293.84,478.88,293.55,478.65,294.22Z"/><path class="z" d="M476.94,284.73l-.37,6.02,2.88-1.75Z"/><path d="M455.63,270.1h0c.31-4.53,2.9-8.72,6.22-8.78,7.32-.14,7.18,5.32,7.18,5.32,12.5-15.44,28.63-6.25,23.43,5.08s-25.25,9.56-25.25,9.56a19.264,19.264,0,0,0-2.85-.15c-2.38.48-4,3.41-4.76,7.14C457.82,297.52,450.87,277.3,455.63,270.1Z"/><path d="M454.27,283.94a7.09,7.09,0,0,1,3.25.79v1.92a5.38,5.38,0,1,0,0,8.6v1.93a7,7,0,1,1-3.25-13.24Z"/><path class="q" d="M448,291a6.22,6.22,0,1,0,1.839-4.4A6.25,6.25,0,0,0,448,291Z"/><path class="ar" d="M458.34,291.77a5.18,5.18,0,0,0-.2-1.62,3.76,3.76,0,0,0-2-2.44,4.85,4.85,0,0,0-2.58-.37.72.72,0,0,0-.69.69.691.691,0,0,0,.69.69,6,6,0,0,1,1.12,0h.34a3.378,3.378,0,0,1,.42.13c.18.06-.12-.06,0,0l.16.08.15.09a1.361,1.361,0,0,0,.17.12s-.13-.11,0,0l.06.06.12.11a2,2,0,0,0,.24.26c-.12-.08-.08-.11,0,0v.05l.09.13a2.693,2.693,0,0,1,.16.29.609.609,0,0,0,.07.14c0,.08-.07-.17,0-.07a.14.14,0,0,0,0,.07c0,.1.08.2.11.3a5,5,0,0,1,.12.53v.07a1.5,1.5,0,0,1,0,.22,4,4,0,0,1,0,.49.69.69,0,0,0,1.38,0Z"/><g class="au"><path class="av" d="M412.76,374.73c4.81-37.68,37.62-65.32,59.76-57.3,17.62,6.38,25.34,41.69,27.93,57.3Z"/><rect class="aw" width="21.71" height="10.76" rx="4.75" transform="translate(474.68 320.29) rotate(180)"/><line class="ax" y2="9.67" transform="translate(472.52 310.08)"/><line class="ax" y2="10.76" transform="translate(470.08 309.54)"/><line class="ax" y2="10.76" transform="translate(467.51 309.54)"/><line class="ax" y2="10.76" transform="translate(464.94 309.54)"/><line class="ax" y2="10.76" transform="translate(462.37 309.54)"/><line class="ax" y2="10.76" transform="translate(459.8 309.54)"/><line class="ax" y2="10.76" transform="translate(457.23 309.54)"/><line class="ax" y2="9.06" transform="translate(454.67 310.39)"/><path class="ay" d="M428.66,287.09c1.15-.77,2.32,4,2.9,7.18-.21-2.61-.43-6.85.55-7.15s2.11,4.27,2.62,7.09c-.22-2.61-.47-7,.46-7.09,1.2-.1,2.08,3.95,2.59,7.1-.29-2.75-.45-6.1.49-6.29,1.63-.33,2.11,1.62,2.92,6.16s2.11,7.62,8.27,10.22c5.4,2.27,11.78,5.53,17.75,25.33l-17.42.82a9.432,9.432,0,0,0-.08-1.5c-1.21-18.49-11.6-17.84-16.53-21.57S426.44,288.58,428.66,287.09Z"/><path class="av" d="M437.54,374.73c7.8-10.08,13-28.36,12.23-44.73L467,328.93c.92,3,1.84,6.39,2.75,10.25,3.84,16.41,1.34,28.37-1.46,35.55Z"/><path class="aw" d="M468.44,334H449.85c0-1.69,0-3.37-.14-5-.08-1.23-.2-2.37-.36-3.44l16.25-.79C466.56,327.42,467.5,330.48,468.44,334Z"/><line class="ax" x2="2.13" y2="9.13" transform="translate(463 324.86)"/><line class="ax" x2="1.16" y2="8.97" transform="translate(459.6 325.02)"/><line class="ax" x2="0.55" y2="8.97" transform="translate(456.13 325.02)"/><line class="ax" x2="0.3" y2="8.4" transform="translate(452.97 325.34)"/><path class="s" d="M487.08,294.33c.71-4.13-3.29-8.56-2-9.6s8.71,5.66,6.62,12.42-9.69,8-7,18.08A84.858,84.858,0,0,0,490.3,329l-17.33.45c-1.13-12.15.07-21.06,1.46-24C476.07,302.05,486.37,298.45,487.08,294.33Z"/><path class="av" d="M484.83,374.73c-3.32-9.44-9.32-27.39-11-38.47q-.6-3.92-.9-7.49l16.54-1.52A281.723,281.723,0,0,0,505.8,356.5a37,37,0,0,1,5.74,18.23Z"/><path class="ab" d="M473.45,333.71c-.42-3.14-.67-6.1-.81-8.85h15.71c1.2,2.66,2.58,5.5,4.07,8.4Z"/><line class="aa" x2="2.33" y2="8.69" transform="translate(486.12 325.02)"/><line class="aa" x2="1.13" y2="8.44" transform="translate(482.79 325.02)"/><line class="aa" x2="0.43" y2="8.69" transform="translate(479.77 324.86)"/><line class="aa" x2="0.66" y2="8.77" transform="translate(476.14 324.86)"/></g><rect class="aa" width="127.57" height="77.21" rx="9.35" transform="translate(407.96 265.5)"/><rect class="m" width="245.47" height="182.93" rx="13.61" transform="translate(387.89 15.64)"/><path class="m" d="M513.55,221.54H492.16a5.32,5.32,0,0,1-4.88-7.44l11.52-26.62,9.87-22.78a5.32,5.32,0,0,1,9.77,0l9.86,22.78,11.53,26.62a5.33,5.33,0,0,1-4.89,7.44Z"/><path class="aa" d="M520.08,178.05a6.29,6.29,0,1,1-6.29-6.29A6.29,6.29,0,0,1,520.08,178.05Z"/><rect class="s" width="220.16" height="134.53" rx="6.24" transform="translate(402.56 29.69)"/><rect class="s" width="150.38" height="113.51" rx="13.45" transform="translate(567.26 148.14) rotate(180)"/><path class="ab" d="M431.56,45A2.55,2.55,0,1,1,429,42.44,2.55,2.55,0,0,1,431.56,45Z"/><path class="v" d="M441.68,45a2.55,2.55,0,1,1-.736-1.813A2.54,2.54,0,0,1,441.68,45Z"/><path class="az" d="M451.81,45a2.54,2.54,0,1,1-2.54-2.57A2.54,2.54,0,0,1,451.81,45Z"/><line class="s" x2="150.04" transform="translate(417.22 54.02)"/><rect class="k" width="28.01" height="17.46" transform="translate(530.72 101.59)"/><line class="k" x2="20.34" transform="translate(534.15 106.18)"/><line class="k" x2="20.34" transform="translate(534.15 109.36)"/><line class="k" x2="20.34" transform="translate(534.15 112.54)"/><path class="z" d="M497.54,83.65V63.16a20.49,20.49,0,1,0,20,16.17Z"/><path class="i" d="M520.08,75.74a20.5,20.5,0,0,0-20-16.17V80.06Z"/><path class="k" d="M459,64.37H434.45a1.72,1.72,0,0,1-1.73-1.72h0a1.72,1.72,0,0,1,1.73-1.73H459a1.72,1.72,0,0,1,1.72,1.73h0A1.72,1.72,0,0,1,459,64.37Z"/><line class="k" x2="23.77" transform="translate(434.49 66.94)"/><line class="k" x2="23.77" transform="translate(434.49 70.12)"/><line class="k" x2="23.77" transform="translate(434.49 73.29)"/><path class="k" d="M462.5,63.19h8.98l12.91,11.84"/><path class="k" d="M557,66.37H532.44a1.72,1.72,0,0,1-1.72-1.72h0a1.72,1.72,0,0,1,1.72-1.73H557a1.72,1.72,0,0,1,1.73,1.73h0A1.72,1.72,0,0,1,557,66.37Z"/><line class="k" x2="23.77" transform="translate(532.49 68.94)"/><line class="k" x2="23.77" transform="translate(532.49 72.12)"/><line class="k" x2="23.77" transform="translate(532.49 75.29)"/><line class="k" x2="23.77" transform="translate(532.49 78.59)"/><line class="k" x2="23.77" transform="translate(532.49 81.77)"/><line class="k" x2="23.77" transform="translate(532.49 84.95)"/><path class="k" d="M512.5,72.69l8.68-7.11h7.7"/><path class="k" d="M436.28,91.8v40.26h60.93"/><path class="ba" d="M436.28,92.03H434.1l1.09-1.89,1.09-1.88,1.08,1.88,1.09,1.89Z"/><path class="ba" d="M496.56,132.06v-2.17l1.89,1.08,1.88,1.09-1.88,1.09-1.89,1.09Z"/><path class="l" d="M431.23,128.74l14.82-13.36,12.19,13.11,15.38-28.16,11.24,27.48"/><path class="bb" d="M426.15,108.87s.54-.56,1.44-1.38"/><path class="bc" d="M430.56,105c3.94-3,9.63-6,13.25-2.52,6,5.77,4.57,10.21,16.6,7.62,11.31-2.43,25.19.93,29.27,20.23"/><path class="bb" d="M490,132.26q.16,1,.3,2"/><g class="bd"><path class="az" d="M615.7,86.16s37,14.46,56.59,77l-25.06,12.42-18.54-47.34Z"/><path class="q" d="M505.42,98.54s-6.3-4.05-5.52-6a1.74,1.74,0,0,1,2.62-.84s-1.88-1.16-1-2.43a1.74,1.74,0,0,1,2.05-.8s-1.33-2-.05-2.68a5.14,5.14,0,0,1,3.21-.26,8.211,8.211,0,0,1-.7-2.2c0-.57.86-1.84,3.55-1.21S518,86,519.94,86.94s4.12,3.28,4.18,2.54.9-5.46,2.73-6.84,2.56-1.6,2.89,1,.24,9.92,3.79,15.3,4.76,9,8.51,13.32,5.47,6.56,5.47,6.56l-16.9,13.76s-16.4-24.69-16.52-24.85S508.65,101.05,505.42,98.54Z"/><path class="aa" d="M502,91.58s-2.1-3.42,1.83-3,9.25,4.06,11.82,6"/><path class="aa" d="M519.89,102.3s-1.44-4.39,4.83-6.21c0,0-2.39-9.32,2.13-13.45s2.06,6.51,5.08,13,6.45,12.76,9.67,16.17a91.77,91.77,0,0,1,6,7.14l-17.1,13.73s-5.84-8.88-14.85-22.65S498.69,96,499.9,92.56C501.39,88.4,512,98.2,512,98.2"/><path class="aa" d="M503.79,88.58s-2-2.49.54-3.14a4.28,4.28,0,0,1,1.58,0c3.09.4,8.23,3,12,5.9"/><path class="aa" d="M524.15,90.18s-7.36-6.87-15.75-8c-3-.41-2.91,2.61.07,3.87"/><path class="az" d="M559.82,127.47a53.465,53.465,0,0,1-7.14-6,135.283,135.283,0,0,1-14-16.51L520.1,120.88s20.27,31.46,32.44,35.39,40-27.71,40-27.71L594.7,87a55.072,55.072,0,0,0-9.43,6.6c-6.89,6.22-18.94,17.34-32.59,27.94"/><path class="s" d="M544.72,112.83c-3.62-4.37-6.06-7.82-6.06-7.82l-18.58,15.92s2.35,3.65,5.94,8.63Z"/><path class="s" d="M540.16,111.05a1.26,1.26,0,1,1-.373-.895A1.27,1.27,0,0,1,540.16,111.05Z"/><path class="b" d="M645.18,166v-7.78c0-41-17.44-74.24-39-74.24s-39,33.24-39,74.24V166Z"/><line class="aa" y2="63.41" transform="translate(606.1 102.55)"/><path class="s" d="M606.22,103.21l15-13.54c-4.62-3.69-9.69-5.73-15-5.73-5.15,0-10.52,2.27-15,5.72Z"/><path class="aa" d="M572.86,119.82a128.129,128.129,0,0,0-5.6,38.36V166h77.92v-7.78A127.71,127.71,0,0,0,639.34,119"/><path class="aa" d="M621.25,89.66c-4.63-3.68-9.7-5.72-15-5.72s-10.36,2-15,5.68"/></g><rect class="aa" width="220.16" height="134.53" rx="6.24" transform="translate(402.56 29.69)"/><path class="be" d="M621.69,93.68,613.4,81.23a12.49,12.49,0,0,0-14.61,0l-8.28,12.45a6.18,6.18,0,0,0,1.72,8.58l1.18.79a6.2,6.2,0,0,0,8.58-1.72l4.11-6.17,4.1,6.17a6.2,6.2,0,0,0,8.58,1.72l1.19-.79a6.2,6.2,0,0,0,1.72-8.58Z"/><path class="be" d="M607.42,92.21a1.2,1.2,0,1,1-1.2-1.2,1.2,1.2,0,0,1,1.2,1.2Z"/><path class="ag" d="M622.57,62.79a6.43,6.43,0,1,1-1.9-4.544,6.46,6.46,0,0,1,1.9,4.544Z"/><path class="s" d="M594.42,42.9h8.12c5.39,0,9.81,5,9.81,11.17V66.66a6.376,6.376,0,0,1-.05,1,4.894,4.894,0,0,1,.14,1.15v15.8a5.06,5.06,0,0,1-5.05,5h-3.22a5.07,5.07,0,0,1-5.06-5V77.83h-4.69c-5.4,0-9.81-5-9.81-11.17V54.07C584.61,47.93,589,42.9,594.42,42.9Z"/><path d="M610.22,62.59l-1.5-9.86s-27.27,3.42-36.11-9.83.45-18.49,4.95-17.74,9.75,7.19,9.75,7.19-4.19-5.69,0-6.59,8.8,3.45,11.21,7.94c0,0,18-1.67,24.05,9.2s1.16,18.6-10,29.83l-.74-6.28Z"/><path d="M641.5,31A11.55,11.55,0,1,1,630,19.42,11.55,11.55,0,0,1,641.5,31Z"/><path class="i" d="M607.77,64.52a4.65,4.65,0,1,1-1.362-3.3,4.66,4.66,0,0,1,1.362,3.3Z"/><path class="i" d="M585.86,60.8a3.18,3.18,0,0,0-.82.1v4.83a9.85,9.85,0,0,0,.07,2.11,6.161,6.161,0,0,0,.75,0,3.55,3.55,0,1,0,0-7.09Z"/><path class="ai" d="M599.36,58a1.66,1.66,0,1,1-1.66-1.65A1.66,1.66,0,0,1,599.36,58Z"/><path class="ai" d="M588.51,57.77a1.42,1.42,0,1,1-1.42-1.41,1.42,1.42,0,0,1,1.42,1.41Z"/><path class="aj" d="M590.09,64.55s.84,2.43,2.6,2.6,3.14-1.79,3.23-3.31Z"/><path class="ai" d="M589.55,64.7a5.27,5.27,0,0,0,1.68,2.43,3,3,0,0,0,4.19-.73,4.57,4.57,0,0,0,1.06-2.56.56.56,0,0,0-.56-.56l-5.1.63-.73.09a.57.57,0,0,0-.56.55.56.56,0,0,0,.56.56l5.11-.62.72-.09-.55-.56a3.16,3.16,0,0,1-2,2.7c-1.07.29-1.85-.55-2.34-1.41a6.547,6.547,0,0,1-.3-.59c0-.09,0,.11,0,0v-.15C590.4,63.73,589.32,64,589.55,64.7Z"/><path class="c" d="M606.1,57c0,3.58-2.6,6.47-5.79,6.47s-5.79-2.89-5.79-6.47,2.59-6.46,5.79-6.46S606.1,53.47,606.1,57Z"/><ellipse class="c" cx="4.76" cy="5.78" rx="4.76" ry="5.78" transform="translate(581.13 50.45)"/><path class="g" d="M592.51,56.38V62l-2.94-1.79Z"/><path class="c" d="M590.5,58s2.33-1,4,.42"/><path class="q" d="M622.57,62.79a6.43,6.43,0,1,1-1.9-4.544,6.46,6.46,0,0,1,1.9,4.544Z"/><path class="ak" d="M613.3,63.64a3,3,0,0,1,0-.42v-.19a.367.367,0,0,0,0-.11c0-.18,0,.18,0,0a4.494,4.494,0,0,1,.11-.53,2.752,2.752,0,0,1,.08-.27.248.248,0,0,1,.05-.15V61.9h0c.12-.19.2-.41.33-.6v-.05c.06-.08.08,0,0,0a.733.733,0,0,0,.1-.13l.26-.26h.06c.06-.06.1,0,0,0l.14-.1a3.239,3.239,0,0,1,.36-.2h.07l.24-.07a1,1,0,0,1,.25-.06h.13a1,1,0,0,1,.29,0h.31a5.07,5.07,0,0,1,.68,0,.69.69,0,0,0,.69-.69.71.71,0,0,0-.69-.69A4.3,4.3,0,0,0,613,60.37a4.9,4.9,0,0,0-1,2.7,5.43,5.43,0,0,0,0,.57.69.69,0,1,0,1.37,0Z"/><path class="s" d="M503.25.5h40a9.25,9.25,0,0,1,9.25,9.25V49.68l-9.4-8.63H503.25A9.26,9.26,0,0,1,494,31.79v-22A9.25,9.25,0,0,1,503.25.5Z"/><text class="bf" transform="translate(512.88 31.56)"><tspan x="0" y="0">?</tspan></text><path class="s" d="M400.28,145.74H354.13a10.68,10.68,0,0,0-10.68,10.68V202.5l10.85-10h46A10.68,10.68,0,0,0,411,181.85V156.42a10.68,10.68,0,0,0-10.72-10.68Z"/><path class="s" d="M366.64,170a4.64,4.64,0,1,1-4.64-4.64A4.64,4.64,0,0,1,366.64,170Z"/><path class="s" d="M382.79,170a4.64,4.64,0,1,1-4.64-4.64A4.64,4.64,0,0,1,382.79,170Z"/><path class="s" d="M398.94,170a4.64,4.64,0,1,1-4.64-4.64,4.64,4.64,0,0,1,4.64,4.64Z"/><path class="s" d="M413.58,130.54H367.43a10.68,10.68,0,0,0-10.68,10.68V187.3l10.85-10h46a10.68,10.68,0,0,0,10.68-10.68v-25.4a10.68,10.68,0,0,0-10.7-10.68Z"/><path class="s" d="M379.94,154.78a4.64,4.64,0,1,1-4.64-4.64,4.64,4.64,0,0,1,4.64,4.64Z"/><path class="s" d="M396.09,154.78a4.64,4.64,0,1,1-4.64-4.64,4.64,4.64,0,0,1,4.64,4.64Z"/><path class="s" d="M412.24,154.78a4.64,4.64,0,1,1-4.64-4.64,4.64,4.64,0,0,1,4.64,4.64Z"/><path class="s" d="M194.08,42.25H151.49a9.85,9.85,0,0,0-9.85,9.85V94.61l10-9.2h42.42a9.85,9.85,0,0,0,9.85-9.85V52.1a9.85,9.85,0,0,0-9.83-9.85Z"/><path class="s" d="M163,64.61a4.28,4.28,0,1,1-4.28-4.28A4.28,4.28,0,0,1,163,64.61Z"/><path class="s" d="M177.94,64.61a4.28,4.28,0,1,1-4.28-4.28,4.28,4.28,0,0,1,4.28,4.28Z"/><path class="s" d="M192.84,64.61a4.28,4.28,0,1,1-4.28-4.28,4.28,4.28,0,0,1,4.28,4.28Z"/><path class="s" d="M577,239.32H534.41a9.85,9.85,0,0,0-9.85,9.85v42.51l10-9.2H577a9.85,9.85,0,0,0,9.85-9.85V249.17A9.85,9.85,0,0,0,577,239.32Z"/><path class="s" d="M546,261.68a4.29,4.29,0,1,1-4.28-4.28A4.29,4.29,0,0,1,546,261.68Z"/><circle class="s" cx="4.28" cy="4.28" r="4.28" transform="translate(552.3 257.4)"/><path class="s" d="M575.76,261.68a4.29,4.29,0,1,1-4.28-4.28A4.29,4.29,0,0,1,575.76,261.68Z"/><path class="v" d="M66.69,204.62a16.48,16.48,0,0,0-7.43-11.17,17.76,17.76,0,0,0-19.23,0,16.43,16.43,0,0,0-7.42,11.17c-1.79,10,7,15.34,8.64,17.35a7.31,7.31,0,0,1,1.65,2,13.2,13.2,0,0,1,.44,2.29H56a13.2,13.2,0,0,1,.44-2.29A7.51,7.51,0,0,1,58,222C59.69,220,68.47,214.6,66.69,204.62Z"/><path class="q" d="M47,227.33s0-9.45-.69-10.8-3.88-6.08-4.42-7.08.57-2.15,1.42-.68c.72,1.26,3.82,5.58,4.51,7.34s1.28,11.7,1.28,11.7Z"/><path class="q" d="M52.24,227.33s0-9.45.7-10.8,3.87-6.08,4.41-7.08-.56-2.15-1.41-.68c-.73,1.26-3.83,5.58-4.52,7.34s-1.28,11.7-1.28,11.7Z"/><path class="q" d="M56.82,209.13a8,8,0,0,1-5.07.18h0a3.9,3.9,0,0,1-4.54-.39,15,15,0,0,1-4.37.75v-.9a15.3,15.3,0,0,0,3.61-.53c-.93-1-1.13-2.12-.51-2.87a1.7,1.7,0,0,1,2.42-.41,2.11,2.11,0,0,1,.42,2.87,2.71,2.71,0,0,1-.64.62,3.16,3.16,0,0,0,2.67.4,2.34,2.34,0,0,1-.69-.58,1.55,1.55,0,0,1,.06-2,1.69,1.69,0,0,1,1.68-.82,1.57,1.57,0,0,1,1.14,1.3,2.4,2.4,0,0,1-.49,1.84,6.93,6.93,0,0,0,4-.25Zm-5.67-2.66a1.691,1.691,0,0,0-.32.33c-.35.48-.22.76-.07.95a2,2,0,0,0,.83.56,1.58,1.58,0,0,0,.52-1.36.72.72,0,0,0-.5-.61.57.57,0,0,0-.46.13Zm-3.82,1.45a1.76,1.76,0,0,0,.66-.54,1.2,1.2,0,0,0-.22-1.65c-.38-.29-.81-.19-1.19.26s.05,1.2.52,1.7a2.5,2.5,0,0,0,.23.23Z"/><path class="s" d="M49.62,225.25a19.43,19.43,0,0,1-6.85-1.17l.12.2c.46.94,1,8.79,2.26,11.82a2.44,2.44,0,0,0,.72,1.09,7,7,0,0,0,3.75.87,7,7,0,0,0,3.76-.87,2.35,2.35,0,0,0,.71-1.09c1.24-3,1.81-10.88,2.27-11.82,0-.07.08-.13.11-.2a19.32,19.32,0,0,1-6.85,1.17Z"/><path d="M49.62,228.8a22.46,22.46,0,0,0,6.11-.89c.13-.93.24-1.77.35-2.42a18.17,18.17,0,0,1-12.91,0c.1.65.22,1.49.35,2.42a22.45,22.45,0,0,0,6.1.89Z"/><path d="M49.62,232.8a22.94,22.94,0,0,0,5.47-.71c.14-.78.27-1.59.38-2.38a18.14,18.14,0,0,1-11.69,0c.11.79.24,1.6.38,2.38a22.79,22.79,0,0,0,5.46.71Z"/><path d="M44.53,234a13.861,13.861,0,0,0,.62,2.13l.12.25a24.249,24.249,0,0,0,4.35.45,24.26,24.26,0,0,0,4.36-.45,1.89,1.89,0,0,0,.11-.25,15,15,0,0,0,.63-2.13A18.39,18.39,0,0,1,44.53,234Z"/><rect class="s" width="3.67" height="12.17" rx="1.82" transform="translate(48.11 173.42)"/><rect class="s" width="12.17" height="3.67" rx="1.82" transform="matrix(0.472, -0.881, 0.881, 0.472, 61.421, 187.057)"/><path class="s" d="M36.85,187.94h0a1.83,1.83,0,0,0,.74-2.47l-4-7.51a1.82,1.82,0,0,0-2.46-.75h0a1.82,1.82,0,0,0-.75,2.46l4,7.52a1.82,1.82,0,0,0,2.47.75Z"/><path class="s" d="M27.16,198h0a1.81,1.81,0,0,1-2.15,1.4l-8.35-1.75a1.83,1.83,0,0,1-1.41-2.16h0A1.83,1.83,0,0,1,17.41,194l8.34,1.76A1.82,1.82,0,0,1,27.16,198Z"/><path class="s" d="M26.7,211.58h0a1.82,1.82,0,0,0-2.26-1.24l-8.18,2.4A1.82,1.82,0,0,0,15,215h0a1.81,1.81,0,0,0,2.25,1.24l8.19-2.4a1.82,1.82,0,0,0,1.26-2.26Z"/><path class="s" d="M72.74,198h0a1.82,1.82,0,0,0,2.16,1.4l8.34-1.75a1.82,1.82,0,0,0,1.41-2.16h0A1.82,1.82,0,0,0,82.49,194l-8.35,1.76a1.81,1.81,0,0,0-1.4,2.24Z"/><path class="s" d="M73.19,211.58h0a1.82,1.82,0,0,1,2.26-1.24l8.18,2.4A1.82,1.82,0,0,1,84.88,215h0a1.83,1.83,0,0,1-2.26,1.24l-8.18-2.4a1.82,1.82,0,0,1-1.25-2.26Z"/></g></g></svg>