<svg xmlns="http://www.w3.org/2000/svg" width="100" height="100" viewBox="0 0 100 100"><defs><style>.a{fill:#fff;}</style></defs><g transform="translate(-29 11)"><path class="a" d="M122.548,33.2H87.065V28.267a1.643,1.643,0,0,0-.2-3.267h-12.7a1.641,1.641,0,0,0,0,3.281V33.2H35.452A6.515,6.515,0,0,0,29,39.765V95.544a6.515,6.515,0,0,0,6.452,6.562H68.7l-2.152,6.562H61.258a1.628,1.628,0,0,0-1.613,1.641v3.281H43.516a1.641,1.641,0,0,0,0,3.281h70.968a1.641,1.641,0,0,0,0-3.281H98.355v-3.281a1.627,1.627,0,0,0-1.613-1.641H91.454L89.3,102.106h33.246A6.515,6.515,0,0,0,129,95.544V39.765a6.515,6.515,0,0,0-6.452-6.562ZM76.214,60.071a1.639,1.639,0,0,0,1.173-1.58V28.281h6.452v30.21a1.639,1.639,0,0,0,1.173,1.58,16.418,16.418,0,0,1,11.73,15.786c0,.121,0,.243-.006.363a43.667,43.667,0,0,1-5.06.883c-4.415.492-7.992.122-10.341-1.075-5.256-2.671-13.129-1.438-16.84-.621a16.409,16.409,0,0,1,11.72-15.337ZM96.3,79.682a16.472,16.472,0,0,1-6.009,9.3H70.938a16.474,16.474,0,0,1-6.206-10.264,44.125,44.125,0,0,1,4.819-.826c4.415-.492,7.992-.122,10.341,1.075a18.422,18.422,0,0,0,8.221,1.628,41.346,41.346,0,0,0,8.184-.912ZM32.226,39.765a3.257,3.257,0,0,1,3.226-3.281h38.71V57.292a19.559,19.559,0,0,0-12.3,13.682,19.928,19.928,0,0,0,4.331,18.008H63.866l-9.06-18.434V44.687a1.641,1.641,0,0,0,0-3.281H41.9a1.641,1.641,0,0,0,0,3.281V70.548l-9.06,18.434h-.617Zm19.524,31.9L53,74.217h-9.3l1.255-2.547a1.673,1.673,0,0,0,.169-.734V44.687h6.452V70.935a1.673,1.673,0,0,0,.169.734ZM54.617,77.5l5.645,11.484H36.447L42.092,77.5Zm40.512,34.452v1.641H62.871v-1.641Zm-25.182-3.281,2.152-6.562H85.9l2.152,6.562Zm55.827-13.124a3.257,3.257,0,0,1-3.226,3.281h-87.1a3.257,3.257,0,0,1-3.226-3.281V92.263h93.548ZM113.02,69.982l4.9,10.8H104.6l4.9-10.8a1.647,1.647,0,0,0,.149-.687V52.889h3.226V69.295a1.647,1.647,0,0,0,.149.687Zm6.387,14.078,2.234,4.922H100.875l2.234-4.922Zm6.367,4.922h-.581l-9.1-20.048V52.889a1.641,1.641,0,0,0,0-3.281h-9.677a1.641,1.641,0,0,0,0,3.281V68.934l-9.1,20.048h-2.29a19.928,19.928,0,0,0,4.331-18.008,19.559,19.559,0,0,0-12.3-13.682V36.484h35.484a3.257,3.257,0,0,1,3.226,3.281Zm0,0" transform="translate(0 -27.871)"/><path class="a" d="M62.484,277H54.355a1.355,1.355,0,1,0,0,2.71h8.129a1.355,1.355,0,1,0,0-2.71Zm0,0" transform="translate(-18.581 -210.168)"/><path class="a" d="M109.71,277h-1.355a1.355,1.355,0,1,0,0,2.71h1.355a1.355,1.355,0,1,0,0-2.71Zm0,0" transform="translate(-56.862 -210.168)"/><path class="a" d="M181.71,230.355A1.355,1.355,0,1,1,180.355,229a1.355,1.355,0,0,1,1.355,1.355Zm0,0" transform="translate(-109.462 -175.14)"/><path class="a" d="M205.71,242.355A1.355,1.355,0,1,1,204.355,241a1.355,1.355,0,0,1,1.355,1.355Zm0,0" transform="translate(-126.976 -183.897)"/><path class="a" d="M253.71,236.355A1.355,1.355,0,1,1,252.355,235a1.355,1.355,0,0,1,1.355,1.355Zm0,0" transform="translate(-162.004 -179.518)"/><path class="a" d="M247.71,8.355A1.355,1.355,0,1,1,246.355,7a1.355,1.355,0,0,1,1.355,1.355Zm0,0" transform="translate(-157.626 -13.935)"/><path class="a" d="M205.71-9.645a1.355,1.355,0,0,1-1.355,1.355A1.355,1.355,0,0,1,203-9.645,1.355,1.355,0,0,1,204.355-11a1.355,1.355,0,0,1,1.355,1.355Zm0,0" transform="translate(-126.976)"/><path class="a" d="M181.71,8.355A1.355,1.355,0,1,1,180.355,7a1.355,1.355,0,0,1,1.355,1.355Zm0,0" transform="translate(-109.462 -13.935)"/><path class="a" d="M223.71,14.355A1.355,1.355,0,1,1,222.355,13a1.355,1.355,0,0,1,1.355,1.355Zm0,0" transform="translate(-140.112 -18.581)"/></g></svg>