<svg xmlns="http://www.w3.org/2000/svg" xmlns:xlink="http://www.w3.org/1999/xlink" width="100" height="100" viewBox="0 0 100 100"><defs><style>.a{fill:#0077b5;}.b{fill:#fff;}.c{filter:url(#a);}</style><filter id="a" x="0" y="0" width="100" height="100" filterUnits="userSpaceOnUse"><feOffset dy="3" input="SourceAlpha"/><feGaussianBlur stdDeviation="10" result="b"/><feFlood flood-color="#0077b5" flood-opacity="0.161"/><feComposite operator="in" in2="b"/><feComposite in="SourceGraphic"/></filter></defs><g transform="translate(-1145 -5784)"><g class="c" transform="matrix(1, 0, 0, 1, 1145, 5784)"><rect class="a" width="40" height="40" rx="3" transform="translate(30 27)"/></g><path class="b" d="M3.582,16H.264V5.318H3.582ZM1.921,3.861A1.93,1.93,0,1,1,3.842,1.922,1.937,1.937,0,0,1,1.921,3.861ZM16,16h-3.31V10.8c0-1.239-.025-2.829-1.725-2.829-1.725,0-1.989,1.346-1.989,2.739V16H5.659V5.318H8.841V6.775h.046A3.486,3.486,0,0,1,12.026,5.05C15.383,5.05,16,7.261,16,10.133V16Z" transform="translate(1187 5823)"/></g></svg>