<svg xmlns="http://www.w3.org/2000/svg" width="100" height="100" viewBox="0 0 100 100"><defs><style>.a{fill:#fff;}</style></defs><g transform="translate(-165 -125)"><path class="a" d="M197.178,182.74v-5.747H178.919v12.319h4.452a4.754,4.754,0,0,1,4.384-6.572Zm19.815,10.087v18.26h12.319v-4.458a4.754,4.754,0,0,1-6.572-4.384v-9.418Zm-2.929,18.26v-18.26h-1.478a6.736,6.736,0,0,1-2.924-.614,6.215,6.215,0,0,1-2.745-2.58,7.93,7.93,0,0,0-2.962-2.9,8.217,8.217,0,0,0-4.075-1.063H187.755a1.822,1.822,0,0,0,0,3.643h10.674a1.464,1.464,0,0,1,0,2.928h-24.3a1.835,1.835,0,0,0-1.822,1.822,1.834,1.834,0,0,0,1.822,1.822h16.31a1.465,1.465,0,1,1,0,2.929H169.751a1.816,1.816,0,0,0-1.285,3.1,1.833,1.833,0,0,0,1.285.538H190.44a1.464,1.464,0,1,1,0,2.928H171.993a1.823,1.823,0,0,0-1.822,1.821,1.813,1.813,0,0,0,.537,1.285,1.834,1.834,0,0,0,1.285.532H190.44a1.467,1.467,0,1,1,0,2.934H179.683a1.825,1.825,0,0,0-1.822,1.817,1.834,1.834,0,0,0,1.822,1.82h8.106a1.465,1.465,0,1,1,0,2.929h-8.106a4.742,4.742,0,0,1-4.385-6.566h-3.305a4.746,4.746,0,0,1-4.186-6.992,4.738,4.738,0,0,1-1.411-7.685,4.7,4.7,0,0,1,3.349-1.4,4.755,4.755,0,0,1,4.385-6.572h1.854v-16.98a3.82,3.82,0,0,0-.42-1.761,6.955,6.955,0,0,0-1.318-1.744,10.132,10.132,0,0,1-2.038-2.946,8.227,8.227,0,0,1-.73-3.354v-8.1a1.465,1.465,0,1,1,2.929,0v8.1a5.283,5.283,0,0,0,.471,2.164,7.11,7.11,0,0,0,1.45,2.071,9.926,9.926,0,0,1,1.86,2.508,6.759,6.759,0,0,1,.731,3.062v1.733h18.26v-1.479a6.8,6.8,0,0,1,.608-2.922,6.191,6.191,0,0,1,2.586-2.747,7.968,7.968,0,0,0,2.9-2.962,8.274,8.274,0,0,0,1.057-4.075V147.756a1.825,1.825,0,0,0-1.821-1.817,1.815,1.815,0,0,0-1.816,1.817V158.43a1.467,1.467,0,0,1-2.934,0v-24.3a1.813,1.813,0,0,0-3.1-1.285,1.817,1.817,0,0,0-.537,1.285v16.31a1.465,1.465,0,1,1-2.929,0V129.751a1.834,1.834,0,0,0-.537-1.285,1.821,1.821,0,0,0-3.105,1.285V150.44a1.465,1.465,0,1,1-2.929,0V131.993a1.822,1.822,0,0,0-3.643,0V150.44a1.465,1.465,0,1,1-2.929,0V139.683a1.822,1.822,0,0,0-3.643,0v8.106a1.465,1.465,0,1,1-2.929,0v-8.106a4.747,4.747,0,0,1,6.572-4.385v-3.305a4.741,4.741,0,0,1,6.987-4.185,4.641,4.641,0,0,1,.98-1.412,4.75,4.75,0,0,1,8.1,3.349,4.755,4.755,0,0,1,6.572,4.385v1.854h16.974a3.8,3.8,0,0,0,1.761-.42,7.049,7.049,0,0,0,1.75-1.318,10.053,10.053,0,0,1,2.946-2.038,8.219,8.219,0,0,1,3.348-.73h8.106a1.465,1.465,0,0,1,0,2.929h-8.106a5.252,5.252,0,0,0-2.158.471,7.041,7.041,0,0,0-2.076,1.45,9.8,9.8,0,0,1-2.5,1.86,6.764,6.764,0,0,1-3.067.731h-1.733v18.26h1.478a6.848,6.848,0,0,1,2.929.608,6.214,6.214,0,0,1,2.74,2.586,8.019,8.019,0,0,0,2.962,2.9,8.294,8.294,0,0,0,4.075,1.057h12.125a1.817,1.817,0,0,0,1.285-3.106,1.837,1.837,0,0,0-1.285-.531H231.576a1.467,1.467,0,1,1,0-2.934H255.87a1.837,1.837,0,0,0,1.285-.531,1.817,1.817,0,0,0,.537-1.285,1.8,1.8,0,0,0-.537-1.285,1.818,1.818,0,0,0-1.285-.537H239.56a1.465,1.465,0,1,1,0-2.929h20.689a1.834,1.834,0,0,0,1.822-1.821,1.834,1.834,0,0,0-1.822-1.821H239.56a1.465,1.465,0,1,1,0-2.929h18.454a1.814,1.814,0,0,0,1.283-.537,1.818,1.818,0,0,0,0-2.57,1.814,1.814,0,0,0-1.283-.536H239.56a1.465,1.465,0,1,1,0-2.93h10.757a1.821,1.821,0,0,0,0-3.642h-8.106a1.465,1.465,0,0,1,0-2.929h8.106a4.759,4.759,0,0,1,4.391,6.572h3.306a4.763,4.763,0,0,1,4.749,4.75,4.674,4.674,0,0,1-.565,2.237,4.791,4.791,0,0,1,1.412.98,4.75,4.75,0,0,1-3.355,8.1,4.638,4.638,0,0,1,.366,1.822,4.763,4.763,0,0,1-4.751,4.75h-1.854v16.975a3.869,3.869,0,0,0,.421,1.761,7.206,7.206,0,0,0,1.317,1.75,9.9,9.9,0,0,1,2.038,2.945,8.212,8.212,0,0,1,.731,3.349v8.106a1.465,1.465,0,0,1-2.93,0v-8.106a5.259,5.259,0,0,0-.47-2.159,6.95,6.95,0,0,0-1.45-2.076,9.9,9.9,0,0,1-1.855-2.5,6.7,6.7,0,0,1-.731-3.067v-1.733H232.828v1.478a6.778,6.778,0,0,1-.614,2.93,6.238,6.238,0,0,1-2.581,2.739,7.982,7.982,0,0,0-2.9,2.962,8.245,8.245,0,0,0-1.063,4.075v12.125a1.822,1.822,0,0,0,3.644,0V191.576a1.464,1.464,0,1,1,2.928,0V215.87a1.817,1.817,0,0,0,3.106,1.285,1.844,1.844,0,0,0,.537-1.285V199.56a1.465,1.465,0,1,1,2.929,0v20.689a1.816,1.816,0,0,0,3.1,1.285,1.824,1.824,0,0,0,.538-1.285V199.56a1.464,1.464,0,1,1,2.928,0v18.453a1.819,1.819,0,0,0,3.638,0V199.56a1.467,1.467,0,0,1,2.934,0v10.757a1.819,1.819,0,0,0,3.637,0v-8.106a1.465,1.465,0,0,1,2.929,0v8.106a4.754,4.754,0,0,1-6.566,4.391v3.305a4.763,4.763,0,0,1-4.751,4.75,4.7,4.7,0,0,1-2.242-.565,4.867,4.867,0,0,1-.974,1.412,4.751,4.751,0,0,1-8.106-3.355,4.674,4.674,0,0,1-1.821.366,4.761,4.761,0,0,1-4.75-4.751v-1.854h-16.98a3.884,3.884,0,0,0-1.761.421,7.056,7.056,0,0,0-1.745,1.317,9.963,9.963,0,0,1-2.945,2.038,8.232,8.232,0,0,1-3.354.731h-8.1a1.465,1.465,0,1,1,0-2.93h8.1a5.282,5.282,0,0,0,2.164-.47,7.018,7.018,0,0,0,2.07-1.45,10.047,10.047,0,0,1,2.509-1.855,6.679,6.679,0,0,1,3.062-.731Zm-1.057-53.909V138.919H200.693v4.451a4.749,4.749,0,0,1,6.567,4.385v9.423Zm19.82,15.829h18.26V160.693h-4.458a4.631,4.631,0,0,1,.367,1.816,4.756,4.756,0,0,1-4.751,4.751h-9.418ZM222.74,189.9a11.151,11.151,0,0,1,1.451-5.282,10.857,10.857,0,0,1,3.964-4.047,3.388,3.388,0,0,0,1.417-1.467,4,4,0,0,0,.327-1.689V167.26a11.215,11.215,0,0,1-5.282-1.445,10.909,10.909,0,0,1-4.047-3.964,3.354,3.354,0,0,0-1.467-1.417,3.909,3.909,0,0,0-1.689-.327H207.26a11.253,11.253,0,0,1-1.445,5.282,10.947,10.947,0,0,1-3.964,4.047,3.375,3.375,0,0,0-1.417,1.461,3.926,3.926,0,0,0-.327,1.689V182.74a11.189,11.189,0,0,1,5.282,1.451,10.894,10.894,0,0,1,4.047,3.964,3.41,3.41,0,0,0,1.461,1.417,4.02,4.02,0,0,0,1.689.327Zm0,0"/></g></svg>