<svg xmlns="http://www.w3.org/2000/svg" width="40" height="40" viewBox="0 0 40 40"><defs><style>.a{fill:#fff;}.b{fill:#324252;}</style></defs><g transform="translate(-1175 -5811)"><rect class="a" width="40" height="40" rx="3" transform="translate(1175 5811)"/><path class="b" d="M7.71,10.678A2.522,2.522,0,0,0,9.318,8.219C9.318,5.873,7.57,5.3,5.553,5.3H0V17.079H5.709c2.14,0,4.151-1.027,4.151-3.42a2.838,2.838,0,0,0-2.15-2.981ZM2.589,7.312H5.018c.934,0,1.775.263,1.775,1.346,0,1-.655,1.4-1.579,1.4H2.589V7.312Zm2.768,7.766H2.589V11.835H5.41c1.14,0,1.861.475,1.861,1.682,0,1.19-.861,1.562-1.914,1.562Zm11.914-8H12.5V5.92h4.775v1.16Zm1.871,5.859c0-2.522-1.475-4.626-4.151-4.626a4.285,4.285,0,0,0-4.363,4.513A4.154,4.154,0,0,0,14.991,17.3a3.8,3.8,0,0,0,3.991-2.868H16.915a1.94,1.94,0,0,1-1.851,1.113,1.928,1.928,0,0,1-2.094-2.17h6.151C19.132,13.237,19.142,13.088,19.142,12.938ZM12.974,11.9a1.83,1.83,0,0,1,1.944-1.821A1.746,1.746,0,0,1,16.785,11.9Z" transform="translate(1185 5819.698)"/></g></svg>