<svg xmlns="http://www.w3.org/2000/svg" xmlns:xlink="http://www.w3.org/1999/xlink" width="81.875" height="85" viewBox="0 0 81.875 85"><defs><style>.a{fill:#f27676;}.b{filter:url(#a);}</style><filter id="a" x="0" y="0" width="81.875" height="85" filterUnits="userSpaceOnUse"><feOffset dy="3" input="SourceAlpha"/><feGaussianBlur stdDeviation="10" result="b"/><feFlood flood-color="#f27676" flood-opacity="0.169"/><feComposite operator="in" in2="b"/><feComposite in="SourceGraphic"/></filter></defs><g transform="translate(-344.3 -5565)"><g class="b" transform="matrix(1, 0, 0, 1, 344.3, 5565)"><path class="a" d="M17.188,15.625a4.667,4.667,0,0,0-2.919,1.02l-5-3.128a4.714,4.714,0,0,0,0-2.035l5-3.128a4.679,4.679,0,1,0-1.657-2.65l-5,3.128a4.688,4.688,0,1,0,0,7.334l5,3.128a4.688,4.688,0,1,0,4.576-3.67Z" transform="translate(30 27)"/></g></g></svg>