<svg xmlns="http://www.w3.org/2000/svg" width="103.06" height="100" viewBox="0 0 103.06 100"><defs><style>.a{fill:#fff;}</style></defs><g transform="translate(-163.47 -125.002)"><path class="a" d="M264.883,145.36h-4.752a18.739,18.739,0,0,0-2.346-5.659l3.361-3.363a1.645,1.645,0,0,0,0-2.329l-3.623-3.62a1.646,1.646,0,0,0-2.33,0l-3.362,3.361a18.738,18.738,0,0,0-5.659-2.346v-4.755A1.647,1.647,0,0,0,244.525,125H239.4a1.647,1.647,0,0,0-1.647,1.647V131.4a18.722,18.722,0,0,0-5.66,2.347l-3.361-3.358a1.646,1.646,0,0,0-2.33,0l-3.624,3.624a1.644,1.644,0,0,0,0,2.328l3.362,3.363a18.722,18.722,0,0,0-2.347,5.66h-4.75a1.645,1.645,0,0,0-1.647,1.647v.282H165.117a1.646,1.646,0,0,0-1.647,1.637v61.931a1.648,1.648,0,0,0,1.647,1.647h93.031a1.648,1.648,0,0,0,1.647-1.647V166.48l1.353-1.351a1.648,1.648,0,0,0,0-2.33l-3.362-3.361a18.756,18.756,0,0,0,2.346-5.66h4.751a1.648,1.648,0,0,0,1.647-1.647v-5.124a1.647,1.647,0,0,0-1.647-1.647Zm-98.119,63.857V150.581H217.4v1.55a1.647,1.647,0,0,0,1.647,1.647h4.751a18.731,18.731,0,0,0,2.347,5.66L222.78,162.8a1.645,1.645,0,0,0,0,2.33l3.623,3.624a1.647,1.647,0,0,0,2.33,0l3.361-3.362a18.732,18.732,0,0,0,5.66,2.347v4.751a1.647,1.647,0,0,0,1.647,1.647h5.124a1.647,1.647,0,0,0,1.647-1.647v-4.751a18.7,18.7,0,0,0,5.658-2.347l3.363,3.362a1.633,1.633,0,0,0,1.307.47v40Zm96.472-58.73h-4.464a1.647,1.647,0,0,0-1.629,1.4,15.343,15.343,0,0,1-2.81,6.777,1.646,1.646,0,0,0,.161,2.141l3.16,3.159-.66.66-.013.015-.619.617L253.2,162.1a1.646,1.646,0,0,0-2.141-.162,15.346,15.346,0,0,1-6.777,2.81,1.647,1.647,0,0,0-1.4,1.629v4.464h-1.838v-4.46a1.646,1.646,0,0,0-1.4-1.629,15.318,15.318,0,0,1-6.777-2.81,1.649,1.649,0,0,0-2.141.162l-3.159,3.159-1.3-1.3,3.159-3.159a1.647,1.647,0,0,0,.162-2.141,15.32,15.32,0,0,1-2.81-6.777,1.648,1.648,0,0,0-1.629-1.4H220.69v-1.833h4.464a1.648,1.648,0,0,0,1.629-1.4,15.333,15.333,0,0,1,2.81-6.778,1.65,1.65,0,0,0-.161-2.141l-3.16-3.159,1.294-1.294,3.161,3.158a1.646,1.646,0,0,0,2.141.162,15.333,15.333,0,0,1,6.776-2.81,1.649,1.649,0,0,0,1.4-1.629V128.3h1.833v4.465a1.647,1.647,0,0,0,1.4,1.628,15.361,15.361,0,0,1,6.778,2.81,1.646,1.646,0,0,0,2.141-.161l3.159-3.158,1.3,1.294-3.159,3.159a1.647,1.647,0,0,0-.163,2.141,15.336,15.336,0,0,1,2.811,6.777,1.648,1.648,0,0,0,1.628,1.4h4.465Zm0,0"/><path class="a" d="M241.962,139.628a9.941,9.941,0,1,0,9.942,9.942,9.94,9.94,0,0,0-9.942-9.942Zm0,16.588a6.646,6.646,0,1,1,6.648-6.646,6.648,6.648,0,0,1-6.648,6.646Zm0,0"/><path class="a" d="M223.833,178.5l-22.649-14.222a1.648,1.648,0,0,0-2.524,1.394V194.12a1.648,1.648,0,0,0,2.524,1.4L223.832,181.3a1.647,1.647,0,0,0,0-2.79Zm-21.877,12.637V168.657l17.9,11.239Zm0,0"/><path class="a" d="M258.148,218.107H189.581a5.012,5.012,0,0,0-4.791-3.6h-9.472a5.008,5.008,0,0,0-4.79,3.6h-5.411a1.647,1.647,0,0,0,0,3.294h5.411a5.007,5.007,0,0,0,4.79,3.6h9.47a5.008,5.008,0,0,0,4.79-3.6h68.568a1.647,1.647,0,1,0,0-3.294Zm-71.632,1.875a1.729,1.729,0,0,1-1.725,1.726h-9.473a1.727,1.727,0,0,1-1.725-1.726v-.454a1.726,1.726,0,0,1,1.725-1.726h9.47a1.727,1.727,0,0,1,1.725,1.726Zm0,0"/></g></svg>