<svg xmlns="http://www.w3.org/2000/svg" width="69.023" height="53.839" viewBox="0 0 69.023 53.839"><defs><style>.a,.d{fill:#fff;}.a{font-size:14px;font-family:Teko-Medium, Teko;font-weight:500;}.b{font-size:16px;}.c{fill:#7ea346;}.e{fill:none;}</style></defs><g transform="translate(-1295.639 -626.862)"><text class="a" transform="translate(1324.662 654.333)"><tspan x="0" y="0">Creative</tspan><tspan class="b"><tspan x="0" y="16">SCHOOL</tspan></tspan></text><path class="c" d="M1300.654,628.9a2.463,2.463,0,1,0,.037.425A2.465,2.465,0,0,0,1300.654,628.9Z" transform="translate(-0.049 0)"/><path class="d" d="M1317.942,686.056h-8.418a1.782,1.782,0,0,0,0,3.563h8.418a1.782,1.782,0,1,0,0-3.563Z" transform="translate(-4.825 -23.596)"/><path class="d" d="M1317.942,674.779h-8.418a1.781,1.781,0,0,0,0,3.563h8.418a1.781,1.781,0,1,0,0-3.562Z" transform="translate(-4.825 -19.101)"/><path class="d" d="M1317.942,663.5h-8.418a1.781,1.781,0,0,0,0,3.563h8.418a1.781,1.781,0,1,0,0-3.563Z" transform="translate(-4.825 -14.605)"/><path class="d" d="M1315.146,642.375h-11.251a4.693,4.693,0,0,1,0-9.386h13.264a1.456,1.456,0,1,1,0,2.912H1304.7a1.782,1.782,0,0,0,0,3.563h12.459a5.019,5.019,0,1,0,0-10.038h-13.264a8.227,8.227,0,0,0-2.264.318,3.505,3.505,0,0,1-4.88,3.807,8.2,8.2,0,0,0-1.112,4.131v35.125a1.781,1.781,0,0,0,1.781,1.781h3.109v5.354a1.781,1.781,0,0,0,3.04,1.26l6.613-6.613h9.594a1.782,1.782,0,0,0,1.781-1.781V648.788A6.421,6.421,0,0,0,1315.146,642.375Zm2.85,28.651h-8.55a1.784,1.784,0,0,0-1.26.521l-4.094,4.094v-2.834a1.781,1.781,0,0,0-1.781-1.781H1299.2V644.471a8.208,8.208,0,0,0,4.693,1.467h11.251a2.853,2.853,0,0,1,2.85,2.85Z" transform="translate(0 -1.022)"/><path class="e" d="M1317.507,655.91h-11.251a8.209,8.209,0,0,1-4.693-1.467V681h3.109a1.781,1.781,0,0,1,1.781,1.781v2.834l4.094-4.094a1.783,1.783,0,0,1,1.26-.521h8.551V658.76A2.853,2.853,0,0,0,1317.507,655.91Zm-2.028,21.107h-8.418a1.782,1.782,0,0,1,0-3.563h8.418a1.782,1.782,0,1,1,0,3.563Zm0-6.782h-8.418a1.781,1.781,0,0,1,0-3.563h8.418a1.781,1.781,0,1,1,0,3.563Zm0-6.782h-8.418a1.781,1.781,0,0,1,0-3.563h8.418a1.781,1.781,0,1,1,0,3.563Z" transform="translate(-2.361 -10.994)"/></g></svg>