<svg xmlns="http://www.w3.org/2000/svg" xmlns:xlink="http://www.w3.org/1999/xlink" width="95" height="83.333" viewBox="0 0 95 83.333"><defs><style>.a{fill:#5ed6de;}.b{filter:url(#a);}</style><filter id="a" x="0" y="0" width="95" height="83.333" filterUnits="userSpaceOnUse"><feOffset dy="3" input="SourceAlpha"/><feGaussianBlur stdDeviation="10" result="b"/><feFlood flood-color="#5ed6de" flood-opacity="0.169"/><feComposite operator="in" in2="b"/><feComposite in="SourceGraphic"/></filter></defs><g transform="translate(-344.65 -5565)"><g class="b" transform="matrix(1, 0, 0, 1, 344.65, 5565)"><path class="a" d="M33.542,4.5H5.347A1.458,1.458,0,0,0,3.889,5.958v.486H1.458A1.458,1.458,0,0,0,0,7.9V24.431a3.4,3.4,0,0,0,3.4,3.4H32.083A2.917,2.917,0,0,0,35,24.917V5.958A1.458,1.458,0,0,0,33.542,4.5ZM3.4,24.917a.486.486,0,0,1-.486-.486V9.361h.972V24.431A.486.486,0,0,1,3.4,24.917Zm14.34-.972H8.507a.729.729,0,0,1-.729-.729v-.486A.729.729,0,0,1,8.507,22h9.236a.729.729,0,0,1,.729.729v.486A.729.729,0,0,1,17.743,23.944Zm12.639,0H21.146a.729.729,0,0,1-.729-.729v-.486A.729.729,0,0,1,21.146,22h9.236a.729.729,0,0,1,.729.729v.486A.729.729,0,0,1,30.382,23.944ZM17.743,18.111H8.507a.729.729,0,0,1-.729-.729V16.9a.729.729,0,0,1,.729-.729h9.236a.729.729,0,0,1,.729.729v.486A.729.729,0,0,1,17.743,18.111Zm12.639,0H21.146a.729.729,0,0,1-.729-.729V16.9a.729.729,0,0,1,.729-.729h9.236a.729.729,0,0,1,.729.729v.486A.729.729,0,0,1,30.382,18.111Zm0-5.833H8.507a.729.729,0,0,1-.729-.729V9.118a.729.729,0,0,1,.729-.729H30.382a.729.729,0,0,1,.729.729v2.431A.729.729,0,0,1,30.382,12.278Z" transform="translate(30 22.5)"/></g></g></svg>