<svg xmlns="http://www.w3.org/2000/svg" width="99.672" height="15" viewBox="0 0 99.672 15"><defs><style>.a{fill:#ffb431;}</style></defs><g transform="translate(-508 -1563)"><path class="a" d="M8.437.521,6.524,4.4l-4.28.624a.938.938,0,0,0-.518,1.6l3.1,3.017L4.089,13.9a.937.937,0,0,0,1.359.987l3.829-2.012,3.829,2.012a.938.938,0,0,0,1.359-.987L13.733,9.64l3.1-3.017a.938.938,0,0,0-.518-1.6L12.031,4.4,10.118.521a.938.938,0,0,0-1.681,0Z" transform="translate(506.559 1563.001)"/><path class="a" d="M8.437.521,6.524,4.4l-4.28.624a.938.938,0,0,0-.518,1.6l3.1,3.017L4.089,13.9a.937.937,0,0,0,1.359.987l3.829-2.012,3.829,2.012a.938.938,0,0,0,1.359-.987L13.733,9.64l3.1-3.017a.938.938,0,0,0-.518-1.6L12.031,4.4,10.118.521a.938.938,0,0,0-1.681,0Z" transform="translate(527.559 1563.001)"/><path class="a" d="M8.437.521,6.524,4.4l-4.28.624a.938.938,0,0,0-.518,1.6l3.1,3.017L4.089,13.9a.937.937,0,0,0,1.359.987l3.829-2.012,3.829,2.012a.938.938,0,0,0,1.359-.987L13.733,9.64l3.1-3.017a.938.938,0,0,0-.518-1.6L12.031,4.4,10.118.521a.938.938,0,0,0-1.681,0Z" transform="translate(548.559 1563.001)"/><path class="a" d="M8.437.521,6.524,4.4l-4.28.624a.938.938,0,0,0-.518,1.6l3.1,3.017L4.089,13.9a.937.937,0,0,0,1.359.987l3.829-2.012,3.829,2.012a.938.938,0,0,0,1.359-.987L13.733,9.64l3.1-3.017a.938.938,0,0,0-.518-1.6L12.031,4.4,10.118.521a.938.938,0,0,0-1.681,0Z" transform="translate(569.559 1563.001)"/><path class="a" d="M8.437.521,6.524,4.4l-4.28.624a.938.938,0,0,0-.518,1.6l3.1,3.017L4.089,13.9a.937.937,0,0,0,1.359.987l3.829-2.012,3.829,2.012a.938.938,0,0,0,1.359-.987L13.733,9.64l3.1-3.017a.938.938,0,0,0-.518-1.6L12.031,4.4,10.118.521a.938.938,0,0,0-1.681,0Z" transform="translate(590.559 1563.001)"/></g></svg>