<svg xmlns="http://www.w3.org/2000/svg" width="697.252" height="255.475" viewBox="0 0 697.252 255.475"><defs><style>.a{opacity:0.05;}.b,.c,.f{fill:none;stroke:#0071b8;stroke-width:3px;}.b,.c{stroke-miterlimit:10;}.c,.f{stroke-linecap:round;}.d,.e{fill:#0071b8;}.e{font-size:9px;font-family:Helvetica;}.f{stroke-linejoin:round;}</style></defs><g class="a" transform="translate(-589.742 -23.443)"><g transform="translate(1096.872 116.978)"><g transform="translate(11.03 0)"><path class="b" d="M870.845,414.6l-15.686-.133a3,3,0,0,1-2.974-3.026h0a3,3,0,0,1,3.025-2.975l15.686.134a3,3,0,0,1,2.974,3.025h0A3,3,0,0,1,870.845,414.6Z" transform="translate(-844.769 -365.68)"/><path class="b" d="M870.765,424.029l-15.686-.133a3,3,0,0,1-2.974-3.026h0a3,3,0,0,1,3.025-2.974l15.686.133a3,3,0,0,1,2.975,3.025h0A3,3,0,0,1,870.765,424.029Z" transform="translate(-844.74 -369.041)"/><path class="b" d="M844.12,370.748h0l.09.125a40.649,40.649,0,0,1,6.17,13.991h16.781a40.637,40.637,0,0,1,6.17-13.991l.09-.125h0c.315-.433.612-.879.888-1.34a18.105,18.105,0,1,0-31.078,0Q843.646,370.1,844.12,370.748Z" transform="translate(-840.665 -342.004)"/><path class="b" d="M858.091,427.33a7.151,7.151,0,0,0,13.776.117Z" transform="translate(-846.873 -372.402)"/><path class="b" d="M860.9,398.61V383.5a2.694,2.694,0,1,0-2.693,2.694h5.984" transform="translate(-845.953 -355.828)"/><path class="b" d="M872.278,398.61V383.5a2.693,2.693,0,1,1,2.693,2.694h-5.984" transform="translate(-850.755 -355.828)"/></g><g transform="translate(50.424 13.038)"><line class="c" x2="5.053" transform="translate(1.563 8.715)"/><line class="c" y1="2.283" x2="4.509" transform="translate(1.757)"/><line class="c" x2="4.509" y2="2.283" transform="translate(0 14.69)"/></g><g transform="translate(0 13.038)"><line class="c" x1="5.053" transform="translate(0 8.715)"/><line class="c" x1="4.509" y1="2.283" transform="translate(0.351)"/><line class="c" x1="4.509" y2="2.283" transform="translate(2.108 14.69)"/></g></g><g transform="translate(1046.724 100.07)"><line class="c" y1="4.586" x2="2.122" transform="translate(5.935 3.34)"/><line class="c" x1="0.179" y1="5.05"/><line class="c" y1="3.134" x2="3.965" transform="translate(10.701 8.721)"/></g><g transform="translate(842.287 100.07)"><line class="c" x1="2.122" y1="4.586" transform="translate(6.609 3.34)"/><line class="c" y1="5.05" x2="0.179" transform="translate(14.487)"/><line class="c" x1="3.965" y1="3.134" transform="translate(0 8.721)"/></g><g transform="translate(1238.063 183.489)"><g transform="translate(0 6.927)"><path class="d" d="M773.146,606.063c.122.041.245.082.387.142a1.6,1.6,0,0,0,1.179-.183c.244-.082.467-.163.691-.244a1.055,1.055,0,0,1,.264-.021.308.308,0,0,0-.02.122c0,.021.02.041.04.061a.884.884,0,0,1-.06.183c.1.1.183.2.265.285a.248.248,0,0,1,.04.3.265.265,0,0,0-.02.122.556.556,0,0,1-.325.467,2.89,2.89,0,0,1-.915.244.749.749,0,0,0-.407.122.739.739,0,0,1-.3.041,3.94,3.94,0,0,1-.488-.061,2.631,2.631,0,0,1-1.037-.366,1.2,1.2,0,0,0-.162-.081,1.508,1.508,0,0,0-.183-.1c-.041-.061-.1-.122-.162-.2-.041-.021-.061-.081-.1-.1a3.956,3.956,0,0,1-.467-.671,2.341,2.341,0,0,1-.224-.731,2.694,2.694,0,0,1-.122-.976c.021-.326.041-.671.06-1,0-.1-.02-.2-.02-.305,0-.346.02-.671.02-1.017.021-.59.021-1.158.041-1.728.02-.427.041-.834.061-1.241l.122-1.586c.02-.346.041-.691.082-1.036.061-.55.122-1.078.2-1.606.021-.163.061-.326.081-.509a.519.519,0,0,1,.448-.366c.122-.02.264-.02.386-.041a5.2,5.2,0,0,1,.55-.061c.264-.02.529-.02.792-.02.061,0,.143-.021.2-.021a4.173,4.173,0,0,1,.508,0c.244.021.488.082.732.1l.244.061c.041.021.1.041.1.082.06.142.183.122.284.142s.183.041.305.061a1.426,1.426,0,0,1-.041.142.02.02,0,0,1-.021-.021l-.183.183.021.02a.592.592,0,0,1-.183.041.123.123,0,0,1-.081-.02v.041a.878.878,0,0,1-.224.04,4.378,4.378,0,0,0-.691.1,2.05,2.05,0,0,1-.346.081.861.861,0,0,1-.1-.02,3.181,3.181,0,0,1-.732.041c-.244.04-.447.081-.651.122a.121.121,0,0,0-.122.162,2.533,2.533,0,0,1-.082.773c-.021.122-.021.244-.041.366s-.021.224-.041.346c0,.061.041.122.041.163a2.773,2.773,0,0,1,.02.406,6.088,6.088,0,0,1,.041.631c0,.1-.041.2-.041.3,0,.142.021.285.021.427,0,.041-.021.082,0,.122v.874c0,.081-.021.183-.021.224-.1.163-.162,0-.243,0,.02.183.163.2.285.244a.26.26,0,0,0,.122.02c.305-.04.63-.122.935-.142a2.823,2.823,0,0,1,.59.02c.265.021.509.041.753.082.183.04.386.081.569.122a.2.2,0,0,1-.082.264.856.856,0,0,0-.142.224l-.122.122c0,.021.02.061.02.081v.021c-.142.1-.223.264-.427.325s-.386,0-.59.061a3.494,3.494,0,0,1-1.3.021h-.346a.775.775,0,0,0-.142.122.155.155,0,0,1,.02.081h-.02c0,.163.02.305.02.467,0,.021.021.041.021.061h-.021c.021.59.041,1.179.061,1.81.1.081.061.223.041.366.021.02.021.041.041.061v.569h.04a.291.291,0,0,0,.041.122c.02.2.041.407.081.61a1.984,1.984,0,0,0,.1.325c.02.021,0,.061,0,.061C773.106,606.042,773.126,606.063,773.146,606.063Zm-.955-6.1a1.916,1.916,0,0,1-.122-.2.154.154,0,0,0-.02.081.9.9,0,0,0,.122.142Zm.041,5.795.1.1.021-.02a1.169,1.169,0,0,0,.142.061.072.072,0,0,1,.021-.061.1.1,0,0,0-.061-.021c-.041-.021-.041-.061-.061-.081a.076.076,0,0,1,.02-.061C772.353,605.7,772.292,605.738,772.231,605.757Zm.753.224v-.061c-.041-.041-.082-.061-.122-.1a2.051,2.051,0,0,0-.061.2C772.862,606,772.922,606,772.983,605.982Z" transform="translate(-771.011 -593.171)"/><path class="d" d="M781.99,600.409c.06-.082.1.122.163-.021a.073.073,0,0,0,.041-.02c.1.02.2-.041.264.1.021-.061.061-.041.082-.061.1-.061.2-.1.305-.021.02.021.081-.081.142-.02.041-.1.082-.02.143-.041a.967.967,0,0,1,.345,0c.021,0,.041.06.061.082.021-.122.062-.1.122-.1.122,0,.244.021.386.021.2-.021.407-.061.61-.081a3.952,3.952,0,0,0,.692-.021c.02,0,.041.041.06.061,0-.082.041-.082.082-.082.325.021.671-.081.976.244a.337.337,0,0,1,.061.285c0,.143.02.265.02.407.041.387-.142.387-.264.407a7.244,7.244,0,0,1-1.484.1.684.684,0,0,0-.2-.021c-.183.021-.346.021-.529.041a1.348,1.348,0,0,0-.284.041c-.041,0-.061,0-.061-.041-.021-.02-.041-.02-.041-.041v.061a.044.044,0,0,1-.041.041H782.7c0-.02.021-.041.021-.061v-.02c-.021.02-.041.02-.041.041a.073.073,0,0,1,.02.041,10.427,10.427,0,0,1-1.586.041,6.375,6.375,0,0,1-.651-.1c-.162-.041-.081-.285-.061-.406a1.253,1.253,0,0,1,.162-.59c.1-.1.2-.224.346-.224a2.276,2.276,0,0,0,.366-.04h.61C781.929,600.368,781.95,600.348,781.99,600.409Zm0,2.867c.06-.1.1.1.163-.021l.041-.041c.1.02.2-.02.264.122.021-.081.061-.041.082-.061a.222.222,0,0,1,.305-.021c.02,0,.081-.082.142-.021.041-.122.082-.04.143-.04a.945.945,0,0,1,.345-.021c.021,0,.041.061.061.1.021-.122.062-.122.122-.122a1.187,1.187,0,0,0,.386.02c.2,0,.407-.061.61-.061.224-.041.468.041.692-.021.02-.02.041.021.06.041,0-.082.041-.061.082-.061.325.02.671-.1.976.223a.355.355,0,0,1,.061.285c0,.143.02.285.02.427.041.367-.142.367-.264.387a6.036,6.036,0,0,1-1.484.1h-.2c-.183,0-.346.02-.529.02-.1.021-.183.021-.284.041-.041.02-.061,0-.061-.041-.021-.02-.041-.02-.041-.041v.061a.044.044,0,0,1-.041.041c-.3,0-.61,0-.935.02v-.02c0-.02.021-.041.021-.061a.069.069,0,0,0-.041.021c0,.021.02.021.02.041a6.915,6.915,0,0,1-1.586.041,3.413,3.413,0,0,1-.651-.1c-.162-.041-.081-.285-.061-.406a1.1,1.1,0,0,1,.162-.569c.1-.123.2-.245.346-.245.122,0,.244-.02.366-.02.2,0,.407-.021.61-.021C781.929,603.214,781.95,603.214,781.99,603.276Zm-1.5-1.972c.02.1.041-.1.06-.041l.021-.021V601.2C780.506,601.182,780.506,601.283,780.486,601.3Zm0,2.847c.02.1.041-.1.06-.02,0-.021.021-.021.021-.041v-.02C780.506,604.028,780.506,604.13,780.486,604.15Zm.142-3.335v.041c.021-.02.021-.041.041-.061A.075.075,0,0,0,780.627,600.815Zm0,2.867v.021c.021-.021.021-.041.041-.061C780.649,603.662,780.627,603.662,780.627,603.682Zm.021-2.948v0Zm.081.143-.021-.021c0,.021-.021.041-.021.061a.075.075,0,0,0-.02.041v.02c0-.02.02-.04.02-.061A.044.044,0,0,1,780.73,600.876Zm0,2.847h-.021a.069.069,0,0,0-.021.04.07.07,0,0,1-.02.041v.02c0-.02.02-.04.02-.061S780.709,603.743,780.73,603.723Zm.02-2.785a.02.02,0,0,1,.021-.021c0-.02-.021-.04-.021-.061l-.02.021A.075.075,0,0,1,780.75,600.938Zm0,2.847.021-.021c0-.02-.021-.04-.021-.06a.02.02,0,0,1-.02.021A.075.075,0,0,1,780.75,603.784Zm.1-3.152c-.02-.04-.041-.061-.041-.1a.069.069,0,0,1-.021.04.341.341,0,0,0,.041.1A.073.073,0,0,1,780.851,600.632Zm0,2.847a.16.16,0,0,1-.041-.082l-.021.02c0,.041.021.062.041.1A.07.07,0,0,1,780.851,603.479Zm.122-2.746c.041,0,.021-.02,0-.041,0-.02,0-.061-.021-.061-.021-.02-.082-.081-.082.041,0,.1.061.061.082.061Zm0,2.867c.041,0,.021-.041,0-.041,0-.041,0-.061-.021-.081s-.082-.082-.082.04.061.061.082.082Zm-.061-3.07v-.021a.02.02,0,0,0-.02.021v.02A.02.02,0,0,0,780.913,600.531Zm0,2.847v-.021l-.02.021v.04C780.913,603.4,780.913,603.4,780.913,603.377Zm.061-2.074v.02h.021A.02.02,0,0,1,780.974,601.3Zm0,2.867h0Zm.041-3.375h.02a.02.02,0,0,0-.02-.02Zm0,2.867a.02.02,0,0,0,.02-.021.02.02,0,0,1-.02-.02v.041Zm.1-3.172c-.021,0-.041-.02-.061-.02l-.021.041c.021.061.041.041.061.021A.072.072,0,0,0,781.116,600.49Zm0,2.867c-.021-.021-.041-.041-.061-.041a.2.2,0,0,0-.021.061c.021.04.041.04.061,0Zm.061-2.908c-.021-.02-.021,0-.021,0,0,.021,0,.021.021.041a.02.02,0,0,1,.02-.02Zm0,.143v-.021a.021.021,0,0,1-.021.021Zm0,2.7c-.021,0-.021,0-.021.021a.02.02,0,0,0,.021.02l.02-.02A.02.02,0,0,1,781.177,603.3Zm0,.163v-.02h-.021C781.177,603.439,781.177,603.439,781.177,603.458Zm.02-2.725h-.02a.02.02,0,0,0,.02.021Zm0,2.867c0-.021,0-.021-.02-.021,0,.021,0,.021.02.041Zm.02,0v0Zm.041-3.03.02-.02v-.041a.02.02,0,0,0-.02.021Zm0,.2v.02l.02-.02Zm0,2.643a.02.02,0,0,0,.02-.02v-.02h-.02Zm0,.224v.021a.02.02,0,0,1,.02-.021C781.258,603.641,781.258,603.621,781.258,603.641Zm.061-2.948c0-.02,0-.02-.021-.041v.041Zm-.021.245v0Zm.021,2.6a.021.021,0,0,0-.021-.021v.041A.02.02,0,0,1,781.319,603.54Zm.02-3.091a.02.02,0,0,1-.02-.02v.02Zm0,2.847h0Zm-.02.407v0Zm.02-3.05c.021-.021.041-.041.041-.061s-.02-.041-.02-.021a.074.074,0,0,0-.021.041Zm0,2.867c.021-.04.041-.061.041-.08l-.02-.021a.075.075,0,0,0-.021.041Zm.021-.183v0Zm.041-2.684v-.021l-.021.021Zm-.021,1a.02.02,0,0,0,.021.02A.02.02,0,0,0,781.38,601.649Zm.021,1.87v-.02h-.021Zm-.021.977v.02a.02.02,0,0,1,.021.021C781.4,604.516,781.4,604.516,781.38,604.5Zm.021.081v0Zm.061-3.924-.04.081c.02,0,.04.021.081.021l.02-.021C781.5,600.693,781.482,600.652,781.461,600.652Zm0,2.847a.287.287,0,0,1-.04.081c.02.021.04.021.081.021,0,.021,0,0,.02-.021C781.5,603.56,781.482,603.519,781.461,603.5Zm.021-2.176h0Zm0,2.847v.021a.02.02,0,0,1,.02-.021Zm.04-3.538h-.02c0,.021,0,.021.02.021Zm0,2.847a.02.02,0,0,0-.02.02h.02Zm.021-2.908h-.021a.065.065,0,0,1,.021.041.073.073,0,0,1,.041-.02C781.563,600.571,781.563,600.571,781.543,600.571Zm0,2.847a.021.021,0,0,1-.021.021.02.02,0,0,1,.021.02.065.065,0,0,0,.041-.02C781.563,603.439,781.563,603.417,781.543,603.417Zm.061-2.968-.02.021a.02.02,0,0,1,.02.02l.02-.02A.02.02,0,0,0,781.6,600.449Zm0,2.847a.02.02,0,0,1-.02.021l.02.02a.019.019,0,0,0,.02-.02Zm0,.305v0Zm.1-2.867-.021-.02v.061A.064.064,0,0,0,781.706,600.734Zm0,2.847a.02.02,0,0,1-.021-.02v.061C781.706,603.6,781.706,603.6,781.706,603.58Zm.041-3.03-.021-.02a.062.062,0,0,1-.02.04.02.02,0,0,1,.02.021C781.726,600.571,781.746,600.571,781.746,600.551Zm0,2.847-.021-.02c0,.02,0,.02-.02.04l.02.021A.075.075,0,0,0,781.746,603.4Zm.041-2.908v-.02a.019.019,0,0,0-.02.02v.021A.02.02,0,0,0,781.787,600.49Zm0,.387h-.02a.019.019,0,0,0,.02.02Zm0,2.46h-.02v.021C781.787,603.357,781.787,603.357,781.787,603.336Zm0,.407v-.02h-.02c0,.02,0,.02.02.04Zm.041-2.887v-.02c0-.041-.021-.061-.021-.082a.02.02,0,0,0-.02.021C781.807,600.795,781.807,600.815,781.828,600.856Zm0,2.847v-.021c0-.02-.021-.061-.021-.081l-.02.021C781.807,603.641,781.807,603.682,781.828,603.7Zm.142-3.152a.594.594,0,0,1-.142-.1.071.071,0,0,0-.021.041.876.876,0,0,1,.1.142A.287.287,0,0,1,781.97,600.551Zm0,2.867a.634.634,0,0,0-.142-.1l-.021.02c.041.041.061.1.1.143Zm-.122-2.44v-.02h-.02V601Zm0,2.847h-.02v.021C781.848,603.845,781.848,603.845,781.848,603.824Zm.041-2.867V601c0-.021,0-.021.021-.021A.02.02,0,0,1,781.889,600.958Zm0,2.867v.021l.021-.021Zm.041-3.091a.02.02,0,0,1-.02.021l.02.021a.021.021,0,0,0,0-.041Zm0,2.867a.02.02,0,0,0-.02.021h.02l.021-.021Zm.021-2.4v0Zm.02-.59v0Zm.061-.122h-.041v.021a.269.269,0,0,0,.082.061v-.061C782.051,600.51,782.051,600.51,782.031,600.49Zm0,2.867a.072.072,0,0,1-.041-.021v.021a.269.269,0,0,0,.082.06v-.06Zm0-2.4v-.02l-.02.02a.02.02,0,0,0,.02.02Zm0,2.867v-.04l-.02.02c0,.02,0,.02.02.041Zm.02-3.131v0Zm.021.326a.02.02,0,0,1-.021.02l.021.021v-.041a.02.02,0,0,1,.02-.02v0A.02.02,0,0,0,782.072,601.019Zm-.021,2.522v0Zm.021.325c0,.02,0,.02-.021.02a.02.02,0,0,0,.021.021v-.041h.02v0Zm.04-2.522v-.021a.064.064,0,0,0-.02-.041c0,.021,0,.021-.02.041C782.092,601.344,782.092,601.344,782.112,601.344Zm0,2.847h0c0-.021,0-.041-.02-.041l-.02.02C782.092,604.191,782.092,604.191,782.112,604.191Zm.021-3.782-.021-.021v.021Zm-.021,2.825c0,.021,0,.021.021.021a.02.02,0,0,0-.021.021v-.041Zm.041-2.3a.02.02,0,0,0-.021.02v.02c.021,0,.021,0,.021-.02Zm0,2.867h-.021v.02c.021.021.021,0,.021,0Zm0-.081v0Zm0,.691v0Zm.081-3.985h-.021v.02A.02.02,0,0,0,782.234,600.429Zm-.021.346v.02c0,.02,0,0,.021,0Zm.021,2.521a.02.02,0,0,0-.021-.02v.041A.02.02,0,0,1,782.234,603.3Zm-.021.326v.041a.02.02,0,0,1,.021-.021A.02.02,0,0,1,782.214,603.621Zm.041-2.237c-.021,0-.021.02-.021.041h.021l.02-.021A.02.02,0,0,1,782.255,601.384Zm0,2.867c-.021,0-.021,0-.021.02a.02.02,0,0,0,.021.021.02.02,0,0,1,.02-.021Zm.081-3.559v-.02a.02.02,0,0,0-.021.02v.061C782.336,600.714,782.336,600.714,782.336,600.693Zm0,.711h-.021l.021.021Zm0,2.156v-.041c-.021.021-.021.021-.021.041v.041A.063.063,0,0,0,782.336,603.56Zm0,.691h-.021a.02.02,0,0,0,.021.02Zm0-2.969v.021c0,.02.021.02.021.041v-.021a.02.02,0,0,0-.021-.02v-.021c.021,0,.021,0,.041-.02C782.357,601.283,782.357,601.283,782.336,601.283Zm0,2.847v.02c0,.02.021.041.021.061v-.041l-.021-.02v-.02h0Zm.041-3.152v-.02a.02.02,0,0,1-.02.02.02.02,0,0,1,.02.021Zm-.02.346v0Zm.02,2.5h-.02l.02.021Zm-.02.346v0Zm.061-3.7H782.4a.07.07,0,0,0-.02.041C782.4,600.51,782.4,600.49,782.418,600.47Zm-.021.2a.02.02,0,0,0-.02.02c0,.041.02.1.02.143a.021.021,0,0,0,.021-.021v-.04A.179.179,0,0,1,782.4,600.673Zm.021.813-.041.041c.02.02.02.02.02.04.021,0,.021-.02.041-.04A.065.065,0,0,1,782.418,601.486Zm0,1.85-.021-.02c0,.02-.02.02-.02.041v.021C782.4,603.357,782.4,603.336,782.418,603.336Zm-.021.2h-.02c0,.06.02.1.02.162a.021.021,0,0,1,.021-.021v-.041A.212.212,0,0,1,782.4,603.54Zm.021.812c-.021,0-.021.021-.041.021a.062.062,0,0,1,.02.04c.021,0,.021-.02.041-.02A.063.063,0,0,1,782.418,604.353Zm.04-3.131-.02-.02c-.02,0-.041.041-.041.061l.021.02C782.438,601.263,782.458,601.242,782.458,601.221Zm0,2.867a.072.072,0,0,0-.02-.041c-.02.021-.041.041-.041.061a.02.02,0,0,0,.021.021C782.438,604.109,782.458,604.109,782.458,604.089Zm-.04.386v0Zm.02-3.537v0Zm.02-.224a.044.044,0,0,0,.041-.041c.041-.041.041-.1-.021-.1a1.147,1.147,0,0,0-.021.143c0,.02,0,.02.021.02C782.458,600.734,782.458,600.734,782.458,600.714Zm0,2.867c.021-.02.041-.02.041-.04.041-.061.041-.123-.021-.123a1.13,1.13,0,0,0-.021.143c0,.02,0,.02.021.041Zm.061-2.46h-.02v.02C782.519,601.14,782.519,601.14,782.519,601.12Zm0,2.867a.02.02,0,0,1-.02-.02v.04Zm.041-3.436v-.02a.02.02,0,1,0,0,.04Zm.021.387a1.079,1.079,0,0,1,.142-.041.2.2,0,0,0,.061-.244v-.041c0,.061-.021.122-.021.163-.02.02-.041.02-.061.04v-.081c.061-.041,0-.081,0-.081-.061,0-.1,0-.142.122a.123.123,0,0,1-.02.081C782.539,600.916,782.539,600.958,782.58,600.938Zm-.021.406c0-.021-.02-.041-.02-.061v.021a.076.076,0,0,0,.02.061Zm.061.305v-.061h-.081A.276.276,0,0,1,782.62,601.649Zm-.061,1.748h-.02l.02.02Zm.021.407a1.009,1.009,0,0,1,.142-.061.2.2,0,0,0,.061-.244v-.02c0,.04-.021.1-.021.162v-.02c-.02.02-.041.02-.061.041v-.082c.061-.04,0-.061,0-.061-.061-.02-.1-.02-.142.1a.187.187,0,0,1-.02.1C782.539,603.784,782.539,603.824,782.58,603.8Zm-.021.387a.07.07,0,0,0-.02-.041h0a.076.076,0,0,0,.02.061Zm-.02.264a.277.277,0,0,1,.081.06v-.081h-.081Zm0-.021v0Zm.041-3.985h-.021v.021A.02.02,0,0,0,782.58,600.449Zm0,2.867V603.3c-.021,0-.021,0-.021.021Zm.021-2.806v-.021c.02.021.04.041.061.061a.07.07,0,0,0,.04.02c.021,0,.061-.061.041-.081a.412.412,0,0,0-.163-.08.119.119,0,0,1,.021.08Zm-.021.346c0,.021.021.041.021.021.02,0,.02,0,.04-.021a.07.07,0,0,1-.02-.041C782.6,600.836,782.6,600.856,782.58,600.856Zm.061.407c-.02-.021-.02-.041-.04-.061l-.021.02c.021.021.041.041.041.061A.02.02,0,0,0,782.64,601.263Zm-.04,2.115v-.041c.02.021.04.041.061.061a.044.044,0,0,0,.04.041c.021,0,.061-.082.041-.082-.041-.061-.1-.061-.163-.081a.073.073,0,0,1,.021.061Zm.04.346c-.02,0-.02.02-.04.02l-.021-.02.041-.041C782.62,603.7,782.64,603.7,782.64,603.723Zm0,.386c-.02-.021-.02-.041-.04-.061l-.021.021a.1.1,0,0,1,.041.081C782.64,604.13,782.64,604.13,782.64,604.109Zm.061-3.05h-.02c.02.021.02.021.02.041Zm0,2.847c0,.02,0,.02-.02.02a.02.02,0,0,1,.02.021v-.041Zm.082-3.477c0-.02-.021-.041-.021-.061a.02.02,0,0,0-.02.02c.02.021.02.041.041.041,0,.02.02.02.02.041C782.8,600.449,782.783,600.449,782.783,600.429Zm0,2.867c0-.02-.021-.041-.021-.061h-.02c.02.021.02.041.041.061l.02.021Zm-.021.326v0Zm.061-3.152v.02h0Zm.061.325-.021-.02c-.02,0-.02.02-.041.02.021,0,.021.02.041.02A.02.02,0,0,0,782.885,600.795Zm-.061,2.542v.021S782.844,603.336,782.824,603.336Zm.061.326c0-.021-.021-.041-.021-.021h-.041c.021.021.021.021.041.021Zm.02-2.948c.041-.1-.06-.021-.041-.1h-.02c0,.041.02.081.02.122C782.885,600.734,782.9,600.734,782.9,600.714Zm0,2.867c.041-.1-.06-.02-.041-.1l-.02-.021c0,.041.02.082.02.122Zm.1-3.131s-.021-.04-.021-.02l-.061.06c.021,0,.021.021.041.041C782.986,600.51,782.986,600.47,783.007,600.449Zm0,2.847-.021-.02-.061.061c.021.021.021.041.041.061C782.986,603.357,782.986,603.336,783.007,603.3Zm-.061-2.664c.02,0,.02.041.02.041.02-.021.041-.021.061-.041v-.04c-.02.02-.02.04-.041.061C782.986,600.632,782.966,600.632,782.946,600.632Zm0,.468v0Zm0,2.379a.062.062,0,0,1,.02.04c.02,0,.041-.02.061-.04v-.041c-.02.02-.02.041-.041.06A.069.069,0,0,0,782.946,603.479Zm.122-2.359c0-.021-.021-.021-.021-.041a.02.02,0,0,0-.02.02c0,.021.02.021.02.041Zm-.041,2.6v0Zm.041.264c0-.02-.021-.041-.021-.061l-.02.021c0,.021.02.041.02.06A.02.02,0,0,1,783.068,603.987Zm0-3.5v-.041a.02.02,0,0,0-.021.021c0,.02.021.02.021.041Zm0,2.847V603.3l-.021.021c0,.02.021.02.021.041Zm.1-2.766v-.02c-.081.041.021.224-.081.244.02.02.041.02.061.041C783.21,600.754,783.129,600.652,783.17,600.571Zm0,2.847v-.02c-.081.041.021.224-.081.265.02,0,.041.02.061.02C783.21,603.621,783.129,603.5,783.17,603.417Zm-.041-1.951v-.021h-.021C783.108,601.466,783.108,601.466,783.129,601.466Zm0,2.847v-.021a.02.02,0,0,0-.021.021ZM783.19,601a.072.072,0,0,1-.061-.021V601a.075.075,0,0,0,.061.02Zm-.061,2.846v.021h.061A.075.075,0,0,0,783.129,603.845Zm.041-2.379h-.021c0,.02,0,.02.021.041Zm0,2.867v-.02l-.021.02.021.02Zm.061-3.721a.02.02,0,0,0-.02-.02.07.07,0,0,0-.02.04v.041C783.21,600.652,783.23,600.632,783.23,600.612Zm-.04.407v0Zm0,.325v0Zm.04,2.135c0-.021,0-.041-.02-.041a.073.073,0,0,1-.02.041v.04C783.21,603.5,783.23,603.5,783.23,603.479Zm-.04.386v0Zm0,.326v0Zm.02-2.725v0Zm0,2.847v0Zm.061-3.131v-.021c-.02-.021-.02,0-.041,0,.021,0,.021,0,.021.021Zm-.041.081v.041l.021-.021A.02.02,0,0,0,783.23,601.263Zm.041,2.785v-.041h-.041l.021.021A.02.02,0,0,1,783.271,604.048Zm-.041.082v.02h.021C783.251,604.13,783.251,604.13,783.23,604.13Zm.041-3.152-.02.021a.019.019,0,0,0,.02.02Zm0,2.867v-.021l-.02.021c0,.021,0,.021.02.041Zm0-3.314v0Zm0,2.867v0Zm.02-2.827c0,.021.021.041.021.061.021-.02.021-.04.041-.04-.02-.021-.02-.041-.041-.041Zm0,.712a.02.02,0,0,0,.021.021v-.041A.02.02,0,0,0,783.291,601.283Zm0,2.156c0,.02.021.02.021.041.021,0,.021-.021.041-.041l-.041-.041C783.312,603.417,783.291,603.417,783.291,603.439Zm0,.711h.021v-.041C783.291,604.13,783.291,604.13,783.291,604.15Zm.061-3.294h.021l-.021-.02Zm0,.285v.021a.02.02,0,0,0,.021.021C783.373,601.161,783.373,601.14,783.352,601.14Zm0,2.583a.021.021,0,0,0,0-.041Zm.021.305c0-.021,0-.021-.021-.041v.02c0,.021,0,.021.021.041Zm0-3.518h.02c0-.041,0-.061-.02-.081Zm0,.3v0Zm0,2.542h.02a.155.155,0,0,0-.02-.081Zm0,.142v0Zm.061-2.359h0Zm0,2.867a.02.02,0,0,0-.021-.02Zm.02-3.558h-.02v.021A.02.02,0,0,0,783.454,600.449Zm0,.447v-.041c0,.021-.02.021-.02.041Zm0,2.42a.02.02,0,0,0-.02-.021v.021Zm0,.447v-.04l-.02.02A.02.02,0,0,1,783.454,603.763Zm0-3.09c0,.02.02.02.02.041v-.041Zm.041.61c-.021-.02-.021-.02-.021-.041a.02.02,0,0,0-.02.021.07.07,0,0,1,.02.041C783.474,601.283,783.474,601.283,783.5,601.283Zm-.041,2.258.02.02v-.041Zm.041.59a.02.02,0,0,1-.021-.021c-.02-.021-.02,0-.02,0,0,.021.02.021.02.041A.02.02,0,0,1,783.5,604.13Zm0-3.6-.021-.021v.041A.02.02,0,0,0,783.5,600.531Zm-.021.488.021-.02a.021.021,0,0,1-.021-.021v.041Zm.021.509a.02.02,0,0,1-.021.02h.021Zm0,1.87c0-.02-.021-.02-.021-.02h0v.04Zm-.021.468h.021a.021.021,0,0,0-.021-.021Zm0,.529.021.02v-.02Zm.061-3.212c-.02.02-.02.02-.02.04v.041c.02-.021.02-.021.02-.041Zm0,.366h-.02c0,.02,0,.02.02.02Zm0,.1v-.021a.02.02,0,0,0-.02.021Zm0,2.4a.02.02,0,0,0-.02.021v.061a.077.077,0,0,0,.02-.061Zm0,.366v-.02c-.02,0-.02,0-.02.02l.02.021Zm0,.082h0Zm.041-3.619c0-.021-.02-.062-.02-.082l-.021.02a.124.124,0,0,1,.021.082Zm0,2.847c0-.021-.02-.041-.02-.082a.02.02,0,0,1-.021.021.181.181,0,0,1,.021.1A.062.062,0,0,0,783.576,603.723Zm-.02-3.01v.02c0,.021,0,0,.02,0Zm0,2.867v.021h.02A.02.02,0,0,0,783.556,603.58Zm.02-3.212a.278.278,0,0,1,.041.122l.02-.02c0-.061,0-.1-.04-.1Zm0,.142v0Zm.021.976h-.021v.021Zm-.021,1.748a.281.281,0,0,1,.041.122c0-.021.02-.021.02-.041,0-.061,0-.082-.04-.1A.02.02,0,0,1,783.576,603.234Zm0,.1v0Zm.021,1.016a.02.02,0,0,1-.021-.02v.041C783.576,604.353,783.576,604.353,783.6,604.353Zm.02-3.639h0Zm0,2.867h0Zm0,.753v0Zm.061-3.314a.02.02,0,0,0-.021.02c-.041.061,0,.082.021.143v-.163Zm0,2.847a.02.02,0,0,0-.021.02c-.041.061,0,.1.021.143v-.163Zm.02-2.928c.021,0,.021-.021.021-.041v-.02a.12.12,0,0,0-.021.081Zm0,.02v0Zm.021.57H783.7v.02Zm-.021,2.033v0Zm.021.183v-.02a.121.121,0,0,0-.021.081A.074.074,0,0,0,783.719,603.743Zm-.021.671a.02.02,0,1,0,0-.04v.04Zm.021-3.639a.02.02,0,0,1,.02-.021c-.02,0-.02,0-.02-.021Zm0,2.847h.02l-.02-.021v.021Zm.02-2.542c.021-.041.041-.081.061-.122,0-.02-.02-.041-.02-.061-.021.041-.021.081-.041.122Zm.041.346a.073.073,0,0,0-.021-.061c0,.02,0,.04-.021.04.021.021.021.021.021.041Zm-.041,2.5.061-.122a.213.213,0,0,1-.02-.061c-.021.041-.021.1-.041.122Zm.041.346a.063.063,0,0,0-.021-.041.062.062,0,0,1-.021.041.02.02,0,0,1,.021.021C783.78,604.292,783.78,604.292,783.78,604.272Zm0-3.884v-.02c-.021.02-.021.02-.021.041A.02.02,0,0,0,783.78,600.388Zm0,.285v.02h-.021v.021a.02.02,0,0,1,.021-.021Zm0,.122c0-.02,0-.02-.021-.02v.02Zm0,2.46v-.041a.074.074,0,0,0-.021.061A.02.02,0,0,1,783.78,603.255Zm-.021.2v0Zm0,.082v.02l.021-.02Zm.021.1a.02.02,0,0,0-.021-.02v.02Zm.061.244v0Zm.04-2.257v0Zm0,2.847v0Zm.041-3.985v-.06H783.9c0,.041.021.06.021.081Zm0,.468.02-.02a.075.075,0,0,1-.02-.041.02.02,0,0,1-.021.02C783.922,600.938,783.922,600.938,783.922,600.958Zm0,2.379v-.061l-.021.02c0,.021.021.041.021.082Zm0,.468a.02.02,0,0,0,.02-.02l-.02-.021H783.9A.065.065,0,0,1,783.922,603.8Zm.041-2.643c0,.021,0,.021-.021.021.021.02.041.04.061.04C783.983,601.2,783.963,601.182,783.963,601.161Zm0,2.867-.021.02c.021,0,.041.021.061.041C783.983,604.069,783.963,604.048,783.963,604.028Zm.02-3.051v-.02h0Zm0,2.867v-.021a.02.02,0,0,0-.02-.02v.02h.02Zm.021-3.091v-.021l-.021.021a.062.062,0,0,0,.021.041Zm-.021.813v0ZM784,603.6a.02.02,0,0,0-.021.021l.021.02Zm0-.142v0Zm.082-2.562c-.021,0-.021,0-.041.02a.3.3,0,0,0,0,.265c.061.061.041-.082.061-.122C784.1,601,784.085,600.938,784.085,600.9Zm0,2.847c-.021,0-.021.02-.041.02a.3.3,0,0,0,0,.265c.061.061.041-.082.061-.122C784.1,603.845,784.085,603.8,784.085,603.743Zm-.061-3.273v0Zm.04.061v-.021a.02.02,0,0,0-.02-.021l-.02.021C784.044,600.51,784.044,600.531,784.064,600.531Zm0,2.867v-.02c0-.021,0-.021-.02-.041a.02.02,0,0,1-.02.021Zm.082-2.908c0-.02-.021-.02-.021-.041v.1c-.02.02-.04.02-.061.041.021.02.041.061.082.081,0,.02.041-.021.041-.041,0-.081-.021.021-.041,0a.12.12,0,0,0-.021-.081A.074.074,0,0,0,784.146,600.49Zm0,2.847-.021-.02v.1c-.02,0-.04.021-.061.021a.214.214,0,0,0,.082.1l.041-.041c0-.1-.021,0-.041-.02a.076.076,0,0,0-.021-.062A.119.119,0,0,0,784.146,603.336Zm.081-2.2a.125.125,0,0,0-.02-.081.685.685,0,0,1-.1.162C784.146,601.242,784.207,601.221,784.227,601.14Zm0,2.847a.205.205,0,0,0-.02-.081v0a.437.437,0,0,1-.1.163C784.146,604.089,784.207,604.069,784.227,603.987Zm-.06-2.968a.02.02,0,0,1-.021-.02h-.021a.073.073,0,0,0,.021.06C784.146,601.039,784.146,601.019,784.166,601.019Zm0,2.847a.02.02,0,0,1-.021-.021l-.021.021a.063.063,0,0,0,.021.041C784.146,603.885,784.146,603.885,784.166,603.865Zm-.021-2.481v0Zm0,2.847v0Zm.163-3.741c-.021,0-.021,0-.021-.02-.041-.021-.061-.1-.1-.061-.041.061.02.1.04.122.021.04.061.1.122.1.021,0,.082-.1.1-.081.061.02.041-.061.061-.061a.2.2,0,0,0-.021-.06.157.157,0,0,0-.082-.041c0,.021.021.041.021.061a.02.02,0,0,1-.021.021c-.081.081-.02-.163-.081-.122a.073.073,0,0,1-.02-.041v.021l.02.021C784.37,600.409,784.308,600.449,784.308,600.49Zm0,2.847h-.021c-.041-.041-.061-.122-.1-.061-.041.041.02.081.04.1a.182.182,0,0,0,.122.122c.021,0,.082-.1.1-.1.061.02.041-.041.061-.061a.2.2,0,0,0-.021-.061c-.021-.021-.06-.021-.082-.041,0,.021.021.041.021.061s0,.021-.021.021c-.081.081-.02-.163-.081-.122l-.02-.021a.02.02,0,0,0,.02.021C784.37,603.276,784.308,603.3,784.308,603.336Zm-.122-2.5v.02a.043.043,0,0,0,.04-.041C784.227,600.836,784.207,600.836,784.187,600.836Zm0,2.867a.069.069,0,0,0,.04-.021A.061.061,0,0,0,784.187,603.7Zm.061-2.338a.02.02,0,0,0-.021-.021v.021Zm0,2.867v-.02l-.021-.02v.02A.02.02,0,0,0,784.247,604.231Zm.061-3.131c.02-.061,0-.081-.041-.1,0,.06-.041.122.02.162v0C784.288,601.14,784.308,601.12,784.308,601.1Zm0,2.847c.02-.061,0-.081-.041-.1,0,.061-.041.142.02.183v0C784.288,604.007,784.308,603.987,784.308,603.946Zm-.041-3.335v0Zm.02.244v.021l-.02.02a.213.213,0,0,0,.02.061c.041,0,.061,0,.061-.061,0-.02-.041-.02-.061-.02Zm-.02,2.583v0Zm.02.264v.021c0,.02-.02.02-.02.04a.07.07,0,0,0,.02.041c.041,0,.061,0,.061-.061a.206.206,0,0,0-.061-.02Zm.122-2.7h-.081c.041.04.061.06.081.081s.041,0,.061-.021c-.02-.021-.02-.041-.04-.041C784.431,601,784.431,601,784.409,601Zm0,2.867h-.081c.041.02.061.06.081.081.021,0,.041-.021.061-.021-.02-.02-.02-.041-.04-.06Zm-.02-3.172a.02.02,0,0,0,.02-.02.02.02,0,0,0-.02-.021.02.02,0,0,0,0,.041Zm0,2.867.02-.02c0-.021,0-.041-.02-.041a.07.07,0,0,0-.02.041Zm0-2.42h0Zm.02,2.847h-.02c0,.02,0,.02.02.02Zm.021-2.988h0Zm0,2.867h0Zm.02-3.051v-.06a.02.02,0,0,1-.02.021A.062.062,0,0,1,784.451,600.815Zm0,.143h0Zm0,2.724v-.061h-.02A.075.075,0,0,1,784.451,603.682Zm-.02.142.02-.02h-.02Zm.06-2.623-.041-.041c.02.041.02.06.041.081A.028.028,0,0,0,784.491,601.2Zm0,2.867c-.021-.021-.021-.041-.041-.041.02.02.02.041.041.081A.028.028,0,0,0,784.491,604.069Zm-.021-.326v0Zm.021-2.867a.409.409,0,0,1,.1.061v0C784.572,600.856,784.552,600.795,784.491,600.876Zm0,2.847a.2.2,0,0,1,.1.081C784.572,603.723,784.552,603.641,784.491,603.723Zm.041-3.314a.02.02,0,0,0-.02-.021c0,.021,0,.021.02.041Zm-.02.63h.02a.069.069,0,0,0-.02-.04v.04Zm.02,2.216-.02-.021v.021a.02.02,0,0,0,.02.021Zm-.02.63h.02c0-.02-.02-.02-.02-.041Zm.041-3.4c0,.081.041,0,.061.041a.02.02,0,0,0,.02-.021.3.3,0,0,1-.061-.081C784.572,600.47,784.532,600.49,784.552,600.49Zm0,2.847c0,.1.041,0,.061.061a.02.02,0,0,1,.02-.02.269.269,0,0,0-.061-.082C784.572,603.316,784.532,603.336,784.552,603.336Zm.1-3.009-.02-.021v.021a.063.063,0,0,0,.02.041Zm.1.447v-.061a.075.075,0,0,0,.061.02c.1-.041.143.163.224.143.02,0,.02,0,.041-.021,0-.041-.021-.081-.021-.122h-.02v.1h-.02c-.041-.224-.184-.1-.265-.2h-.041c-.02,0-.04.021-.081.041.02.02.041.02.061.041Zm-.122.244v0Zm.02.325h0Zm0,1.851c0-.021,0-.021-.02-.021,0,.021,0,.021.02.041Zm.1.427v-.041c.02,0,.041.021.061,0,.1-.02.143.183.224.163.02-.02.02-.02.041-.02,0-.061-.021-.1-.021-.143h-.02v.122a.02.02,0,0,1-.02-.021c-.041-.223-.184-.081-.265-.183-.021-.02-.021-.02-.041-.02-.02.02-.04.02-.081.04.02.021.041.041.061.041Zm-.122.244v0Zm0,.346.02-.02h-.02Zm.061-3.8a.07.07,0,0,0,.02.04h.021v-.081C784.695,600.388,784.695,600.409,784.695,600.409Zm.02.1a.02.02,0,0,1-.02-.021v.021h.02c0,.021.021.021.021.041C784.735,600.531,784.715,600.531,784.715,600.51Zm0,.2h0Zm-.02,2.542c0,.021.02.041.02.061a.02.02,0,0,0,.021-.021v-.081Zm.02.122c-.02-.021-.02-.021-.02-.041v.021l.02.021.021.02Zm0,.183h0Zm0-2.724v0Zm.041-.163-.021.02a.02.02,0,0,1,.021.021Zm-.021,2.867h.021v.04C784.756,603.56,784.756,603.56,784.735,603.54Zm.041-3.111v0Zm.041.142c0-.02-.02-.02-.02-.04l-.021.02c0,.02.021.041.021.061C784.816,600.592,784.816,600.592,784.816,600.571Zm-.02.448h0Zm-.021,2.257v0Zm.041.163c0-.021-.02-.041-.02-.061l-.021.02c0,.02.021.041.021.082A.064.064,0,0,0,784.816,603.439Zm-.02.427h0Zm.04-2.806c0-.06.041-.1.021-.143-.021.021-.021.061-.041.1l.02.02Zm.021,2.7c-.021.041-.021.061-.041.1a.07.07,0,0,1,.02.041C784.836,603.865,784.877,603.824,784.857,603.763Zm-.021-3.334v0Zm0,.63v0Zm0,2.216v0Zm.041,1.1v0Zm.082-3.762v.02c0,.021.02,0,.02,0C784.979,600.612,784.979,600.612,784.959,600.612Zm0,2.847v.041a.02.02,0,0,0,.02-.02A.02.02,0,0,0,784.959,603.458Zm.081-2.806c.041,0,.061-.041.081-.061-.02-.041-.02-.061-.041-.082,0,.061-.041.1-.1.061A.344.344,0,0,1,785.04,600.652Zm0,2.867c.041-.02.061-.061.081-.08-.02-.021-.02-.061-.041-.082,0,.082-.041.1-.1.082A.34.34,0,0,1,785.04,603.519Zm.02-3.09c.021,0,.021,0,.041.02h-.021C785.081,600.429,785.081,600.388,785.06,600.429Zm.021.549a.02.02,0,0,1-.021.021h.021Zm.041.143v-.041c-.02.02-.02.02-.02.041h-.041v.041c.021-.021.021-.041.041-.041Zm-.061,2.175h.021C785.081,603.276,785.081,603.234,785.06,603.3Zm0,.549h0Zm.061.122v-.021a.02.02,0,0,0-.02.021.065.065,0,0,1-.041.02v.02c.021,0,.021-.02.041-.04Zm-.02-3.274v0Zm.02.122v-.02a.02.02,0,0,0-.02.02s0,.021.02.021Zm-.02,2.766v0Zm.02.082h-.02c0,.02,0,.02.02.02Zm.082-3.131h.02v-.021h-.02Zm0,2.867h.02v-.02h-.02Zm.081-2.887a.02.02,0,0,0,.02-.021h-.04Zm0,2.867.02-.021a.02.02,0,0,1-.02-.021l-.02.021C785.284,603.357,785.284,603.357,785.284,603.377Zm.02-3.091h0Zm0,2.847h0Zm.082-2.664c0-.021,0-.021-.021-.021,0-.02,0,0-.02,0,.02.021.02.021.02.041A.02.02,0,0,0,785.386,600.47Zm0,2.847a.02.02,0,0,0-.021-.021l-.02.021c.02,0,.02.02.02.041C785.386,603.336,785.386,603.336,785.386,603.316Zm0-2.095h-.021v0Zm0,2.847h-.021v0Zm.183-3.6h0Zm-.02.305v0Zm.02,2.542-.02.02Zm.02-2.989v0Zm.041.793c0-.021-.02-.021-.02-.041l-.021.02c.021,0,.021.021.041.041Zm-.041,2.053v0Zm.041.794-.02-.021c0-.021,0,0-.021,0a.149.149,0,0,1,.041.06Zm.02-3.6a.02.02,0,0,0-.02-.02v.04Zm-.02.468a.02.02,0,0,0,.02.02v-.02Zm.02,2.379h-.02v.02C785.65,603.234,785.65,603.234,785.65,603.214Zm-.02.488h.02v-.021Zm.041-2.888h-.021a.02.02,0,0,0,.021.021Zm0,.265-.021-.021v.041C785.671,601.1,785.671,601.1,785.671,601.08Zm0,2.582a.02.02,0,0,1-.021.02h.021Zm0,.285c0-.021,0-.021-.021-.021v.041Zm.021-2.725h0v0Zm0,2.847h-.021v.02a.02.02,0,0,1,.021-.02v0Zm.1-2.827v-.021h-.061a.02.02,0,0,1-.021.021c.041,0,.061,0,.082-.021,0,.021,0,.021-.021.041C785.793,601.263,785.793,601.263,785.793,601.242Zm-.082,1.992v0Zm.082.875v-.021c-.021,0-.041-.02-.061-.02a.063.063,0,0,1-.021.041.152.152,0,0,1,.082-.021.02.02,0,0,1-.021.021Zm0-3.843c0-.02,0-.02-.021-.041v.021c0,.02,0,.02.021.041Zm0,2.847a.02.02,0,0,0-.021-.021v.021l.021.021Zm.061-2.623v-.041l-.021.021v.061A.063.063,0,0,0,785.854,600.49Zm0,2.847V603.3l-.021.021v.061C785.854,603.357,785.854,603.357,785.854,603.336Zm.04-2.7v-.02h-.02v.02Zm0,.122a.02.02,0,0,0-.02-.021C785.874,600.754,785.874,600.754,785.894,600.754Zm0,2.725v-.021c-.02,0-.02,0-.02.021Zm0,.142V603.6h-.02Zm.021.65v0Zm.061-3.7a.02.02,0,0,0,.02-.02c-.02-.02-.02-.041-.041-.061l-.02.021C785.955,600.531,785.976,600.551,785.976,600.571Zm0,2.847c0,.021.02,0,.02,0-.02-.02-.02-.04-.041-.06,0-.021,0,0-.02,0A.233.233,0,0,0,785.976,603.417Zm.081-2.623v.02h-.02l.02.021v-.041Zm-.02,2.867c0,.02.02.02.02.041v-.041Zm.04-3.253-.02.02c0,.02,0,.041.02.041a.02.02,0,0,0,.021-.021A.069.069,0,0,0,786.077,600.409Zm0,2.846a.072.072,0,0,0-.02.041.063.063,0,0,0,.02.041.069.069,0,0,0,.021-.041A.072.072,0,0,0,786.077,603.255Zm.021-1.769h0Zm.021,2.847H786.1v.02h.021Zm.082-3.151c-.021,0-.021-.021-.041-.021l-.021.021a.07.07,0,0,1,.041.02Zm0,2.847c-.021,0-.021-.021-.041-.021a.021.021,0,0,1-.021.021c.021.02.041.02.041.041C786.178,604.048,786.2,604.048,786.2,604.028Zm-.041-3.7v0Zm.02.265h-.02c.02,0,.02,0,.02.02Zm.041.324c-.02-.02-.02-.04-.041-.04a.069.069,0,0,0-.02.04l.02.021C786.2,600.938,786.2,600.916,786.22,600.916Zm-.041.57h-.02a.02.02,0,0,0,.02.021Zm-.02,1.687v0Zm.02.265h-.02l.02.02Zm.041.324c-.02,0-.02-.02-.041-.02l-.02.02c0,.021.02.021.02.041C786.2,603.784,786.2,603.784,786.22,603.763Zm-.041.57h-.02v.02h.02Zm.021-3.64v0Zm.02-.081v0Zm0,2.847v0Zm.041-3.049h-.021c0,.02.021.02.021.04h.041Zm0,2.846-.021.021.021.02h.041Zm.081-2.5a.02.02,0,0,0,.021-.021c0-.02,0-.02-.021-.041l-.041.021Zm0,2.847h.021a.072.072,0,0,0-.021-.06s0,.02-.041.02Zm.041-2.521v0Zm0,2.846v0Zm.122-2.948h-.021V601c-.02,0-.04.02-.061.02a.062.062,0,0,0,.021.041h.06c0-.021-.021-.041-.021-.06A.021.021,0,0,1,786.5,600.978Zm0,2.847h-.021v.041h-.061c0,.02,0,.041.021.041a.075.075,0,0,1,.06.02c0-.02-.021-.041-.021-.06S786.484,603.845,786.5,603.824Zm-.082.163v0Zm.082-3.375-.021-.02-.02.02a.02.02,0,0,1,.02.02C786.5,600.632,786.5,600.632,786.5,600.612Zm-.041.224h.02c0-.021,0-.021-.02-.021Zm.041,2.643c0-.021-.021-.021-.021-.041a.02.02,0,0,1-.02.02c.02.021.02.021.02.041Zm-.041.2v.021l.02-.021-.02-.02Z" transform="translate(-774.344 -595.426)"/><path class="d" d="M792.39,593.088c.122-.041.265.1.386.2.061.041.081.142.122.2a2.49,2.49,0,0,0,.223.245.02.02,0,0,0,.021-.021c.142.285.3.57.447.834a2.145,2.145,0,0,0,.122.326c.041.1.1.2.142.325.02.041.041.1.061.143.061.1.1.2.142.285.082.2.183.386.265.59.06.162.142.325.2.488a.429.429,0,0,0,.082.122c.122.285.244.549.386.895a13.239,13.239,0,0,1,.548,1.4.093.093,0,0,0,.061.02c.041-.224.1-.447.163-.671a3.21,3.21,0,0,1,.1-.427c.1-.325.183-.651.285-.976a5.179,5.179,0,0,0,.162-.529c.061-.2.122-.387.163-.57.1-.386.224-.752.305-1.138a2.184,2.184,0,0,0,.082-.508,1.15,1.15,0,0,1,.162-.509c.082-.183.143-.387.2-.57a1.091,1.091,0,0,1,.2-.407.972.972,0,0,1,.142.061c.041-.041.061-.081.1-.122h.021c.122.041.224.1.325.143.061.04.122.061.183.1a.561.561,0,0,1,.285.325c.041.081.122.163.163.244a1.387,1.387,0,0,1,.1.59,1.217,1.217,0,0,0,.061.224q.03.366.061.731c0,.082.02.183.02.265.02.305.02.59.02.895.021.264.041.529.061.814v.63a1.366,1.366,0,0,0,.041.285v.122a1.356,1.356,0,0,1,.06.488v1.2a3.3,3.3,0,0,0,.021.447v.346c0,.041.02.081.02.122v.794h.041v.812a1.522,1.522,0,0,1,.021.305c0,.142.02.285.02.447v1.058c0,.163.021.325.021.467,0,.1.02.183.02.264.021.305.061.59.081.875.021.244.041.488.041.732v.59a2.157,2.157,0,0,1-.041.366,3.909,3.909,0,0,1-.1.406.2.2,0,0,1-.2.122c-.1-.021-.183-.021-.285-.041-.142,0-.2-.122-.244-.224-.06-.122-.122-.224-.183-.325a.9.9,0,0,1-.223-.509c0-.305-.021-.59-.041-.874-.021-.224-.061-.468-.082-.691,0-.184.021-.367.021-.57,0-.163-.041-.346-.041-.529,0-.244.041-.467.041-.711,0-.183-.041-.366-.041-.57a2.487,2.487,0,0,0,0-.386v-.753c-.02-.285,0-.59-.02-.875a7.684,7.684,0,0,0-.061-.955c0-.122-.041-.264-.041-.407v-.386c0-.122-.02-.265-.02-.406,0-.122.02-.265.02-.387,0-.183-.02-.366-.02-.528,0-.142.02-.285.02-.427V596.2c0-.285.021-.549.041-.814a.148.148,0,0,0-.041-.122c0,.021-.02.021-.02.041-.062.183-.1.366-.163.57a3,3,0,0,1-.082.366c-.04.163-.081.325-.122.488,0,.061-.02.122-.02.183-.041.163-.1.326-.122.468-.041.163-.061.326-.1.467v.061c-.041.163-.061.326-.1.488a1.346,1.346,0,0,1-.081.265,6.231,6.231,0,0,1-.142.651c-.041.1-.082.2-.122.305a2.832,2.832,0,0,0-.082.406,3.839,3.839,0,0,1-.081.468c-.021.061-.041.122-.061.183l-.122.366a3.561,3.561,0,0,1-.142.427.684.684,0,0,1-.183.285c-.1.1-.162.264-.325.244a.377.377,0,0,1-.244-.1,1.079,1.079,0,0,1-.244-.284c-.123-.223-.245-.447-.366-.651a3.49,3.49,0,0,0-.265-.569,7.533,7.533,0,0,1-.427-.915c-.1-.223-.223-.447-.326-.691-.081-.224-.162-.468-.243-.712-.081-.224-.184-.427-.265-.651-.1-.265-.183-.549-.265-.813-.041-.122-.1-.265-.142-.386s-.1-.245-.143-.366v-.081c-.061-.122-.1-.265-.162-.387h-.041v.163c.021.143.061.265.081.387.021.325.021.651.041.975,0,.122.02.265.02.387a4.94,4.94,0,0,1,.041.529c0,.122-.021.244-.021.345,0,.143.021.265.021.407a.064.064,0,0,1-.021.041h.021a1.04,1.04,0,0,0-.041.223.742.742,0,0,0,.041.183l-.021.021c.041.2.061.407.1.59a.02.02,0,0,1-.021.021,3.015,3.015,0,0,1,0,.61c-.02.244-.02.488-.02.732h.041a.074.074,0,0,0-.021.061h.021c.021.447.06.894.082,1.342a1.192,1.192,0,0,1,.04.467,1.569,1.569,0,0,0-.02.305c.02.244.061.509.081.753.021.2,0,.407.021.61,0,.163.02.305.02.468a2.823,2.823,0,0,1,0,.59v.529a1.519,1.519,0,0,0-.02.305c.041.265,0,.548.02.813.021.1-.02.142-.1.183-.02.021-.04.021-.061.041.1.061.183.1.143.244a2.951,2.951,0,0,0-.387.244c-.061,0-.142.02-.2.02-.061.021-.143.041-.2.061-.021-.021-.021-.061-.041-.081-.021-.041-.061-.1-.1-.1a.336.336,0,0,1-.2-.305c0-.2-.02-.407-.02-.61-.02-.041,0-.1,0-.163v-.285c-.02-.2-.041-.406-.06-.61a9.127,9.127,0,0,0-.021-1.058,6.789,6.789,0,0,1,0-.915,1.191,1.191,0,0,0-.041-.386,4.606,4.606,0,0,1-.061-.915c0-.386,0-.773-.02-1.179,0-.285-.041-.57-.041-.854-.02-.325-.02-.651-.02-.976.02-.265.041-.509.041-.772,0-.224-.041-.467-.041-.691-.021-.366-.021-.733-.041-1.1,0-.1-.021-.224-.021-.346,0-.162.021-.325.021-.467,0-.224-.021-.447-.041-.671a3.379,3.379,0,0,0,.041-.447c-.021-.245.02-.468.02-.712a3.56,3.56,0,0,0-.02-.467c-.021-.2-.021-.407-.041-.611a1.99,1.99,0,0,1,.041-.346C791.861,593.006,792.085,593.027,792.39,593.088Zm.407,1.687c-.021-.041-.021-.081-.041-.122h-.02v.243h.02v-.081l-.02-.021C792.755,594.795,792.776,594.775,792.8,594.775Z" transform="translate(-778.337 -592.782)"/><path class="d" d="M811.392,606.783c0,.143-.04.183-.244.244a.215.215,0,0,0-.142.265c-.041.061-.08.1-.142.183-.142.061-.244.224-.488.264-.163.041-.366.1-.59.163a.668.668,0,0,1-.2,0,11.208,11.208,0,0,1-1.2-.223,3.239,3.239,0,0,1-.59-.305,2.662,2.662,0,0,1-.386-.284,5.423,5.423,0,0,1-.529-.427,10.482,10.482,0,0,1-.874-1.017,3.422,3.422,0,0,1-.569-1.118c-.122-.447-.244-.894-.326-1.342a11.243,11.243,0,0,1-.142-1.159,4.784,4.784,0,0,1,.02-.772,6.5,6.5,0,0,1,.2-1.261c.061-.264.1-.529.183-.792.122-.427.244-.854.386-1.26.143-.367.326-.733.488-1.078a7,7,0,0,1,.326-.691c.02-.041.061-.082.061-.1.081-.163.142-.305.2-.427.183-.265.346-.529.528-.793a3.8,3.8,0,0,1,1.078-.976,3.292,3.292,0,0,1,.61-.265,3.228,3.228,0,0,1,.346-.1,4.308,4.308,0,0,1,.468-.061,1.207,1.207,0,0,1,.691.264.9.9,0,0,1,.305.244c.041.041.021.143.021.2,0,.02-.082.02-.122.04a.443.443,0,0,0-.122.082.784.784,0,0,1-.326.142,1.088,1.088,0,0,0-.407.1,5.411,5.411,0,0,0-.772.366,3.218,3.218,0,0,0-.488.427,3.608,3.608,0,0,1-.243.285,2.619,2.619,0,0,0-.468.671c0,.041-.041.061-.061.1-.1.224-.2.427-.3.651-.1.2-.163.407-.265.61a4.45,4.45,0,0,0-.324,1.038q-.153.548-.305,1.1c-.041.162-.082.3-.122.467-.021.143-.061.285-.081.427,0,0-.021.02,0,.02a1.768,1.768,0,0,1-.081.57c-.021.162-.061.305-.082.407,0,.345-.021.65,0,.976a2.23,2.23,0,0,0,.1.509c.021.06.021.1.041.162.041.223.081.427.122.63.02.122.041.244.081.407a.84.84,0,0,1,.183.407,2.467,2.467,0,0,0,.224.467.65.65,0,0,1,.082.162c.142.163.284.346.427.509.02,0,.02,0,.02-.02,0,.041.02.061.02.1,0-.02,0-.02.021-.04.163.162.346.325.508.508a1.352,1.352,0,0,0,.753.467,1.146,1.146,0,0,0,.59-.02,7.189,7.189,0,0,0,.692-.326,3.285,3.285,0,0,1,.366-.2,1.107,1.107,0,0,1,.366,0c.082.02.163.02.244.041.041,0,.061.021.122.041C811.189,606.621,811.291,606.7,811.392,606.783Z" transform="translate(-783.105 -593.018)"/></g><text class="e" transform="translate(33.582 9)"><tspan x="-5.005" y="0">2</tspan></text></g><g transform="translate(676.087 189.424)"><g transform="translate(20.955 13.536)"><rect class="b" width="7.264" height="18.236" rx="1" transform="translate(0 12.16)"/><rect class="b" width="7.264" height="24.316" rx="1" transform="translate(12.24 6.08)"/><rect class="b" width="7.264" height="30.397" rx="1" transform="translate(24.481)"/></g><g transform="translate(0 0)"><line class="f" y2="52.699" transform="translate(8.89)"/><line class="f" x1="63.219" transform="translate(0 43.933)"/></g></g><g transform="translate(749.137 24.943)"><circle class="f" cx="7.686" cy="7.686" r="7.686" transform="translate(339.539 186.092)"/><circle class="f" cx="7.686" cy="7.686" r="7.686" transform="translate(26.513 112.12)"/><circle class="f" cx="6.233" cy="6.233" r="6.233" transform="translate(146.871 88.379)"/><circle class="f" cx="6.233" cy="6.233" r="6.233" transform="translate(100.372 234.063)"/><path class="f" d="M982.69,463.1a3.074,3.074,0,1,1-3.074-3.074A3.074,3.074,0,0,1,982.69,463.1Z" transform="translate(-567.657 -293.955)"/><circle class="f" cx="3.074" cy="3.074" r="3.074" transform="translate(146.611 3.074)"/><circle class="f" cx="3.074" cy="3.074" r="3.074" transform="translate(313.166 138.595)"/><circle class="f" cx="3.074" cy="3.074" r="3.074" transform="translate(0 139.812)"/><circle class="f" cx="3.074" cy="3.074" r="3.074" transform="translate(322.959)"/><path class="f" d="M688.362,333.444a3.074,3.074,0,1,1-3.074-3.074A3.074,3.074,0,0,1,688.362,333.444Z" transform="translate(-432.701 -234.503)"/><path class="f" d="M248.271,611.313a3.074,3.074,0,1,1-3.074-3.074A3.074,3.074,0,0,1,248.271,611.313Z" transform="translate(-230.909 -361.912)"/></g><g transform="translate(749.137 152.09)"><ellipse class="f" cx="26.681" cy="12.646" rx="26.681" ry="12.646" transform="translate(0 16.72)"/><ellipse class="f" cx="26.681" cy="12.646" rx="26.681" ry="12.646" transform="matrix(0.52, -0.854, 0.854, 0.52, 2.004, 45.579)"/><ellipse class="f" cx="12.646" cy="26.681" rx="12.646" ry="26.681" transform="translate(2.004 13.153) rotate(-31.334)"/><circle class="f" cx="3.347" cy="3.347" r="3.347" transform="translate(23.334 26.019)"/></g><g transform="translate(1129.81 209.018)"><path class="f" d="M882,507.207a3.655,3.655,0,1,1-3.655-3.655A3.655,3.655,0,0,1,882,507.207Z" transform="translate(-874.695 -491.596)"/><circle class="f" cx="7.792" cy="7.792" r="7.792" transform="translate(21.214 20.549)"/><g transform="translate(14.987 14.323)"><path class="f" d="M926.013,521.248l-3.443,4.38-.663,5.533-5.532.663-4.38,3.443-4.38-3.443-5.533-.663-.663-5.532-3.443-4.38,3.443-4.38.663-5.533,5.532-.663,4.38-3.443,4.38,3.443,5.533.663.663,5.532Z" transform="translate(-897.977 -507.229)"/></g><path class="f" d="M918.27,532.726a3.651,3.651,0,0,1,6.39-2.417,20.927,20.927,0,1,0-5.427,4.883A3.636,3.636,0,0,1,918.27,532.726Z" transform="translate(-879.157 -489.075)"/><path class="f" d="M904.069,484.98a28.312,28.312,0,0,0-23.484,12.473,3.652,3.652,0,0,1-3.268,6.512,28.341,28.341,0,1,0,26.753-18.985Z" transform="translate(-875.063 -484.98)"/></g><g transform="translate(828.637 114.48)"><g transform="translate(0 29.233)"><path class="c" d="M341.805,347.536,328.87,360.254a3.47,3.47,0,0,1-4.907-.042h0a3.469,3.469,0,0,1,.042-4.907l12.935-12.718a3.471,3.471,0,0,1,4.907.042h0A3.469,3.469,0,0,1,341.805,347.536Z" transform="translate(-322.968 -341.592)"/></g><circle class="c" cx="14.907" cy="14.907" r="14.907" transform="translate(19.185)"/><circle class="c" cx="10.756" cy="10.756" r="10.756" transform="translate(23.336 4.151)"/><line class="c" x1="4.182" y2="4.182" transform="translate(19.368 25.448)"/></g><g transform="translate(1190.381 105.997)"><g transform="translate(11.051 42.635)"><g transform="translate(0 0)"><path class="c" d="M3.9,0h6.96a3.9,3.9,0,0,1,3.9,3.9v.185a0,0,0,0,1,0,0H0a0,0,0,0,1,0,0V3.9A3.9,3.9,0,0,1,3.9,0Z" transform="matrix(1, 0.008, -0.008, 1, 0.035, 0)"/></g></g><circle class="b" cx="14.742" cy="14.742" r="14.742" transform="translate(1.449 5.613) rotate(-9.351)"/><path class="f" d="M763.052,219.065,755.764,190.5l-.932-3.48a18.344,18.344,0,1,0,9.069,35.549l-.89-3.49" transform="translate(-741.019 -187.016)"/><ellipse class="b" cx="9.215" cy="3.239" rx="9.215" ry="3.239" transform="translate(5.817 5.758) rotate(-14.311)"/><ellipse class="b" cx="9.215" cy="3.239" rx="9.215" ry="3.239" transform="matrix(0.969, -0.247, 0.247, 0.969, 11.504, 28.05)"/><ellipse class="b" cx="7.371" cy="14.742" rx="7.371" ry="14.742" transform="translate(7.604 5.302) rotate(-14.311)"/><line class="b" y1="7.288" x2="28.569" transform="translate(4.105 14.12)"/><line class="b" y2="6.529" transform="translate(18.39 36.123)"/><line class="c" x2="18.851" transform="translate(9.232 46.89)"/></g><g transform="translate(591.242 194.938)"><path class="f" d="M313.514,541.357a2.493,2.493,0,1,1-2.493-2.493A2.493,2.493,0,0,1,313.514,541.357Z" transform="translate(-304.429 -530.096)"/><circle class="f" cx="2.493" cy="2.493" r="2.493" transform="translate(13.333)"/><path class="f" d="M373.1,545.231a2.493,2.493,0,1,1-2.493-2.494A2.493,2.493,0,0,1,373.1,545.231Z" transform="translate(-325.658 -531.476)"/><g transform="translate(0 20.619)"><g transform="translate(3.161)"><rect class="c" width="17.523" height="4.848" rx="2.424" transform="matrix(1, 0.009, -0.009, 1, 0.041, 0)"/></g><path class="c" d="M319.938,580.024V565.005H308.269v15.019l-6.109,22.191a5.645,5.645,0,0,0,5.644,5.644h12.6a5.645,5.645,0,0,0,5.644-5.644Z" transform="translate(-302.16 -560.029)"/><path class="c" d="M307.371,603.22s3.476-2.229,8.589.447a6.39,6.39,0,0,0,8.261-1.64" transform="translate(-304.016 -573.218)"/></g><g transform="translate(33.131 20.619)"><rect class="c" width="17.523" height="4.848" rx="2.424" transform="matrix(1, 0.009, -0.009, 1, 0.041, 0)"/><path class="c" d="M358.2,602.181a5.834,5.834,0,0,0,11.669,0V565.005H358.2Z" transform="translate(-355.257 -560.029)"/><path class="c" d="M358.2,602.181a5.834,5.834,0,0,0,11.669,0V565.005H358.2Z" transform="translate(-355.257 -560.029)"/><path class="c" d="M358.2,602.59a10.171,10.171,0,0,1,6,1.256,6.275,6.275,0,0,0,5.671.365" transform="translate(-355.257 -573.396)"/></g></g><g transform="translate(1219.326 178.401)"><rect class="c" width="66.168" height="48.819" rx="16.209"/><line class="c" x2="66.168" transform="translate(0 37.782)"/><path class="d" d="M794.067,639.975a1.724,1.724,0,1,1-1.724-1.723A1.724,1.724,0,0,1,794.067,639.975Z" transform="translate(-759.259 -596.966)"/><rect class="c" width="14.834" height="6.69" transform="translate(25.667 48.819)"/><line class="c" x2="25.606" transform="translate(20.281 55.868)"/></g><g transform="translate(752.025 3.331)"><g transform="translate(-107.347 100)"><rect class="f" width="13.595" height="56.046"/><line class="f" x1="6.797" transform="translate(6.797 6.722)"/><line class="f" x1="6.797" transform="translate(6.797 19.708)"/><line class="f" x1="6.797" transform="translate(6.797 32.694)"/><line class="f" x1="6.797" transform="translate(6.797 45.68)"/><line class="f" x1="3.399" transform="translate(10.196 11.021)"/><line class="f" x1="3.399" transform="translate(10.196 15.364)"/><line class="f" x1="3.399" transform="translate(10.196 24.029)"/><line class="f" x1="3.399" transform="translate(10.196 28.373)"/><line class="f" x1="3.399" transform="translate(10.196 37.038)"/><line class="f" x1="3.399" transform="translate(10.196 41.381)"/></g><g transform="translate(-150 100)"><g transform="translate(25.972 11.021)"><line class="f" x1="4.077" transform="translate(0 8.687)"/><line class="f" x1="4.077" transform="translate(0 21.673)"/><line class="f" x1="4.077" transform="translate(0 34.659)"/><line class="f" x1="2.039" transform="translate(2.038)"/><line class="f" x1="2.039" transform="translate(2.038 4.344)"/><line class="f" x1="2.039" transform="translate(2.038 13.009)"/><line class="f" x1="2.039" transform="translate(2.038 17.352)"/><line class="f" x1="2.039" transform="translate(2.038 26.017)"/><line class="f" x1="2.039" transform="translate(2.038 39.215)"/><line class="f" x1="2.039" transform="translate(2.038 30.361)"/></g><path class="f" d="M287.843,221.511l30.049-56.046v56.046Z" transform="translate(-287.843 -165.465)"/><path class="f" d="M309.058,231.347l8.219-15.33v15.33Z" transform="translate(-295.401 -183.474)"/></g></g><g transform="translate(683.035 101.995)"><g transform="translate(5.106 5.106)"><rect class="f" width="13.67" height="37.875" transform="matrix(-0.707, 0.707, -0.707, -0.707, 36.447, 26.782)"/></g><path class="f" d="M475.5,287.343l-2.617-12.283-9.666,9.666Z" transform="translate(-431.33 -243.172)"/><line class="f" x1="4.512" y2="4.512" transform="translate(38.436 38.436)"/><path class="f" d="M0,0H13.669a0,0,0,0,1,0,0V.386A6.835,6.835,0,0,1,6.835,7.221h0A6.835,6.835,0,0,1,0,.386V0A0,0,0,0,1,0,0Z" transform="translate(14.772 5.106) rotate(135)"/><line class="f" x1="9.666" y2="9.666" transform="translate(7.717 7.717)"/><line class="f" x1="24.171" y1="24.171" transform="translate(12.55 12.55)"/></g></g></svg>